<svg width="45" height="14" viewBox="0 0 45 14" fill="none" xmlns="http://www.w3.org/2000/svg">
<path fill-rule="evenodd" clip-rule="evenodd" d="M11.9195 13.7521H8.10293L5.24096 3.13679C5.10512 2.64849 4.81669 2.2168 4.39242 2.01334C3.3336 1.50204 2.16686 1.09512 0.894043 0.889889V0.481201H7.04225C7.89079 0.481201 8.5272 1.09512 8.63327 1.80811L10.1182 9.46527L13.9329 0.481201H17.6434L11.9195 13.7521ZM19.7648 13.7521H16.1604L19.1284 0.481201H22.7329L19.7648 13.7521ZM27.3962 4.15779C27.5023 3.44303 28.1387 3.03434 28.8812 3.03434C30.0479 2.93173 31.3189 3.13696 32.3796 3.64649L33.016 0.78921C31.9553 0.380522 30.7885 0.175293 29.7297 0.175293C26.2313 0.175293 23.6857 2.01351 23.6857 4.56471C23.6857 6.50554 25.4889 7.5246 26.7617 8.13852C28.1387 8.75067 28.669 9.15936 28.563 9.77151C28.563 10.6897 27.5023 11.0984 26.4435 11.0984C25.1707 11.0984 23.8979 10.7923 22.733 10.281L22.0966 13.1401C23.3694 13.6496 24.7464 13.8548 26.0192 13.8548C29.9419 13.9557 32.3796 12.1193 32.3796 9.36282C32.3796 5.89162 27.3962 5.68816 27.3962 4.15779ZM44.9939 13.7521L42.1319 0.481201H39.0578C38.4214 0.481201 37.785 0.889889 37.5729 1.50204L32.2732 13.7521H35.9837L36.7243 11.813H41.2834L41.7077 13.7521H44.9939ZM39.5883 4.05537L40.6471 9.05694H37.6791L39.5883 4.05537Z" fill="#172B85"/>
</svg>
