<svg width="42" height="25" viewBox="0 0 42 25" fill="none" xmlns="http://www.w3.org/2000/svg">
<path fill-rule="evenodd" clip-rule="evenodd" d="M20.8316 21.4513C18.6377 23.1979 15.7917 24.2522 12.6819 24.2522C5.74287 24.2522 0.117676 19.0028 0.117676 12.5272C0.117676 6.05171 5.74287 0.802246 12.6819 0.802246C15.7918 0.802246 18.6377 1.85663 20.8317 3.60323C23.0257 1.85666 25.8716 0.802295 28.9815 0.802295C35.9205 0.802295 41.5457 6.05176 41.5457 12.5273C41.5457 19.0028 35.9205 24.2523 28.9815 24.2523C25.8716 24.2523 23.0256 23.1979 20.8316 21.4513Z" fill="#ED0006"/>
<path fill-rule="evenodd" clip-rule="evenodd" d="M20.832 21.4512C23.5334 19.3006 25.2464 16.1006 25.2464 12.5272C25.2464 8.95388 23.5334 5.75387 20.832 3.60329C23.026 1.85666 25.872 0.802246 28.9819 0.802246C35.9209 0.802246 41.5461 6.05171 41.5461 12.5272C41.5461 19.0028 35.9209 24.2522 28.9819 24.2522C25.872 24.2522 23.026 23.1978 20.832 21.4512Z" fill="#F9A000"/>
<path fill-rule="evenodd" clip-rule="evenodd" d="M20.8314 21.4511C23.5329 19.3005 25.2458 16.1004 25.2458 12.527C25.2458 8.95365 23.5329 5.75361 20.8314 3.60303C18.13 5.75361 16.417 8.95365 16.417 12.527C16.417 16.1004 18.13 19.3005 20.8314 21.4511Z" fill="#FF5E00"/>
</svg>
