<svg width="48" height="48" viewBox="0 0 48 48" fill="none" xmlns="http://www.w3.org/2000/svg">
<circle cx="24" cy="24" r="24" fill="#4473C5"/>
<g clip-path="url(#clip0)">
<path d="M31.6645 35.7739L28.5059 32.6153L34.8869 26.2343V5.13415C34.8869 4.73363 34.5683 4.41504 34.1677 4.41504H27.104V8.97551C27.104 9.16666 26.9493 9.32141 26.7581 9.32141H11.1196C10.9285 9.32141 10.7737 9.16666 10.7737 8.97551V4.41504H3.71912C3.3186 4.41504 3 4.73363 3 5.13415V45.8871C3 46.2876 3.3186 46.6062 3.71912 46.6062H34.1677C34.5683 46.6062 34.8869 46.2876 34.8869 45.8871V32.5516L31.6645 35.7739Z" fill="#E4936B"/>
<path d="M31.2458 35.3554V37.4035C31.2458 41.4815 27.9415 44.7858 23.8635 44.7858H3V45.8872C3 46.2878 3.3186 46.6063 3.71912 46.6063H34.1677C34.5683 46.6063 34.8869 46.2878 34.8869 45.8872V32.5518L31.6645 35.7741L31.2458 35.3554Z" fill="#E27D47"/>
<path d="M34.1678 4.41504H31.2458V29.8845L34.8869 26.2434V5.13415C34.8869 4.73363 34.5592 4.41504 34.1678 4.41504Z" fill="#E27D47"/>
<path d="M31.6645 35.774L28.5059 32.6153L32.1105 29.0107V7.19141H27.104V8.97554C27.104 9.1667 26.9493 9.32145 26.7581 9.32145H11.1196C10.9285 9.32145 10.7737 9.1667 10.7737 8.97554V7.19141H5.76723V43.8299H32.0923V35.3371L31.6645 35.774Z" fill="#F6F9F9"/>
<path d="M27.3498 27.1623H15.7984C15.4252 27.1623 15.1157 26.8528 15.1157 26.4796C15.1157 26.1064 15.4252 25.7969 15.7984 25.7969H27.3498C27.723 25.7969 28.0325 26.1064 28.0325 26.4796C28.0325 26.8528 27.7321 27.1623 27.3498 27.1623Z" fill="#B9C1CB"/>
<path d="M23.8453 29.4377H15.7984C15.4252 29.4377 15.1157 29.1282 15.1157 28.755C15.1157 28.3818 15.4252 28.0723 15.7984 28.0723H23.8453C24.2185 28.0723 24.528 28.3818 24.528 28.755C24.528 29.1282 24.2185 29.4377 23.8453 29.4377Z" fill="#B9C1CB"/>
<path d="M27.3498 32.424H15.7984C15.4252 32.424 15.1157 32.1145 15.1157 31.7413C15.1157 31.3681 15.4252 31.0586 15.7984 31.0586H27.3498C27.723 31.0586 28.0325 31.3681 28.0325 31.7413C28.0325 32.1145 27.7321 32.424 27.3498 32.424Z" fill="#B9C1CB"/>
<path d="M19.7035 34.6994H15.7984C15.4252 34.6994 15.1157 34.3899 15.1157 34.0167C15.1157 33.6435 15.4252 33.334 15.7984 33.334H19.7035C20.0767 33.334 20.3862 33.6435 20.3862 34.0167C20.3862 34.3899 20.0858 34.6994 19.7035 34.6994Z" fill="#B9C1CB"/>
<path d="M24.1274 37.6847H15.7984C15.4252 37.6847 15.1157 37.3753 15.1157 37.002C15.1157 36.6288 15.4252 36.3193 15.7984 36.3193H24.1274C24.5007 36.3193 24.8101 36.6288 24.8101 37.002C24.8101 37.3753 24.5007 37.6847 24.1274 37.6847Z" fill="#B9C1CB"/>
<path d="M21.8791 39.9611H15.7984C15.4252 39.9611 15.1157 39.6516 15.1157 39.2784C15.1157 38.9052 15.4252 38.5957 15.7984 38.5957H21.8791C22.2523 38.5957 22.5618 38.9052 22.5618 39.2784C22.5618 39.6516 22.2523 39.9611 21.8791 39.9611Z" fill="#B9C1CB"/>
<path d="M32.1014 7.19141H28.4603V36.9027C28.4603 39.7246 26.1756 42.0094 23.3537 42.0094H5.77633V43.8299H32.1014V35.3371L31.6554 35.7831L28.4967 32.6244L32.1014 29.0198V7.19141Z" fill="#E7ECF1"/>
<path d="M26.2028 2.59428H21.9701C21.7334 2.59428 21.5331 2.43043 21.4967 2.20286C21.3147 0.955787 20.2406 0 18.9389 0C17.6372 0 16.5722 0.955787 16.381 2.19376C16.3446 2.42133 16.1443 2.58518 15.9077 2.58518H11.6749C11.1743 2.58518 10.7737 2.9857 10.7737 3.48635V8.97529C10.7737 9.16645 10.9285 9.3212 11.1196 9.3212H26.7581C26.9493 9.3212 27.104 9.16645 27.104 8.97529V3.48635C27.104 2.9948 26.7035 2.59428 26.2028 2.59428Z" fill="#DAE4EA"/>
<path d="M26.2029 2.59473H23.4629V3.98744C23.4629 5.92633 21.8882 7.5011 19.9493 7.5011H10.7828V8.97574C10.7828 9.1669 10.9376 9.32165 11.1287 9.32165H26.7581C26.9493 9.32165 27.104 9.1669 27.104 8.97574V3.48679C27.104 2.99525 26.7035 2.59473 26.2029 2.59473Z" fill="#C6D0DA"/>
<path d="M10.7828 6.52637V8.975C10.7828 9.16616 10.9376 9.32091 11.1287 9.32091H26.7581C26.9493 9.32091 27.104 9.16616 27.104 8.975V6.52637H10.7828Z" fill="#808B95"/>
<path d="M11.1196 9.32091H26.7581C26.9493 9.32091 27.104 9.15706 27.104 8.975V6.52637H22.3706C21.7425 7.12715 20.8869 7.50036 19.9493 7.50036H10.7828V8.975C10.7828 9.16616 10.9376 9.32091 11.1196 9.32091Z" fill="#5E6B75"/>
<path d="M13.8778 22.8393C14.7575 22.8393 15.4707 22.1261 15.4707 21.2463C15.4707 20.3665 14.7575 19.6533 13.8778 19.6533C12.998 19.6533 12.2848 20.3665 12.2848 21.2463C12.2848 22.1261 12.998 22.8393 13.8778 22.8393Z" fill="#808B95"/>
<path d="M24.3827 21.5053C24.5236 20.6369 23.9338 19.8187 23.0654 19.6777C22.197 19.5368 21.3787 20.1265 21.2378 20.995C21.0968 21.8634 21.6866 22.6816 22.555 22.8226C23.4235 22.9635 24.2417 22.3738 24.3827 21.5053Z" fill="#808B95"/>
<path d="M25.6385 11.8337L24.2276 14.2823C24.0364 14.61 24.2731 15.0196 24.6554 15.0196H27.4772C27.8504 15.0196 28.0871 14.61 27.9051 14.2823L26.485 11.8337C26.303 11.5151 25.8296 11.5151 25.6385 11.8337Z" fill="#F6E266"/>
<path d="M26.1483 17.4957L21.9428 17.1953H12.7672L10.5553 17.4775C10.1912 17.523 9.90897 17.8325 9.90897 18.2057V20.5087C9.90897 20.8364 10.173 21.1095 10.5098 21.1095H12.2939C12.3667 20.2993 13.0494 19.6622 13.8778 19.6622C14.7061 19.6622 15.3888 20.2993 15.4616 21.1095H21.2328C21.3056 20.2993 21.9883 19.6622 22.8167 19.6622C23.645 19.6622 24.3277 20.2993 24.4005 21.1095H26.4304C26.7581 21.1095 27.0312 20.8455 27.0312 20.5087V18.4242C27.013 17.9326 26.6398 17.5321 26.1483 17.4957Z" fill="#E28086"/>
<path d="M21.1053 15.2293C20.8778 14.6831 20.3407 14.3281 19.749 14.3281H16.736V17.1955H21.9428L21.1053 15.2293Z" fill="#BEC3EA"/>
<path d="M14.9428 14.3281C14.3511 14.3281 13.814 14.6831 13.5865 15.2384L12.7672 17.1955H16.736V14.3281H14.9428Z" fill="#D5D8F1"/>
<path d="M13.0494 29.4652H11.0013C10.7464 29.4652 10.5371 29.2558 10.5371 29.001V26.9437C10.5371 26.6889 10.7464 26.4795 11.0013 26.4795H13.0494C13.3043 26.4795 13.5137 26.6889 13.5137 26.9437V28.9918C13.5228 29.2558 13.3134 29.4652 13.0494 29.4652Z" fill="#808B95"/>
<path d="M13.0494 34.7266H11.0013C10.7464 34.7266 10.5371 34.5172 10.5371 34.2624V32.2142C10.5371 31.9594 10.7464 31.75 11.0013 31.75H13.0494C13.3043 31.75 13.5137 31.9594 13.5137 32.2142V34.2624C13.5228 34.5172 13.3134 34.7266 13.0494 34.7266Z" fill="#808B95"/>
<path d="M13.0494 39.9883H11.0013C10.7464 39.9883 10.5371 39.7789 10.5371 39.5241V37.476C10.5371 37.2211 10.7464 37.0117 11.0013 37.0117H13.0494C13.3043 37.0117 13.5137 37.2211 13.5137 37.476V39.5241C13.5228 39.7789 13.3134 39.9883 13.0494 39.9883Z" fill="#808B95"/>
<path d="M22.6528 38.4592L28.4967 32.6152L31.6554 35.7739L25.8114 41.6178L22.6528 38.4592Z" fill="#808B95"/>
<path d="M28.4967 32.6244L37.2081 23.9131L40.3667 27.0717L31.6554 35.7739L28.4967 32.6244Z" fill="#707DD3"/>
<path d="M42.7789 24.3679L39.9207 21.5097C39.8388 21.4278 39.7113 21.4278 39.6294 21.5097L37.2263 23.9128L40.3849 27.0714L42.788 24.6683C42.8609 24.5773 42.8609 24.4499 42.7789 24.3679Z" fill="#DAE4EA"/>
<path d="M22.6619 38.4678L22.1521 38.9775C21.6333 39.4964 21.2601 40.1427 21.0689 40.8527L20.4681 43.0829C20.3498 43.5289 20.7594 43.9385 21.1964 43.8111L23.4265 43.2103C24.1365 43.0191 24.7828 42.6459 25.3017 42.1271L25.8114 41.6173L22.6619 38.4678Z" fill="#707DD3"/>
<path d="M24.355 40.1613L30.199 34.3174L31.6554 35.7738L25.8115 41.6178L24.355 40.1613Z" fill="#5E6B75"/>
<path d="M30.199 34.3178L38.9103 25.6064L40.3667 27.0629L31.6554 35.7742L30.199 34.3178Z" fill="#5766CB"/>
<path d="M23.0897 41.4355L22.58 41.9453C22.0611 42.4641 21.4148 42.8373 20.7048 43.0285L20.4681 43.0922C20.3589 43.5291 20.7594 43.9297 21.2055 43.8113L23.4356 43.2105C24.1456 43.0194 24.7919 42.6462 25.3108 42.1273L25.8205 41.6176L24.3641 40.1611L23.0897 41.4355Z" fill="#5766CB"/>
<path d="M37.2263 34.1177C37.0533 34.1177 36.8804 34.054 36.7438 33.9174C36.4799 33.6534 36.4799 33.2165 36.7438 32.9525L42.1508 27.5455L41.0221 26.4168C40.7581 26.1528 40.7581 25.7159 41.0221 25.4519C41.2861 25.1879 41.723 25.1879 41.987 25.4519L43.5982 27.0631C43.8622 27.327 43.8622 27.764 43.5982 28.028L37.6996 33.9265C37.5722 34.0449 37.3992 34.1177 37.2263 34.1177Z" fill="#DAE4EA"/>
<path d="M42.7789 24.3679L39.9207 21.5097C39.8388 21.4278 39.7113 21.4278 39.6294 21.5097L38.5007 22.6384L39.3563 23.4941C39.8205 23.9583 39.8205 24.7138 39.3563 25.1781L38.9194 25.615L40.3758 27.0714L42.7789 24.6683C42.8608 24.5773 42.8608 24.4499 42.7789 24.3679Z" fill="#C6D0DA"/>
<path d="M44.5722 19.7074C43.9987 19.134 43.0702 19.134 42.4967 19.7074L40.3121 21.8921L42.3875 23.9675L44.5722 21.7829C45.1456 21.2185 45.1456 20.2809 44.5722 19.7074Z" fill="#707DD3"/>
<path d="M18.9389 3.1408C19.3159 3.1408 19.6216 2.83514 19.6216 2.4581C19.6216 2.08105 19.3159 1.77539 18.9389 1.77539C18.5618 1.77539 18.2562 2.08105 18.2562 2.4581C18.2562 2.83514 18.5618 3.1408 18.9389 3.1408Z" fill="#C6D0DA"/>
<path d="M25.8205 39.151C25.6476 39.151 25.4746 39.0873 25.3381 38.9507C25.0741 38.6868 25.0741 38.2498 25.3381 37.9858L28.0234 35.3005C28.2874 35.0365 28.7243 35.0365 28.9883 35.3005C29.2523 35.5645 29.2523 36.0014 28.9883 36.2654L26.303 38.9507C26.1664 39.0782 25.9935 39.151 25.8205 39.151Z" fill="#DAE4EA"/>
<path d="M25.8205 39.1514C25.9935 39.1514 26.1664 39.0877 26.303 38.9512L28.9883 36.2658C29.2159 36.0383 29.2523 35.7015 29.0975 35.4375L25.4746 39.0513C25.5748 39.115 25.7022 39.1514 25.8205 39.1514Z" fill="#C6D0DA"/>
</g>
<defs>
<clipPath id="clip0">
<rect width="42" height="46.606" fill="white" transform="translate(3)"/>
</clipPath>
</defs>
</svg>
