<svg width="48" height="48" viewBox="0 0 48 48" fill="none" xmlns="http://www.w3.org/2000/svg">
<rect width="48" height="48" rx="24" fill="#FFC93F"/>
<g clip-path="url(#clip0)">
<path fill-rule="evenodd" clip-rule="evenodd" d="M12.3187 16.7498H13.3195C14.6484 16.7498 15.7395 17.8408 15.7395 19.1779V25.199H6.36328V19.1779C6.36328 17.8408 7.4543 16.7498 8.7832 16.7498H12.3187Z" fill="#A5CDFF"/>
<path fill-rule="evenodd" clip-rule="evenodd" d="M12.3188 16.7498H13.3195C14.6484 16.7498 15.7395 17.8408 15.7395 19.1779V25.199H13.6887V19.1779C13.6887 17.8408 12.5977 16.7498 11.2688 16.7498H12.3188Z" fill="#8ABFFF"/>
<path fill-rule="evenodd" clip-rule="evenodd" d="M38.216 16.7498H39.2086C40.5457 16.7498 41.6367 17.8408 41.6367 19.1779V25.199H32.2605V19.1779C32.2605 17.8408 33.3516 16.7498 34.6887 16.7498H38.216Z" fill="#CCF49F"/>
<path fill-rule="evenodd" clip-rule="evenodd" d="M38.216 16.7498H39.2086C40.5457 16.7498 41.6367 17.8408 41.6367 19.1779V25.199H39.5859V19.1779C39.5859 17.8408 38.4949 16.7498 37.1578 16.7498H38.216Z" fill="#B3E59F"/>
<path fill-rule="evenodd" clip-rule="evenodd" d="M25.2387 13.1484H26.2641C27.6012 13.1484 28.6922 14.2395 28.6922 15.5766V21.5977H19.316V15.5766C19.316 14.2395 20.407 13.1484 21.7441 13.1484H25.2387Z" fill="#EBD2FF"/>
<path fill-rule="evenodd" clip-rule="evenodd" d="M25.2633 13.1484H26.2559C27.593 13.1484 28.684 14.2395 28.684 15.5766V21.5977H26.6332V15.5766C26.6332 14.2395 25.5422 13.1484 24.2051 13.1484H25.2633Z" fill="#D7BEF0"/>
<path fill-rule="evenodd" clip-rule="evenodd" d="M11.0555 26.3555C9.3082 26.3555 7.88906 27.7747 7.88906 29.5219C7.88906 31.2692 9.3082 32.6883 11.0555 32.6883C12.8027 32.6883 14.2219 31.2692 14.2219 29.5219C14.2137 27.7664 12.8027 26.3555 11.0555 26.3555ZM3 28.4965C3.0082 28.2914 3.10664 28.193 3.31172 28.1848H4.22227C4.40273 28.1848 4.5668 28.0207 4.59961 27.8813C4.76367 27.2907 5.00156 26.6262 5.33789 26.1094C5.44453 25.9372 5.39531 25.7403 5.28047 25.6254L4.64063 24.9774C4.52578 24.8133 4.52578 24.6657 4.64063 24.5344L6.07617 23.0989C6.22383 22.9676 6.37148 22.9676 6.51914 23.0989L7.15898 23.7387C7.28203 23.87 7.48711 23.8864 7.64297 23.7961C8.28281 23.4352 8.72578 23.2711 9.41484 23.0579C9.57891 23.0086 9.72656 22.8692 9.71836 22.6805V21.77C9.71836 21.5567 9.825 21.4583 10.0301 21.4583H12.0727C12.2777 21.4583 12.3762 21.5567 12.3844 21.77V22.6805C12.3762 22.8774 12.532 23.0086 12.6879 23.0579C13.377 23.2711 13.8281 23.427 14.4598 23.7961C14.6156 23.8864 14.8207 23.87 14.9438 23.7387L15.5836 23.0989C15.7313 22.9676 15.8789 22.9676 16.0266 23.0989L17.4621 24.5344C17.577 24.6657 17.577 24.8133 17.4621 24.9774L16.8223 25.6254C16.7074 25.7403 16.6582 25.9372 16.7648 26.1094C17.1012 26.6262 17.3309 27.2907 17.5031 27.8813C17.5441 28.0207 17.7082 28.1848 17.8805 28.1848H18.791C18.9961 28.193 19.0945 28.2914 19.1027 28.4965V30.5309C19.0945 30.736 18.9961 30.8344 18.791 30.8426H17.8805C17.7 30.8426 17.5359 31.0067 17.5031 31.1461C17.3391 31.7368 17.1012 32.4012 16.7648 32.918C16.6582 33.0903 16.7074 33.2871 16.8223 33.402L17.4621 34.0418C17.577 34.2059 17.577 34.3536 17.4621 34.4848L16.0266 35.9203C15.8789 36.0516 15.7313 36.0516 15.5836 35.9203L14.9438 35.2723C14.8207 35.1493 14.6156 35.1246 14.4598 35.2149C13.8199 35.584 13.377 35.7399 12.6879 35.9532C12.5238 36.0024 12.3762 36.1418 12.3844 36.3305V37.2411C12.3844 37.4543 12.2777 37.5528 12.0727 37.5528H10.0301C9.825 37.5528 9.72656 37.4543 9.71836 37.2411V36.3305C9.72656 36.1336 9.5707 36.0024 9.41484 35.9532C8.72578 35.7399 8.27461 35.584 7.64297 35.2149C7.48711 35.1246 7.28203 35.1411 7.15898 35.2723L6.51914 35.9203C6.37148 36.0516 6.22383 36.0516 6.07617 35.9203L4.64063 34.493C4.52578 34.3618 4.52578 34.2141 4.64063 34.05L5.28047 33.4102C5.39531 33.2954 5.44453 33.0985 5.33789 32.9262C5.00156 32.4012 4.77188 31.745 4.59961 31.1543C4.55859 31.0149 4.39453 30.8508 4.22227 30.8508H3.31172C3.10664 30.8426 3.0082 30.7442 3 30.5391V28.4965Z" fill="#365E7D"/>
<path fill-rule="evenodd" clip-rule="evenodd" d="M13.902 24.7149C13.4754 25.3711 13.1637 26.1997 12.934 26.9708C13.7133 27.545 14.2137 28.4719 14.2137 29.5137C14.2137 30.5555 13.7051 31.4825 12.934 32.0567C13.1637 32.8278 13.4754 33.6481 13.902 34.3126C14.0578 34.5586 13.984 34.8376 13.8281 34.9934L12.9258 35.8958C13.4918 35.7153 13.902 35.5512 14.468 35.2313C14.6238 35.1411 14.8289 35.1575 14.952 35.2887L15.5918 35.9368C15.7395 36.068 15.8871 36.068 16.0348 35.9368L17.4703 34.5012C17.5852 34.37 17.5852 34.2223 17.4703 34.0583L16.8305 33.4184C16.7156 33.3036 16.6664 33.1067 16.773 32.9344C17.1094 32.4094 17.3391 31.7532 17.5113 31.1626C17.5359 31.0723 17.618 30.9657 17.7246 30.9083C17.5852 30.4735 17.5031 30.0059 17.5031 29.5301C17.5031 29.0461 17.577 28.5868 17.7246 28.152C17.6262 28.0946 17.5441 27.9879 17.5113 27.8977C17.3473 27.3071 17.1094 26.6426 16.773 26.1258C16.6664 25.9536 16.7156 25.7567 16.8305 25.6418L17.4703 24.9938C17.5852 24.8297 17.5852 24.6821 17.4703 24.5508L16.0348 23.1153C15.8871 22.984 15.7395 22.984 15.5918 23.1153L14.952 23.7551C14.8289 23.8864 14.6238 23.9028 14.468 23.8125C13.902 23.4926 13.4918 23.3286 12.9258 23.1481L13.8281 24.0504C13.984 24.1899 14.0578 24.477 13.902 24.7149Z" fill="#294B64"/>
<path fill-rule="evenodd" clip-rule="evenodd" d="M36.9445 26.3555C35.1973 26.3555 33.7781 27.7747 33.7781 29.5219C33.7781 31.2692 35.1973 32.6883 36.9445 32.6883C38.6918 32.6883 40.1109 31.2692 40.1109 29.5219C40.1109 27.7664 38.6918 26.3555 36.9445 26.3555ZM28.8973 28.4965C28.8973 28.2914 29.0039 28.193 29.209 28.1848H30.1195C30.3 28.1848 30.4641 28.0207 30.4969 27.8813C30.6609 27.2907 30.8988 26.6262 31.2352 26.1094C31.35 25.9372 31.2926 25.7403 31.1777 25.6254L30.5297 24.9774C30.4148 24.8133 30.4148 24.6657 30.5297 24.5344L31.9734 23.0989C32.1211 22.9676 32.2687 22.9676 32.4164 23.0989L33.0644 23.7387C33.1875 23.87 33.3926 23.8864 33.5484 23.7961C34.1801 23.4352 34.6312 23.2711 35.3203 23.0579C35.4844 23.0086 35.632 22.8692 35.6238 22.6805V21.77C35.632 21.5567 35.7305 21.4583 35.9355 21.4583H37.9699C38.175 21.4583 38.2734 21.5567 38.2816 21.77V22.6805C38.2734 22.8774 38.4293 23.0086 38.5852 23.0579C39.2742 23.2711 39.7254 23.427 40.357 23.7961C40.5129 23.8864 40.718 23.87 40.841 23.7387L41.4891 23.0989C41.6367 22.9676 41.7844 22.9676 41.932 23.0989L43.3758 24.5344C43.4906 24.6657 43.4906 24.8133 43.3758 24.9774L42.7277 25.6254C42.6129 25.7403 42.5637 25.9372 42.6703 26.1094C43.0066 26.6262 43.2363 27.2907 43.4086 27.8813C43.4496 28.0207 43.6137 28.1848 43.7859 28.1848H44.6965C44.9016 28.193 45 28.2914 45.0082 28.4965V30.5309C45 30.736 44.9016 30.8344 44.6965 30.8426H43.7859C43.6055 30.8426 43.4414 31.0067 43.4086 31.1461C43.2445 31.7368 43.0066 32.4012 42.6703 32.918C42.5555 33.0903 42.6129 33.2871 42.7277 33.402L43.3758 34.0418C43.4906 34.2059 43.4906 34.3536 43.3758 34.4848L41.932 35.9203C41.7844 36.0516 41.6367 36.0516 41.4891 35.9203L40.841 35.2723C40.718 35.1493 40.5129 35.1246 40.357 35.2149C39.7172 35.584 39.2742 35.7399 38.5852 35.9532C38.4293 36.0024 38.2734 36.1418 38.2816 36.3305V37.2411C38.2734 37.4543 38.175 37.5528 37.9699 37.5528H35.9355C35.7305 37.5528 35.632 37.4543 35.6238 37.2411V36.3305C35.632 36.1336 35.4762 36.0024 35.3203 35.9532C34.6312 35.7399 34.1801 35.584 33.5484 35.2149C33.3926 35.1246 33.1875 35.1411 33.0644 35.2723L32.4164 35.9203C32.2687 36.0516 32.1211 36.0516 31.9734 35.9203L30.5297 34.4848C30.4148 34.3536 30.4148 34.2059 30.5297 34.0418L31.1777 33.402C31.2926 33.2871 31.3418 33.0903 31.2352 32.918C30.8988 32.393 30.6691 31.7368 30.4969 31.1461C30.4559 31.0067 30.2918 30.8426 30.1195 30.8426H29.209C29.0039 30.8344 28.9055 30.736 28.8973 30.5309V28.4965Z" fill="#365E7D"/>
<path fill-rule="evenodd" clip-rule="evenodd" d="M24 25.0594C21.5391 25.0594 19.5457 27.0528 19.5457 29.5137C19.5457 31.9747 21.5391 33.968 24 33.968C26.4609 33.968 28.4543 31.9747 28.4543 29.5137C28.4543 27.0528 26.4609 25.0594 24 25.0594ZM12.6633 28.0864C12.6715 27.7993 12.8109 27.6516 13.098 27.6434H14.3777C14.6238 27.6434 14.8617 27.4055 14.9109 27.2169C15.1488 26.3884 15.477 25.4532 15.9445 24.7231C16.1004 24.477 16.0266 24.1981 15.8707 24.0423L14.9684 23.1399C14.8125 22.9102 14.8043 22.697 14.9684 22.5165L16.9945 20.4903C17.1996 20.3098 17.4047 20.3016 17.618 20.4903L18.5203 21.4009C18.6926 21.5813 18.9797 21.6059 19.2012 21.4747C20.0953 20.9579 20.727 20.7446 21.6949 20.4411C21.9164 20.3673 22.1297 20.1786 22.1215 19.9079V18.6282C22.1297 18.3329 22.2773 18.1852 22.5563 18.1934H25.4274C25.7145 18.1934 25.8621 18.3329 25.8621 18.6282V19.9079C25.8539 20.1786 26.0672 20.3755 26.2887 20.4411C27.2649 20.7446 27.8883 20.9661 28.7824 21.4747C29.0039 21.6059 29.291 21.5731 29.4633 21.4009L30.3738 20.4903C30.5789 20.3016 30.784 20.3098 30.9891 20.4903L33.0152 22.5165C33.1793 22.697 33.1711 22.902 33.0152 23.1399L32.1129 24.0423C31.9488 24.1981 31.8832 24.477 32.0391 24.7231C32.5067 25.4532 32.843 26.3884 33.0727 27.2169C33.1301 27.4137 33.3598 27.6434 33.6059 27.6434H34.8856C35.1727 27.6516 35.3203 27.7911 35.3285 28.0864V30.9575C35.3203 31.2446 35.1727 31.3923 34.8856 31.4005H33.6059C33.3598 31.4005 33.1219 31.6384 33.0727 31.827C32.843 32.6637 32.5067 33.5907 32.0391 34.3208C31.8832 34.5669 31.957 34.8458 32.1129 35.0016L33.0152 35.9122C33.1711 36.1419 33.1793 36.3469 33.0152 36.5274L30.9891 38.5536C30.784 38.734 30.5789 38.734 30.3738 38.5536L29.4633 37.643C29.291 37.4626 29.0039 37.438 28.7824 37.5692C27.8883 38.086 27.2566 38.3075 26.2887 38.6028C26.0672 38.6766 25.8539 38.8653 25.8621 39.136V40.4157C25.8539 40.711 25.7145 40.8587 25.4274 40.8587H22.5563C22.2691 40.8587 22.1215 40.711 22.1215 40.4157V39.136C22.1297 38.8653 21.9164 38.6684 21.6949 38.6028C20.7188 38.2993 20.0953 38.0778 19.2012 37.5692C18.9797 37.4462 18.6926 37.4708 18.5203 37.643L17.618 38.5536C17.4129 38.734 17.2078 38.734 16.9945 38.5536L14.9684 36.5274C14.8043 36.3469 14.8125 36.1419 14.9684 35.9122L15.8707 35.0016C16.0348 34.8458 16.1004 34.5669 15.9445 34.3208C15.477 33.5907 15.1406 32.6555 14.9109 31.827C14.8535 31.6384 14.6238 31.4005 14.3777 31.4005H13.098C12.8109 31.3923 12.6633 31.2446 12.6633 30.9575V28.0864Z" fill="#477B9E"/>
<path fill-rule="evenodd" clip-rule="evenodd" d="M39.5203 14.5512C39.5203 15.9621 38.3637 17.1187 36.9445 17.1187C35.5336 17.1187 34.3687 15.9621 34.3687 14.5512V11.7949C34.3687 11.0074 35.0168 10.3594 35.8043 10.3594H38.0684C38.8559 10.3594 39.5039 11.0074 39.5039 11.7949L39.5203 14.5512Z" fill="#D8A595"/>
<path fill-rule="evenodd" clip-rule="evenodd" d="M13.623 14.5512C13.623 15.9621 12.4664 17.1187 11.0555 17.1187C9.63633 17.1187 8.47969 15.9621 8.47969 14.5512C8.47969 13.6324 8.47969 12.7137 8.47969 11.7949C8.47969 11.0074 9.12774 10.3594 9.91524 10.3594H13.2375C13.5 10.3594 13.623 10.507 13.623 10.7449V14.5512Z" fill="#FFCBBE"/>
<path fill-rule="evenodd" clip-rule="evenodd" d="M34.377 11.7949V13.4848L36.1324 12.6234C36.3703 12.5086 36.6 12.4922 36.8379 12.5742L39.5203 13.4848V11.7949C39.5203 11.0074 38.8723 10.3594 38.0848 10.3594H35.8125C35.025 10.3594 34.377 11.0074 34.377 11.7949Z" fill="#477B9E"/>
<path fill-rule="evenodd" clip-rule="evenodd" d="M8.47969 11.7951V12.6236H13.623V10.7369C13.623 10.5072 13.5082 10.3513 13.2375 10.3513H9.92344C9.12774 10.3595 8.47969 11.0076 8.47969 11.7951Z" fill="#D09080"/>
<path fill-rule="evenodd" clip-rule="evenodd" d="M26.5758 10.9418C26.5758 12.3527 25.4191 13.5094 24 13.5094C22.5809 13.5094 21.4324 12.3527 21.4324 10.9418V8.18555C21.4324 7.39805 22.0805 6.75 22.868 6.75H25.132C25.9195 6.75 26.5676 7.39805 26.5676 8.18555V10.9418H26.5758Z" fill="#FFCBBE"/>
<path fill-rule="evenodd" clip-rule="evenodd" d="M21.4324 8.18555V9.18633C22.1543 9.45703 22.7613 9.22734 23.1059 9.03047C23.3766 8.87461 23.4258 8.85 23.6883 9.07969C24.9269 10.1625 26.5676 9.55547 26.5676 9.55547V8.18555C26.5676 7.39805 25.9195 6.75 25.132 6.75H22.868C22.0805 6.75 21.4324 7.39805 21.4324 8.18555Z" fill="#FFF9EA"/>
<path fill-rule="evenodd" clip-rule="evenodd" d="M30.866 26.8148C31.1285 27.668 31.2598 28.5785 31.2598 29.5137C31.2598 30.4488 31.1203 31.3594 30.866 32.2125C29.7176 36.0105 26.1984 38.7832 22.0312 38.8242C22.0969 38.9062 22.1379 39.0129 22.1297 39.1359V40.4156C22.1379 40.7109 22.2855 40.8586 22.5645 40.8586H25.4355C25.7227 40.8586 25.8703 40.7109 25.8703 40.4156V39.1359C25.8621 38.8652 26.0754 38.6683 26.2969 38.6027C27.273 38.2992 27.8965 38.0777 28.7906 37.5691C29.0121 37.4461 29.2992 37.4707 29.4715 37.643L30.382 38.5535C30.5871 38.734 30.7922 38.734 30.9973 38.5535L33.0234 36.5273C33.1875 36.3469 33.1793 36.1418 33.0234 35.9121L32.7281 35.6168L32.1129 35.0015C31.9488 34.8457 31.8832 34.5668 32.0391 34.3207C32.5066 33.5906 32.843 32.6555 33.0727 31.8269C33.1301 31.6383 33.3598 31.4004 33.6059 31.4004H34.377H34.8855C35.1727 31.3922 35.3203 31.2445 35.3285 30.9574V28.0863C35.3203 27.7992 35.1727 27.6515 34.8855 27.6433H34.377H33.6059C33.3598 27.6433 33.1219 27.4055 33.0727 27.2168C32.843 26.3883 32.5066 25.4531 32.0391 24.723C31.8832 24.4769 31.957 24.198 32.1129 24.0422L32.7281 23.4269L33.0234 23.1316C33.1793 22.9019 33.1875 22.6887 33.0234 22.5082L30.9973 20.482C30.7922 20.3015 30.5871 20.2933 30.382 20.482L29.4715 21.3926C29.2992 21.573 29.0121 21.5976 28.7906 21.4664C27.8965 20.9496 27.2648 20.7363 26.2969 20.4328C26.0754 20.359 25.8621 20.1703 25.8703 19.8996V18.6199C25.8621 18.3246 25.7227 18.1769 25.4355 18.1851H22.5645C22.2773 18.1851 22.1297 18.3246 22.1297 18.6199V19.8996C22.1379 20.0144 22.0969 20.1211 22.0312 20.2113C26.1984 20.2359 29.7094 23.0168 30.866 26.8148Z" fill="#365E7D"/>
<path fill-rule="evenodd" clip-rule="evenodd" d="M35.5172 22.943C38.8723 23.2547 41.5055 26.0766 41.5055 29.5137C41.5055 32.9508 38.8805 35.7809 35.5172 36.0926C35.5828 36.1582 35.6238 36.2484 35.6156 36.3469V37.2574C35.6238 37.4707 35.7223 37.5691 35.9273 37.5691H37.9617C38.1668 37.5691 38.2652 37.4707 38.2734 37.2574V36.3469C38.2652 36.15 38.4211 36.0187 38.5769 35.9695C39.266 35.7562 39.7172 35.6004 40.3488 35.2312C40.5047 35.141 40.7098 35.1574 40.8328 35.2887L41.4809 35.9367C41.6285 36.068 41.7762 36.068 41.9238 35.9367L43.3676 34.5012C43.4824 34.3699 43.4824 34.2223 43.3676 34.0582L42.7195 33.4184C42.6047 33.3035 42.5555 33.1066 42.6621 32.9344C42.9984 32.4094 43.2281 31.7531 43.4004 31.1625C43.4414 31.023 43.6055 30.859 43.7777 30.859H44.6883C44.8934 30.8508 44.9918 30.7523 45 30.5473V28.5129C44.9918 28.3078 44.8934 28.2094 44.6883 28.2012H43.7777C43.5973 28.2012 43.4332 28.0371 43.4004 27.8977C43.2363 27.307 42.9984 26.6426 42.6621 26.1258C42.5473 25.9535 42.6047 25.7566 42.7195 25.6418L43.3676 24.9937C43.4824 24.8297 43.4824 24.682 43.3676 24.5508L41.9238 23.1152C41.7762 22.984 41.6285 22.984 41.4809 23.1152L40.8328 23.7551C40.7098 23.8863 40.5047 23.9027 40.3488 23.8125C39.709 23.4516 39.266 23.2875 38.5769 23.0742C38.4211 23.025 38.2652 22.8855 38.2734 22.6969V21.7863C38.2652 21.573 38.1668 21.4746 37.9617 21.4746H35.9273C35.7223 21.4746 35.6238 21.573 35.6156 21.7863V22.6969C35.6238 22.7871 35.5828 22.8773 35.5172 22.943Z" fill="#294B64"/>
</g>
<defs>
<clipPath id="clip0">
<rect width="42" height="34.1086" fill="white" transform="translate(3 6.75)"/>
</clipPath>
</defs>
</svg>
