<svg width="48" height="48" viewBox="0 0 48 48" fill="none" xmlns="http://www.w3.org/2000/svg">
<circle cx="24" cy="24" r="24" fill="#FFC93F"/>
<g clip-path="url(#clip0)">
<path d="M37.0436 31.3448C37.0436 28.9461 35.0974 27 32.6987 27H15.3194C12.9207 27 10.9746 28.9461 10.9746 31.3448V36.4138L13.8711 37.8621H37.0436V31.3448Z" fill="#4398D1"/>
<path d="M32.6987 27H29.8022C32.2009 27 34.147 28.9461 34.147 31.3448V37.8621H37.0435V31.3448C37.0435 28.9461 35.0974 27 32.6987 27Z" fill="#3E8CC7"/>
<path d="M21.1125 21.931V27L24.0091 31.3448L26.9056 27V21.931H21.1125Z" fill="#FFDCC4"/>
<path d="M21.1125 27L24.0091 31.3448L26.9056 27H21.1125Z" fill="#EBEBEB"/>
<path d="M14.5953 32.7931H16.0435V37.8621H14.5953V32.7931Z" fill="#2A7DB8"/>
<path d="M31.9746 32.7931H33.4228V37.8621H31.9746V32.7931Z" fill="#2A7DB8"/>
<path d="M28.3539 27H26.9056L24.0091 31.3448L21.1125 27H19.6642V29.8966L23.2849 31.1004V37.8621H24.7332V31.1004L28.3539 29.8966V27Z" fill="#2A7DB8"/>
<path d="M26.1815 34.2415H30.5263V35.6897H26.1815V34.2415Z" fill="#2A7DB8"/>
<path d="M21.1125 21.931V24.8638C22.9319 25.778 25.0862 25.778 26.9056 24.8638V21.931H21.1125Z" fill="#F5C4A1"/>
<path d="M17.4918 13.2415V17.5863C17.4918 21.1889 20.4065 24.1035 24.0091 24.1035C27.6116 24.1035 30.5263 21.1889 30.5263 17.5863V13.2415H17.4918Z" fill="#FFDCC4"/>
<path d="M27.6297 13.2415V17.5863C27.6297 20.6277 25.5207 23.2617 22.5608 23.9406C26.0547 24.7462 29.5487 22.5738 30.3634 19.0708C30.472 18.582 30.5353 18.0841 30.5263 17.5863V13.2415H27.6297Z" fill="#FFCDAA"/>
<path d="M30.5263 12.5172V9.62069C30.5263 7.62026 28.906 6 26.9056 6H21.1125C19.1121 6 17.4918 7.62026 17.4918 9.62069V13.9655H34.8711V12.5172H30.5263Z" fill="#4398D1"/>
<path d="M23.2849 15.4138H24.7332V19.0345H23.2849V15.4138Z" fill="#F5C4A1"/>
<path d="M17.4918 17.5863H13.8711V13.2415H17.4918V17.5863Z" fill="#87CED9"/>
<path d="M17.0845 23.9859L14.9121 22.5376C14.7129 22.4018 14.5862 22.1755 14.5862 21.9311V17.5863H16.0345V21.5419L17.881 22.7729L17.0845 23.9859Z" fill="#87CED9"/>
<path d="M37.7677 37.8622H44.4026C42.8095 34.1962 38.5461 32.5216 34.8802 34.1238C33.2056 34.857 31.866 36.1876 31.1418 37.8622H16.8763C15.2741 34.1962 11.0108 32.5216 7.34483 34.1238C3.67888 35.726 2.00431 39.9893 3.60646 43.6553C5.20862 47.3212 9.47199 48.9958 13.1379 47.3936C14.8125 46.6604 16.1522 45.3298 16.8763 43.6553H31.1328C32.7259 47.3212 36.9892 48.9958 40.6552 47.3936C42.3298 46.6604 43.6694 45.3298 44.3936 43.6553H37.7586L37.7677 37.8622ZM13.8711 42.9311L10.2504 45.1035L6.56638 43.1755L6.62974 38.5863L10.2504 36.4139L13.8711 38.5863V42.9311Z" fill="#87CED9"/>
<path d="M27.6297 9.62069V12.5172H30.5263V9.62069C30.5263 7.62026 28.906 6 26.9056 6H24.0091C26.0095 6 27.6297 7.62026 27.6297 9.62069Z" fill="#3E8CC7"/>
<path d="M31.9746 12.5172H34.8711V13.9655H31.9746V12.5172Z" fill="#3E8CC7"/>
<path d="M37.7677 37.8622H44.4026C42.8095 34.1962 38.5461 32.5216 34.8802 34.1238C33.2056 34.857 31.866 36.1876 31.1418 37.8622H27.6388L21.8457 43.6553H31.1418C32.7349 47.3212 36.9983 48.9958 40.6643 47.3936C42.3388 46.6604 43.6785 45.3298 44.4026 43.6553H37.7677V37.8622Z" fill="#71C4D1"/>
<path d="M16.7677 40.0345H31.2504V41.4828H16.7677V40.0345Z" fill="#59B3C2"/>
<path d="M14.5953 17.5862H16.0435V19.0345H14.5953V17.5862Z" fill="#71C4D1"/>
</g>
<defs>
<clipPath id="clip0">
<rect width="41.3935" height="42" fill="white" transform="translate(3 6)"/>
</clipPath>
</defs>
</svg>
