<svg width="48" height="48" viewBox="0 0 48 48" fill="none" xmlns="http://www.w3.org/2000/svg">
<g clip-path="url(#clip0)">
<path d="M5.71875 37.8C5.34375 38.2406 4.65 38.2125 4.3125 37.7344C1.59375 33.8438 0 29.1094 0 24C0 10.7438 10.7438 0 24 0C37.2562 0 48 10.7438 48 24C48 29.1 46.4062 33.825 43.6969 37.7156C43.3594 38.2031 42.6562 38.2406 42.2719 37.7812C37.8656 32.6156 31.3219 29.3438 24 29.3438C16.6781 29.3438 10.1156 32.625 5.71875 37.8Z" fill="#FEBF08"/>
<path d="M43.6875 11.625V37.725C42.3469 39.6469 40.7344 41.3531 38.9062 42.8063C34.8094 46.0594 12.3844 45.7406 8.15625 42.0188C6.7125 40.7438 5.41875 39.3 4.3125 37.725V11.625C4.3125 11.1094 4.73438 10.6875 5.25 10.6875H42.75C43.2656 10.6875 43.6875 11.1094 43.6875 11.625Z" fill="#E9F3FE"/>
<path d="M8.0625 10.6875C7.54688 10.6875 7.125 10.9781 7.125 11.325V41.0625C6.09375 40.0406 5.14687 38.925 4.3125 37.725V11.325C4.3125 10.9688 4.73438 10.6875 5.25 10.6875H8.0625Z" fill="#C8E2FD"/>
<path d="M43.6875 6.9375V11.625H4.3125V6.9375C4.3125 5.90625 5.15625 5.0625 6.1875 5.0625H41.8125C42.8438 5.0625 43.6875 5.90625 43.6875 6.9375Z" fill="#76B6FA"/>
<path d="M9 5.0625C7.96875 5.0625 7.125 5.90625 7.125 6.9375V11.625H4.3125V6.9375C4.3125 5.90625 5.15625 5.0625 6.1875 5.0625H9Z" fill="#55A4F9"/>
<path d="M7.5 8.34375C7.5 8.85938 7.07812 9.28125 6.5625 9.28125C6.04688 9.28125 5.625 8.85938 5.625 8.34375C5.625 7.82813 6.04688 7.40625 6.5625 7.40625C7.07812 7.40625 7.5 7.82813 7.5 8.34375ZM13.125 7.40625C12.6094 7.40625 12.1875 7.82813 12.1875 8.34375C12.1875 8.85938 12.6094 9.28125 13.125 9.28125C13.6406 9.28125 14.0625 8.85938 14.0625 8.34375C14.0625 7.82813 13.6406 7.40625 13.125 7.40625ZM9.84375 7.40625C9.32812 7.40625 8.90625 7.82813 8.90625 8.34375C8.90625 8.85938 9.32812 9.28125 9.84375 9.28125C10.3594 9.28125 10.7812 8.85938 10.7812 8.34375C10.7812 7.82813 10.3594 7.40625 9.84375 7.40625Z" fill="#1380E2"/>
<path d="M42.1875 8.34375C42.1875 8.85938 41.7656 9.28125 41.25 9.28125H16.875C16.3594 9.28125 15.9375 8.85938 15.9375 8.34375C15.9375 7.82813 16.3594 7.40625 16.875 7.40625H41.25C41.7656 7.40625 42.1875 7.82813 42.1875 8.34375Z" fill="#FFF5F5"/>
<path d="M11.4375 23.9062H36.5625C38.1187 23.9062 39.375 25.1625 39.375 26.7188C39.375 28.275 38.1187 29.5312 36.5625 29.5312H11.4375C9.88125 29.5312 8.625 28.275 8.625 26.7188C8.625 25.1625 9.88125 23.9062 11.4375 23.9062ZM8.625 17.0625C8.625 18.6188 9.88125 19.875 11.4375 19.875H36.5625C38.1187 19.875 39.375 18.6188 39.375 17.0625C39.375 15.5062 38.1187 14.25 36.5625 14.25H11.4375C9.88125 14.25 8.625 15.5062 8.625 17.0625ZM36.5625 32.8125H11.4375C9.88125 32.8125 8.625 34.0688 8.625 35.625V41.8688C8.625 42.2344 8.79375 42.5719 9.075 42.7969C13.1719 46.0594 18.3562 48 24 48C29.85 48 35.2125 45.9094 39.375 42.4313V35.625C39.375 34.0688 38.1187 32.8125 36.5625 32.8125Z" fill="#C8E2FD"/>
<path d="M11.4375 23.4375H36.5625C38.3719 23.4375 39.8438 24.9094 39.8438 26.7188C39.8438 28.5281 38.3719 30 36.5625 30H11.4375C9.62813 30 8.15625 28.5281 8.15625 26.7188C8.15625 24.9094 9.62813 23.4375 11.4375 23.4375ZM36.5625 29.0625C37.8563 29.0625 38.9062 28.0125 38.9062 26.7188C38.9062 25.425 37.8563 24.375 36.5625 24.375H11.4375C10.1437 24.375 9.09375 25.425 9.09375 26.7188C9.09375 28.0125 10.1437 29.0625 11.4375 29.0625H36.5625ZM36.5625 20.3438H11.4375C9.62813 20.3438 8.15625 18.8719 8.15625 17.0625C8.15625 15.2531 9.62813 13.7812 11.4375 13.7812H36.5625C38.3719 13.7812 39.8438 15.2531 39.8438 17.0625C39.8438 18.8719 38.3719 20.3438 36.5625 20.3438ZM11.4375 14.7188C10.1437 14.7188 9.09375 15.7688 9.09375 17.0625C9.09375 18.3563 10.1437 19.4063 11.4375 19.4063H36.5625C37.8563 19.4063 38.9062 18.3563 38.9062 17.0625C38.9062 15.7688 37.8563 14.7188 36.5625 14.7188H11.4375ZM36.5625 32.3438H11.4375C9.62813 32.3438 8.15625 33.8156 8.15625 35.625V42.0281C8.46562 42.3 8.775 42.5625 9.09375 42.8156V35.625C9.09375 34.3313 10.1437 33.2813 11.4375 33.2813H36.5625C37.8563 33.2813 38.9062 34.3313 38.9062 35.625V42.8063C39.225 42.5531 39.5344 42.2906 39.8438 42.0188V35.625C39.8438 33.8156 38.3719 32.3438 36.5625 32.3438Z" fill="white"/>
<path d="M22.7344 36.7594H11.9531C11.5688 36.7594 11.25 36.4406 11.25 36.0563C11.25 35.6719 11.5688 35.3531 11.9531 35.3531H22.7344C23.1187 35.3531 23.4375 35.6719 23.4375 36.0563C23.4375 36.4406 23.1187 36.7594 22.7344 36.7594ZM16.875 38.6344C16.875 38.25 16.5563 37.9313 16.1719 37.9313H11.9531C11.5688 37.9313 11.25 38.25 11.25 38.6344C11.25 39.0188 11.5688 39.3375 11.9531 39.3375H16.1719C16.5563 39.3375 16.875 39.0281 16.875 38.6344ZM23.4375 26.7188C23.4375 26.3344 23.1187 26.0156 22.7344 26.0156H11.9531C11.5688 26.0156 11.25 26.3344 11.25 26.7188C11.25 27.1031 11.5688 27.4219 11.9531 27.4219H22.7344C23.1187 27.4219 23.4375 27.1031 23.4375 26.7188ZM19.6875 17.1094C19.6875 16.725 19.3687 16.4062 18.9844 16.4062H11.9531C11.5688 16.4062 11.25 16.725 11.25 17.1094C11.25 17.4938 11.5688 17.8125 11.9531 17.8125H18.9844C19.3687 17.8125 19.6875 17.4938 19.6875 17.1094Z" fill="#A7D0FC"/>
<path d="M12.7125 42.0188C12.7125 42.422 12.3844 42.7501 11.9813 42.7501C11.5781 42.7501 11.25 42.422 11.25 42.0188C11.25 41.6157 11.5781 41.2876 11.9813 41.2876C12.3844 41.2876 12.7125 41.6157 12.7125 42.0188ZM14.5312 41.2876C14.1281 41.2876 13.8 41.6157 13.8 42.0188C13.8 42.422 14.1281 42.7501 14.5312 42.7501C14.9344 42.7501 15.2625 42.422 15.2625 42.0188C15.2625 41.6157 14.9344 41.2876 14.5312 41.2876ZM17.0812 41.2876C16.6781 41.2876 16.35 41.6157 16.35 42.0188C16.35 42.422 16.6781 42.7501 17.0812 42.7501C17.4844 42.7501 17.8125 42.422 17.8125 42.0188C17.8125 41.6157 17.4844 41.2876 17.0812 41.2876Z" fill="#76B6FA"/>
<path d="M34.1438 20.2313L30.3094 34.5563C30.225 34.8751 29.8969 35.0626 29.5875 34.9782C29.2781 34.8938 29.0812 34.5657 29.1656 34.2563L33 19.9313C33.0844 19.6126 33.4125 19.4251 33.7219 19.5095C34.0406 19.5938 34.2281 19.922 34.1438 20.2313Z" fill="#958FCA"/>
<path d="M33.0844 29.2125L32.3531 31.9312C32.2219 32.4281 31.7063 32.7281 31.2094 32.5969L29.3625 32.1C28.8656 31.9687 28.5656 31.4531 28.6969 30.9562L29.4281 28.2375C29.5594 27.7406 30.075 27.4406 30.5719 27.5719L32.4188 28.0687C32.9156 28.2 33.2156 28.7062 33.0844 29.2125Z" fill="#8078BF"/>
<path d="M41.3344 2.98129L38.8875 12.1313L38.7844 12.5157L32.8688 10.8188L32.9906 10.35L35.3906 1.38754C35.6625 0.384417 36.6844 -0.206208 37.6875 0.0656669L40.0125 0.684417C41.0062 0.956292 41.6063 1.98754 41.3344 2.98129Z" fill="#453D83"/>
<path d="M41.3344 2.98119L38.8875 12.1312L35.1281 10.8656L37.5188 1.95932C37.7906 0.956194 38.8125 0.365569 39.8156 0.637444L40.0125 0.693694C41.0062 0.956194 41.6063 1.98744 41.3344 2.98119Z" fill="#51489A"/>
<path d="M38.8875 12.1312L34.35 29.0437C34.0781 30.0468 33.0562 30.6375 32.0531 30.3656L29.7281 29.7468C28.725 29.475 28.1344 28.4531 28.4063 27.45L32.9437 10.5374C33.2156 9.53432 34.2375 8.94369 35.2406 9.21557L37.5656 9.83432C38.5594 10.0968 39.15 11.1281 38.8875 12.1312Z" fill="#5F55AF"/>
<path d="M38.8875 12.1312L34.35 29.0437C34.0781 30.0469 33.0562 30.6375 32.0531 30.3656L31.8562 30.3094C30.8531 30.0375 30.2625 29.0156 30.5344 28.0125L35.55 9.28125L37.5563 9.81562C38.5594 10.0969 39.15 11.1281 38.8875 12.1312Z" fill="#6A61B4"/>
<path d="M32.1844 39.3848H37.2656C39.3375 39.3848 41.0156 41.0629 41.0156 43.1348C41.0156 45.2066 39.3375 46.8848 37.2656 46.8848H32.1844C30.1125 46.8848 28.4344 45.2066 28.4344 43.1348C28.4344 41.0629 30.1125 39.3848 32.1844 39.3848Z" fill="#5DB33A"/>
<path d="M35.0625 39.3848H38.775C40.8469 39.3848 42.525 41.0629 42.525 43.1348C42.525 45.2066 40.8469 46.8848 38.775 46.8848H35.0625C32.9906 46.8848 31.3125 45.2066 31.3125 43.1348C31.3125 41.0629 32.9906 39.3848 35.0625 39.3848Z" fill="#6DC54A"/>
<path d="M40.0219 43.1344C40.0219 43.2563 39.975 43.3781 39.8813 43.4625L38.2969 45.0469C38.2031 45.1406 38.0813 45.1875 37.9688 45.1875C37.8563 45.1875 37.725 45.1406 37.6406 45.0469C37.4531 44.8594 37.4531 44.5687 37.6406 44.3812L38.4281 43.5938H31.425C31.1625 43.5938 30.9563 43.3875 30.9563 43.125C30.9563 42.8625 31.1625 42.6562 31.425 42.6562H38.4281L37.6406 41.8688C37.4531 41.6813 37.4531 41.3906 37.6406 41.2031C37.8281 41.0156 38.1188 41.0156 38.3063 41.2031L39.8906 42.7875C39.9656 42.8906 40.0219 43.0031 40.0219 43.1344Z" fill="white"/>
</g>
<defs>
<clipPath id="clip0">
<rect width="48" height="48" fill="white"/>
</clipPath>
</defs>
</svg>
