<svg width="48" height="48" viewBox="0 0 48 48" fill="none" xmlns="http://www.w3.org/2000/svg">
<circle cx="24" cy="24" r="24" fill="#FFC93F"/>
<g clip-path="url(#clip0)">
<path d="M41.2948 0H13.177C12.641 0 12.2024 0.438579 12.2024 0.974619V22.0654L14.444 21.0713C14.6292 20.9836 14.8339 20.9446 15.0386 20.9446C15.2432 20.9446 15.4479 20.9836 15.6331 21.0713L24.1123 24.8333C24.6386 25.0672 24.9797 25.5935 24.9797 26.1685V32.3476C24.9797 33.6439 24.8238 34.8426 24.5216 35.9342C24.7263 36.0707 24.9212 36.2363 25.1064 36.4118L25.9056 37.211L26.7048 36.4118C27.4357 35.6808 28.4006 35.2812 29.4435 35.2812C30.4765 35.2812 31.4512 35.6808 32.1821 36.4118C33.0106 37.2402 33.3809 38.3513 33.3029 39.4428H41.3046C41.8406 39.4428 42.2792 39.0043 42.2792 38.4682V0.974619C42.2695 0.438579 41.8309 0 41.2948 0Z" fill="#EAF6FF"/>
<path d="M14.444 21.0713C14.6292 20.9836 14.8339 20.9446 15.0386 20.9446C15.2432 20.9446 15.4479 20.9836 15.6331 21.0713L16.1009 21.2759V0.974619C16.1009 0.438579 16.5395 0 17.0755 0H13.177C12.641 0 12.2024 0.438579 12.2024 0.974619V22.0654L14.444 21.0713Z" fill="#D8ECFE"/>
<path d="M36.256 14.8731H18.2158C17.8162 14.8731 17.4848 14.5417 17.4848 14.1421C17.4848 13.7425 17.8162 13.4111 18.2158 13.4111H36.256C36.6556 13.4111 36.987 13.7425 36.987 14.1421C36.987 14.5417 36.6556 14.8731 36.256 14.8731Z" fill="#4473C5"/>
<path d="M36.256 17.8067H18.2158C17.8162 17.8067 17.4848 17.4753 17.4848 17.0757C17.4848 16.6761 17.8162 16.3447 18.2158 16.3447H36.256C36.6556 16.3447 36.987 16.6761 36.987 17.0757C36.987 17.4753 36.6556 17.8067 36.256 17.8067Z" fill="#4473C5"/>
<path d="M36.256 20.7402H18.2158C17.8162 20.7402 17.4848 20.4089 17.4848 20.0093C17.4848 19.6097 17.8162 19.2783 18.2158 19.2783H36.256C36.6556 19.2783 36.987 19.6097 36.987 20.0093C36.987 20.4089 36.6556 20.7402 36.256 20.7402Z" fill="#4473C5"/>
<path d="M36.256 26.1973H27.4065C27.0069 26.1973 26.6755 25.8659 26.6755 25.4663C26.6755 25.0667 27.0069 24.7354 27.4065 24.7354H36.256C36.6556 24.7354 36.987 25.0667 36.987 25.4663C36.987 25.8659 36.6556 26.1973 36.256 26.1973Z" fill="#4473C5"/>
<path d="M36.256 8.29396H27.4065C27.0069 8.29396 26.6755 7.96259 26.6755 7.563C26.6755 7.1634 27.0069 6.83203 27.4065 6.83203H36.256C36.6556 6.83203 36.987 7.1634 36.987 7.563C36.987 7.96259 36.6556 8.29396 36.256 8.29396Z" fill="#4473C5"/>
<path d="M36.256 29.1319H27.4065C27.0069 29.1319 26.6755 28.8005 26.6755 28.4009C26.6755 28.0013 27.0069 27.6699 27.4065 27.6699H36.256C36.6556 27.6699 36.987 28.0013 36.987 28.4009C36.987 28.8005 36.6556 29.1319 36.256 29.1319Z" fill="#4473C5"/>
<path d="M36.256 32.0742H27.4065C27.0069 32.0742 26.6755 31.7429 26.6755 31.3433C26.6755 30.9437 27.0069 30.6123 27.4065 30.6123H36.256C36.6556 30.6123 36.987 30.9437 36.987 31.3433C36.987 31.7429 36.6556 32.0742 36.256 32.0742Z" fill="#4473C5"/>
<path d="M20.5257 6.19851H19.2781C19.093 6.19851 18.9468 6.05232 18.9468 5.86714V5.50653C18.9468 5.32135 19.093 5.17516 19.2781 5.17516H21.3443C21.7439 5.17516 22.0753 4.84379 22.0753 4.4442C22.0753 4.0446 21.7439 3.71323 21.3443 3.71323H20.6329V3.63526C20.6329 3.23567 20.3015 2.9043 19.9019 2.9043C19.5023 2.9043 19.1709 3.23567 19.1709 3.63526V3.71323C18.2353 3.77171 17.4848 4.5514 17.4848 5.49678V5.85739C17.4848 6.84176 18.2938 7.65069 19.2781 7.65069H20.5257C20.7108 7.65069 20.857 7.79689 20.857 7.98206V8.34267C20.857 8.52785 20.7108 8.67404 20.5257 8.67404H18.4107C18.0111 8.67404 17.6798 9.00541 17.6798 9.40501C17.6798 9.8046 18.0111 10.136 18.4107 10.136H19.1709V10.3114C19.1709 10.711 19.5023 11.0424 19.9019 11.0424C20.3015 11.0424 20.6329 10.711 20.6329 10.3114V10.136C21.5685 10.0775 22.319 9.2978 22.319 8.35242V7.99181C22.319 6.9977 21.51 6.19851 20.5257 6.19851Z" fill="#4473C5"/>
<path d="M19.5511 41.7912H16.4908C16.1399 41.7912 15.8573 41.5086 15.8573 41.1577C15.8573 40.8069 16.1399 40.5242 16.4908 40.5242H18.7519C18.2256 39.1403 18.518 37.5224 19.629 36.4113C20.36 35.6804 21.3249 35.2808 22.3677 35.2808C23.1864 35.2808 23.9563 35.5342 24.6093 35.9923C24.9212 34.9104 25.0771 33.7019 25.0771 32.3374V26.1583C25.0771 25.5443 24.7165 24.9791 24.1513 24.7354L15.6721 20.9734C15.2725 20.7979 14.8047 20.7979 14.4051 20.9734L5.92589 24.7354C5.36061 24.9888 5 25.5443 5 26.1583V32.3374C5 38.9161 8.84974 42.0349 14.4051 44.5007C14.8047 44.6761 15.2627 44.6761 15.6623 44.5007C17.2412 43.799 18.6836 43.0485 19.9312 42.1811C19.8239 42.0739 19.7265 41.9764 19.629 41.879C19.6095 41.8595 19.5803 41.8205 19.5511 41.7912Z" fill="#4473C5"/>
<path d="M17.5531 43.5556C11.7444 40.9728 7.72896 37.7176 7.72896 30.8563V24.4043C7.72896 24.2386 7.7582 24.0729 7.80693 23.9072L5.93566 24.7357C5.37038 24.9891 5.00977 25.5446 5.00977 26.1586V32.3377C5.00977 38.9164 8.85952 42.0352 14.4148 44.501C14.8144 44.6764 15.2725 44.6764 15.6721 44.501C16.3446 44.1988 16.9976 43.8869 17.6213 43.5653C17.5921 43.5653 17.5726 43.5653 17.5531 43.5556Z" fill="#395E9E"/>
<path d="M19.8435 30.31H17.1048V27.5811C17.1048 27.3082 16.8904 27.0938 16.6175 27.0938H13.4597C13.1868 27.0938 12.9724 27.3082 12.9724 27.5811V30.31H10.2435C9.97057 30.31 9.75615 30.5244 9.75615 30.7973V33.9453C9.75615 34.2182 9.97057 34.4326 10.2435 34.4326H12.9821V37.1713C12.9821 37.4442 13.1966 37.6586 13.4695 37.6586H16.6175C16.8904 37.6586 17.1048 37.4442 17.1048 37.1713V34.4326H19.8435C20.1164 34.4326 20.3308 34.2182 20.3308 33.9453V30.7973C20.3308 30.5342 20.1066 30.31 19.8435 30.31Z" fill="white"/>
<path d="M14.6975 36.4312C14.4246 36.4312 14.2102 36.2167 14.2102 35.9438V33.6925C14.2102 33.4196 13.9957 33.2052 13.7229 33.2052H11.4812C11.2083 33.2052 10.9939 32.9908 10.9939 32.7179V30.3105H10.2435C9.97057 30.3105 9.75615 30.525 9.75615 30.7979V33.9459C9.75615 34.2188 9.97057 34.4332 10.2435 34.4332H12.9821V37.1719C12.9821 37.4448 13.1966 37.6592 13.4695 37.6592H16.6175C16.8904 37.6592 17.1048 37.4448 17.1048 37.1719V36.4214L14.6975 36.4312Z" fill="#EAF6FF"/>
<path d="M28.6735 42.6885C28.4493 42.6885 28.2349 42.5716 28.1277 42.3767L27.192 40.7588L25.7301 44.0043C25.6327 44.2187 25.4182 44.3649 25.1843 44.3746C25.1746 44.3746 25.1648 44.3746 25.1551 44.3746C24.9309 44.3746 24.7165 44.2577 24.6093 44.0627L23.3033 41.8016H19.4341C19.4828 41.8601 19.5315 41.9088 19.5803 41.9576C21.7829 44.1602 24.4631 46.8307 25.4767 47.8248C25.6034 47.9417 25.7594 48.01 25.925 48.01C26.0907 48.01 26.2467 47.9515 26.3734 47.8248C27.27 46.9379 29.4922 44.7255 31.5291 42.6983L28.6735 42.6885Z" fill="#FB2B3A"/>
<path d="M23.6542 40.5245C23.8783 40.5245 24.0928 40.6414 24.2 40.8364L25.0771 42.347L26.539 39.1015C26.6365 38.8871 26.8509 38.7409 27.0848 38.7312C27.0946 38.7312 27.1043 38.7312 27.1238 38.7312C27.348 38.7312 27.5527 38.8481 27.6696 39.0431L29.0438 41.4114H32.6986C33.7805 39.8617 33.6343 37.7176 32.2503 36.3336C31.4999 35.5832 30.5057 35.1738 29.4434 35.1738C28.3811 35.1738 27.387 35.5832 26.6365 36.3336L25.9055 37.0646L25.1746 36.3336C24.4241 35.5832 23.43 35.1738 22.3677 35.1738C21.3053 35.1738 20.3112 35.5832 19.5608 36.3336C18.4302 37.4642 18.1281 39.1113 18.6446 40.5147L23.6542 40.5245Z" fill="#FB2B3A"/>
<path d="M21.627 41.792H19.4146C19.4633 41.8505 19.5121 41.8992 19.5608 41.9479C21.7634 44.1506 24.4436 46.821 25.4572 47.8151C25.5839 47.9321 25.7399 48.0003 25.9056 48.0003C26.0712 48.0003 26.2272 47.9418 26.3539 47.8151C26.5293 47.6397 26.7535 47.4253 27.0166 47.1621C25.7594 45.9146 23.6055 43.7705 21.7829 41.9479C21.7244 41.8992 21.6757 41.8505 21.627 41.792Z" fill="#E41F2D"/>
<path d="M20.8668 40.5245C20.3503 39.1211 20.6524 37.4739 21.783 36.3434C22.2605 35.8658 22.8453 35.5247 23.4788 35.3395C23.1279 35.2421 22.7576 35.1836 22.3775 35.1836C21.3151 35.1836 20.321 35.5929 19.5706 36.3434C18.44 37.4739 18.1379 39.1211 18.6544 40.5245H20.8668Z" fill="#E41F2D"/>
<path d="M25.1454 44.4715C24.8822 44.4715 24.6483 44.3351 24.5119 44.1109L23.2254 41.8888H16.4907C16.0911 41.8888 15.7598 41.5574 15.7598 41.1578C15.7598 40.7582 16.0911 40.4269 16.4907 40.4269H23.6444C23.9076 40.4269 24.1512 40.5633 24.2779 40.7875L25.0576 42.1325L26.4416 39.0624C26.5586 38.809 26.7925 38.6433 27.0751 38.6336C27.348 38.6141 27.6111 38.7603 27.7476 38.9942L29.0926 41.3235H33.6343C34.0339 41.3235 34.3653 41.6549 34.3653 42.0545C34.3653 42.4541 34.0339 42.7854 33.6343 42.7854H28.6637C28.4006 42.7854 28.1667 42.649 28.0302 42.4248L27.1823 40.9629L25.7984 44.0427C25.6814 44.2961 25.4377 44.4618 25.1648 44.4715C25.1648 44.4715 25.1551 44.4715 25.1454 44.4715Z" fill="white"/>
</g>
<defs>
<clipPath id="clip0">
<rect width="37.2694" height="48" fill="white" transform="translate(5)"/>
</clipPath>
</defs>
</svg>
