<svg width="48" height="48" viewBox="0 0 48 48" fill="none" xmlns="http://www.w3.org/2000/svg">
<circle cx="24" cy="24" r="24" fill="#FFC93F"/>
<g clip-path="url(#clip0)">
<path d="M15.7035 43.7673H8.20586V46.2857C8.20586 47.2373 8.97695 48.0084 9.92031 48.0084H13.9809C14.9324 48.0084 15.6953 47.2373 15.6953 46.2857L15.7035 43.7673Z" fill="#808B95"/>
<path d="M40.2719 43.7673H32.7742V46.2857C32.7742 47.2373 33.5453 48.0084 34.4969 48.0084H38.5574C39.509 48.0084 40.2801 47.2373 40.2801 46.2857L40.2719 43.7673Z" fill="#808B95"/>
<path d="M10.8965 48.0001C10.5602 48.0001 10.2812 47.7212 10.2812 47.3849V44.3826C10.2812 44.0462 10.5602 43.7673 10.8965 43.7673C11.2328 43.7673 11.5117 44.0462 11.5117 44.3826V47.3849C11.5117 47.7212 11.241 48.0001 10.8965 48.0001Z" fill="#5E6B75"/>
<path d="M13.0211 48.0001C12.6848 48.0001 12.4059 47.7212 12.4059 47.3849V44.3826C12.4059 44.0462 12.6848 43.7673 13.0211 43.7673C13.3574 43.7673 13.6363 44.0462 13.6363 44.3826V47.3849C13.6363 47.7212 13.3574 48.0001 13.0211 48.0001Z" fill="#5E6B75"/>
<path d="M35.4648 48.0001C35.1285 48.0001 34.8496 47.7212 34.8496 47.3849V44.3826C34.8496 44.0462 35.1285 43.7673 35.4648 43.7673C35.8012 43.7673 36.0801 44.0462 36.0801 44.3826V47.3849C36.0801 47.7212 35.8012 48.0001 35.4648 48.0001Z" fill="#5E6B75"/>
<path d="M37.5813 48.0001C37.2449 48.0001 36.966 47.7212 36.966 47.3849V44.3826C36.966 44.0462 37.2449 43.7673 37.5813 43.7673C37.9176 43.7673 38.1965 44.0462 38.1965 44.3826V47.3849C38.1965 47.7212 37.9176 48.0001 37.5813 48.0001Z" fill="#5E6B75"/>
<path d="M14.2106 17.8455L15.9332 18.2474C16.1301 18.2884 16.2777 18.4361 16.3352 18.633C16.5156 19.2892 16.7781 19.9126 17.1063 20.4869C17.2047 20.6591 17.1965 20.8724 17.098 21.0365L16.5238 21.9634C16.852 21.8732 17.1965 21.824 17.5492 21.824H30.9449C31.2977 21.824 31.6422 21.8732 31.9703 21.9634L31.3961 21.0365C31.2894 20.8642 31.2894 20.6591 31.3879 20.4869C31.716 19.9126 31.9785 19.2892 32.159 18.633C32.2082 18.4443 32.3641 18.2966 32.5609 18.2474L34.2836 17.8455C34.5297 17.788 34.7019 17.5666 34.7019 17.3205V15.5732C34.7019 15.3189 34.5297 15.1056 34.2836 15.0482L32.5609 14.6462C32.3641 14.6052 32.2164 14.4576 32.159 14.2607C31.9785 13.6044 31.716 12.981 31.3879 12.4068C31.2894 12.2345 31.2977 12.0212 31.3961 11.8572L32.323 10.3478C32.4543 10.1345 32.4215 9.85562 32.2492 9.67515L31.0105 8.43647C30.8301 8.25601 30.5512 8.22319 30.3379 8.36265L28.8367 9.2978C28.6645 9.40444 28.4594 9.40444 28.2871 9.30601C27.7129 8.97788 27.0894 8.71538 26.4332 8.53491C26.2445 8.48569 26.0969 8.32983 26.0477 8.13296L25.6457 6.4103C25.5883 6.16421 25.3668 5.99194 25.1207 5.99194H23.3734C23.1191 5.99194 22.9059 6.16421 22.8484 6.4103L22.4465 8.13296C22.4055 8.32983 22.2578 8.47749 22.0609 8.53491C21.4047 8.71538 20.7813 8.97788 20.207 9.30601C20.0348 9.40444 19.8215 9.39624 19.6574 9.2978L18.1563 8.36265C17.943 8.2314 17.6641 8.26421 17.4836 8.43647L16.2449 9.67515C16.0645 9.85562 16.0316 10.1345 16.1711 10.3478L17.1063 11.849C17.2129 12.0212 17.2129 12.2263 17.1145 12.3986C16.7863 12.9728 16.5238 13.5962 16.3434 14.2525C16.2941 14.4412 16.1383 14.5888 15.9414 14.638L14.2188 15.04C13.9727 15.0974 13.8004 15.3189 13.8004 15.565V17.3205C13.7922 17.5666 13.9727 17.788 14.2106 17.8455Z" fill="#EBF7FF"/>
<path d="M22.1922 21.8157H26.2855C28.4512 20.9872 29.9852 18.8954 29.9852 16.4427C29.9852 13.268 27.4094 10.6923 24.2348 10.6923C21.0602 10.6923 18.4844 13.268 18.4844 16.4427C18.4844 18.8954 20.0266 20.9954 22.1922 21.8157Z" fill="#D5E7F3"/>
<path d="M36.3016 30.8392L34.5133 24.531C34.0621 22.9314 32.6019 21.824 30.9367 21.824H17.541C15.8758 21.824 14.4156 22.9314 13.9645 24.531L12.1762 30.8392H36.3016Z" fill="#E28086"/>
<path d="M34.5133 24.5226C34.0621 22.923 32.6019 21.8156 30.9367 21.8156H30.7398C30.9531 22.1355 31.1254 22.4964 31.232 22.882L32.0687 25.8351C32.5445 27.5167 31.2812 29.1901 29.5258 29.1901H12.6438L12.1762 30.8308H36.3016L34.5133 24.5226Z" fill="#DD636E"/>
<path d="M40.7148 43.767H7.76289C7.34453 43.767 7 43.4307 7 43.0041V40.937C7 40.5186 7.33633 40.1741 7.76289 40.1741H40.7148C41.1332 40.1741 41.4777 40.5104 41.4777 40.937V43.0041C41.4777 43.4307 41.1414 43.767 40.7148 43.767Z" fill="#DAE4EA"/>
<path d="M40.7148 40.1741H38.1965V41.3635C38.1965 41.7819 37.8602 42.1264 37.4336 42.1264H7V43.0041C7 43.4225 7.33633 43.767 7.76289 43.767H40.7148C41.1332 43.767 41.4777 43.4307 41.4777 43.0041V40.937C41.4777 40.5186 41.1414 40.1741 40.7148 40.1741Z" fill="#C6D0DA"/>
<path d="M40.8871 29.4036C40.8871 30.1911 40.2473 30.8392 39.4516 30.8392H36.3016V29.4857C36.3016 28.6489 36.9742 27.9763 37.8109 27.9763H39.4516C40.2473 27.9681 40.8871 28.6079 40.8871 29.4036Z" fill="#E28086"/>
<path d="M9.02617 30.8392H12.1762V29.4857C12.1762 28.649 11.5035 27.9763 10.6668 27.9763H9.02617C8.23867 27.9763 7.59062 28.6162 7.59062 29.4119C7.59062 30.1912 8.23867 30.8392 9.02617 30.8392Z" fill="#E28086"/>
<path d="M19.3539 40.1741H29.1238V43.767H19.3539V40.1741Z" fill="#808B95"/>
<path d="M25.8426 40.1741V41.2979C25.8426 41.7573 25.4734 42.1264 25.0141 42.1264H19.3539V43.767H29.1238V40.1741H25.8426Z" fill="#5E6B75"/>
<path d="M33.7012 30.8392L32.0688 25.0806C31.9457 24.6294 31.5356 24.3259 31.068 24.3259H17.4098C16.9422 24.3259 16.5402 24.6376 16.409 25.0806L14.7766 30.8392H33.7012Z" fill="#D5D8F1"/>
<path d="M31.6996 24.531L32.0688 25.8353C32.5445 27.5169 31.2813 29.1904 29.5258 29.1904H15.2441L14.7766 30.831H33.7012L32.0688 25.0724C32.0113 24.8509 31.8719 24.6623 31.6996 24.531Z" fill="#BEC3EA"/>
<path d="M36.5805 30.839H11.8973C9.8629 30.839 8.18946 32.4304 8.08282 34.4566L7.78751 40.1824H40.6902L40.3949 34.4566C40.2883 32.4222 38.6148 30.839 36.5805 30.839Z" fill="#E28086"/>
<path d="M40.3949 34.4566C40.2883 32.4304 38.6148 30.839 36.5805 30.839H36.4328C36.8266 31.405 37.0727 32.0777 37.1055 32.8159L37.1547 33.7593C37.2941 36.3597 35.2188 38.5417 32.6184 38.5417H7.86954L7.78751 40.1824H40.6902L40.3949 34.4566Z" fill="#DD636E"/>
<path d="M11.0113 34.268V35.8922C11.0113 36.8273 11.766 37.582 12.7012 37.582H13.3902V33.9727H11.3066C11.1426 33.9727 11.0113 34.1039 11.0113 34.268Z" fill="#EAAA89"/>
<path d="M17.4672 37.2866V34.276C17.4672 34.112 17.3359 33.9807 17.1719 33.9807H13.3902V37.5819H17.1719C17.3359 37.5819 17.4672 37.4424 17.4672 37.2866Z" fill="#F6F9F9"/>
<path d="M37.4664 34.268V35.8922C37.4664 36.8273 36.7117 37.582 35.7766 37.582H35.0875V33.9727H37.1711C37.3351 33.9727 37.4664 34.1039 37.4664 34.268Z" fill="#EAAA89"/>
<path d="M35.4156 37.582H35.7766C36.7117 37.582 37.4664 36.8273 37.4664 35.8922V34.268C37.4664 34.1039 37.3351 33.9727 37.1711 33.9727C37.1793 35.4328 36.4902 36.7371 35.4156 37.582Z" fill="#E4936B"/>
<path d="M31.0105 37.2866V34.276C31.0105 34.112 31.1418 33.9807 31.3059 33.9807H35.0875V37.5819H31.3059C31.1418 37.5819 31.0105 37.4424 31.0105 37.2866Z" fill="#F6F9F9"/>
<path d="M25.9984 37.943H22.4793C20.8469 37.943 19.518 36.6141 19.518 34.9817V34.0384C19.518 33.8743 19.6492 33.743 19.8133 33.743H28.6563C28.8203 33.743 28.9516 33.8743 28.9516 34.0384V34.9817C28.9598 36.6141 27.6309 37.943 25.9984 37.943Z" fill="#808B95"/>
<path d="M25.6457 33.743C25.4488 35.1868 24.2102 36.3024 22.7172 36.3024H19.8297C20.3137 37.2786 21.3144 37.943 22.4793 37.943H25.9984C27.6309 37.943 28.9598 36.6141 28.9598 34.9817V34.0384C28.9598 33.8743 28.8285 33.743 28.6644 33.743H25.6457Z" fill="#5E6B75"/>
<path d="M24.243 18.8955C25.5976 18.8955 26.6957 17.7973 26.6957 16.4427C26.6957 15.0881 25.5976 13.99 24.243 13.99C22.8884 13.99 21.7902 15.0881 21.7902 16.4427C21.7902 17.7973 22.8884 18.8955 24.243 18.8955Z" fill="#CCCCCC"/>
<path d="M25.5883 36.3761H22.8895C22.5531 36.3761 22.2742 36.0972 22.2742 35.7609C22.2742 35.4245 22.5531 35.1456 22.8895 35.1456H25.5883C25.9246 35.1456 26.2035 35.4245 26.2035 35.7609C26.2035 36.0972 25.9246 36.3761 25.5883 36.3761Z" fill="#DAE4EA"/>
<path d="M25.5883 35.1456H25.0633C24.5219 35.8429 23.677 36.3023 22.7172 36.3023H22.5941C22.6844 36.3515 22.7828 36.3761 22.8895 36.3761H25.5883C25.9246 36.3761 26.2035 36.0972 26.2035 35.7609C26.2035 35.4245 25.9246 35.1456 25.5883 35.1456Z" fill="#C6D0DA"/>
</g>
<defs>
<clipPath id="clip0">
<rect width="34.4777" height="42" fill="white" transform="translate(7 6)"/>
</clipPath>
</defs>
</svg>
