<svg width="48" height="48" viewBox="0 0 48 48" fill="none" xmlns="http://www.w3.org/2000/svg">
<circle cx="24" cy="24" r="24" fill="#FFC93F"/>
<g clip-path="url(#clip0)">
<path d="M30.9079 21.8156C31.1577 21.4547 31.3909 21.0938 31.5824 20.7246C32.3069 19.3875 32.6733 17.9602 32.6733 16.5V9.19922C32.6733 8.92031 32.5318 8.65781 32.2903 8.51016C28.4347 6.17227 24.9372 6.09844 24.5042 6C24.0462 6.09844 20.582 6.16406 16.7181 8.51836C16.4766 8.66602 16.335 8.92852 16.335 9.20742V16.5082C16.335 18.4277 16.8929 20.1996 17.9838 21.8238H30.9079V21.8156Z" fill="#DAE4EA"/>
<path d="M29.2092 7.04187C29.2508 7.06648 29.2924 7.09929 29.3341 7.1239V14.8677C29.3341 16.3278 28.9677 17.7469 28.2432 19.0923C27.7269 20.0438 27.0357 20.9626 26.178 21.8239H30.8996C31.1494 21.463 31.3826 21.102 31.5741 20.7329C32.2986 19.3958 32.665 17.9684 32.665 16.5083V9.20749C32.665 8.92859 32.5151 8.66609 32.2819 8.51843C31.216 7.86218 30.1751 7.3864 29.2092 7.04187Z" fill="#C6D0DA"/>
<path d="M24.5042 8.06726C24.4625 8.07546 21.0816 8.4446 18.4168 9.91296V16.5001C18.4168 18.4688 19.1413 20.2243 20.6319 21.8157H28.2432C28.8677 21.1512 29.3757 20.4704 29.7587 19.7649C30.3167 18.7231 30.6081 17.6239 30.6081 16.5083V9.91296C27.9184 8.4446 24.5375 8.07546 24.5042 8.06726Z" fill="#80BC93"/>
<path d="M27.2606 8.61694V14.8595C27.2606 15.9833 26.9774 17.0826 26.4112 18.1162C25.7033 19.4287 24.5542 20.6837 23.0136 21.8076H28.2265C28.8511 21.1431 29.3591 20.4623 29.7421 19.7568C30.3001 18.715 30.5915 17.6158 30.5915 16.5001V9.91304C29.509 9.32241 28.3098 8.90405 27.2606 8.61694Z" fill="#69AF81"/>
<path d="M23.4133 18.321L20.7069 15.655C20.5736 15.5237 20.5736 15.3187 20.7069 15.1874L21.7061 14.203C21.8394 14.0718 22.0476 14.0718 22.1808 14.203L23.4133 15.4171C23.5465 15.5484 23.7547 15.5484 23.8879 15.4171L26.8275 12.5214C26.9607 12.3902 27.1689 12.3902 27.3021 12.5214L28.3014 13.5058C28.4347 13.637 28.4347 13.8421 28.3014 13.9734L23.8879 18.321C23.7547 18.4523 23.5382 18.4523 23.4133 18.321Z" fill="#F6F9F9"/>
<path d="M27.2939 12.5213C27.2855 12.5131 27.2689 12.5049 27.2605 12.4885V14.8592C27.2605 14.9002 27.2605 14.9495 27.2605 14.9905L28.3015 13.9651C28.4347 13.8338 28.4347 13.6288 28.3015 13.4975L27.2939 12.5213Z" fill="#E7ECF1"/>
<path d="M15.8354 43.7673H8.22413V46.2775C8.22413 47.2291 9.0069 48.0001 9.96455 48.0001H14.0866C15.0526 48.0001 15.827 47.2291 15.827 46.2775L15.8354 43.7673Z" fill="#808B95"/>
<path d="M40.7759 43.7673H33.1646V46.2775C33.1646 47.2291 33.9474 48.0001 34.9134 48.0001H39.0354C40.0014 48.0001 40.7842 47.2291 40.7842 46.2775L40.7759 43.7673Z" fill="#808B95"/>
<path d="M10.9555 48.0001C10.6141 48.0001 10.3309 47.7212 10.3309 47.3849V44.3826C10.3309 44.0462 10.6141 43.7673 10.9555 43.7673C11.2969 43.7673 11.5801 44.0462 11.5801 44.3826V47.3849C11.5801 47.7212 11.3053 48.0001 10.9555 48.0001Z" fill="#5E6B75"/>
<path d="M13.1123 48.0001C12.7709 48.0001 12.4877 47.7212 12.4877 47.3849V44.3826C12.4877 44.0462 12.7709 43.7673 13.1123 43.7673C13.4537 43.7673 13.7369 44.0462 13.7369 44.3826V47.3849C13.7369 47.7212 13.4537 48.0001 13.1123 48.0001Z" fill="#5E6B75"/>
<path d="M35.896 48.0001C35.5546 48.0001 35.2715 47.7212 35.2715 47.3849V44.3826C35.2715 44.0462 35.5546 43.7673 35.896 43.7673C36.2374 43.7673 36.5206 44.0462 36.5206 44.3826V47.3849C36.5206 47.7212 36.2374 48.0001 35.896 48.0001Z" fill="#5E6B75"/>
<path d="M38.0445 48.0001C37.7031 48.0001 37.4199 47.7212 37.4199 47.3849V44.3826C37.4199 44.0462 37.7031 43.7673 38.0445 43.7673C38.3859 43.7673 38.669 44.0462 38.669 44.3826V47.3849C38.669 47.7212 38.3859 48.0001 38.0445 48.0001Z" fill="#5E6B75"/>
<path d="M36.7454 30.8392L34.93 24.531C34.472 22.9314 32.9898 21.824 31.2993 21.824H17.7007C16.0102 21.824 14.5279 22.9314 14.0699 24.531L12.2546 30.8392H36.7454Z" fill="#707DD3"/>
<path d="M34.93 24.5226C34.472 22.923 32.9898 21.8156 31.2993 21.8156H31.0994C31.316 22.1355 31.4908 22.4964 31.5991 22.882L32.4485 25.8351C32.9315 27.5167 31.649 29.1901 29.867 29.1901H12.7292L12.2546 30.8308H36.7454L34.93 24.5226Z" fill="#5766CB"/>
<path d="M41.2256 43.767H7.77445C7.34975 43.767 7 43.4307 7 43.0041V40.937C7 40.5186 7.34142 40.1741 7.77445 40.1741H41.2256C41.6503 40.1741 42 40.5104 42 40.937V43.0041C42 43.4307 41.6586 43.767 41.2256 43.767Z" fill="#DAE4EA"/>
<path d="M41.2256 40.1741H38.669V41.3635C38.669 41.7819 38.3276 42.1264 37.8946 42.1264H7V43.0041C7 43.4225 7.34142 43.767 7.77445 43.767H41.2256C41.6503 43.767 42 43.4307 42 43.0041V40.937C42 40.5186 41.6586 40.1741 41.2256 40.1741Z" fill="#C6D0DA"/>
<path d="M41.4004 29.4036C41.4004 30.1911 40.7509 30.8392 39.9431 30.8392H36.7454V29.4857C36.7454 28.6489 37.4283 27.9763 38.2777 27.9763H39.9431C40.7509 27.9681 41.4004 28.6079 41.4004 29.4036Z" fill="#707DD3"/>
<path d="M9.05686 30.8392H12.2546V29.4857C12.2546 28.649 11.5717 27.9763 10.7223 27.9763H9.05686C8.25743 27.9763 7.59957 28.6162 7.59957 29.4119C7.59957 30.1912 8.25743 30.8392 9.05686 30.8392Z" fill="#707DD3"/>
<path d="M19.541 40.1741H29.459V43.767H19.541V40.1741Z" fill="#808B95"/>
<path d="M26.128 40.1741V41.2979C26.128 41.7573 25.7533 42.1264 25.2869 42.1264H19.541V43.767H29.459V40.1741H26.128Z" fill="#5E6B75"/>
<path d="M34.1056 30.8392L32.4485 25.0806C32.3236 24.6294 31.9072 24.3259 31.4326 24.3259H17.5675C17.0928 24.3259 16.6848 24.6376 16.5515 25.0806L14.8944 30.8392H34.1056Z" fill="#D5D8F1"/>
<path d="M32.0738 24.531L32.4485 25.8353C32.9315 27.5169 31.6491 29.1904 29.867 29.1904H15.369L14.8944 30.831H34.1056L32.4485 25.0724C32.3902 24.8509 32.2486 24.6623 32.0738 24.531Z" fill="#BEC3EA"/>
<path d="M37.0285 30.839H11.9714C9.90626 30.839 8.20747 32.4304 8.09922 34.4566L7.79943 40.1824H41.2006L40.9008 34.4566C40.7925 32.4222 39.0937 30.839 37.0285 30.839Z" fill="#707DD3"/>
<path d="M40.9008 34.4566C40.7925 32.4304 39.0937 30.839 37.0285 30.839H36.8786C37.2784 31.405 37.5282 32.0777 37.5615 32.8159L37.6115 33.7593C37.753 36.3597 35.6462 38.5417 33.0064 38.5417H7.8827L7.79943 40.1824H41.2006L40.9008 34.4566Z" fill="#5766CB"/>
<path d="M11.0721 34.268V35.8922C11.0721 36.8273 11.8382 37.582 12.7875 37.582H13.487V33.9727H11.3719C11.2053 33.9727 11.0721 34.1039 11.0721 34.268Z" fill="#E4936B"/>
<path d="M17.6258 37.2866V34.276C17.6258 34.112 17.4925 33.9807 17.326 33.9807H13.487V37.5819H17.326C17.4925 37.5819 17.6258 37.4424 17.6258 37.2866Z" fill="#F6F9F9"/>
<path d="M37.9279 34.268V35.8922C37.9279 36.8273 37.1618 37.582 36.2125 37.582H35.513V33.9727H37.6281C37.7947 33.9727 37.9279 34.1039 37.9279 34.268Z" fill="#E4936B"/>
<path d="M35.8461 37.582H36.2125C37.1618 37.582 37.9279 36.8273 37.9279 35.8922V34.268C37.9279 34.1039 37.7947 33.9727 37.6281 33.9727C37.6365 35.4328 36.937 36.7371 35.8461 37.582Z" fill="#E27D47"/>
<path d="M31.3743 37.2866V34.276C31.3743 34.112 31.5075 33.9807 31.674 33.9807H35.513V37.5819H31.674C31.5075 37.5819 31.3743 37.4424 31.3743 37.2866Z" fill="#F6F9F9"/>
<path d="M26.2862 37.943H22.7138C21.0566 37.943 19.7076 36.6141 19.7076 34.9817V34.0384C19.7076 33.8743 19.8408 33.743 20.0074 33.743H28.9843C29.1509 33.743 29.2841 33.8743 29.2841 34.0384V34.9817C29.2924 36.6141 27.9434 37.943 26.2862 37.943Z" fill="#808B95"/>
<path d="M25.9281 33.743C25.7283 35.1868 24.4709 36.3024 22.9553 36.3024H20.024C20.5153 37.2786 21.5313 37.943 22.7138 37.943H26.2862C27.9434 37.943 29.2924 36.6141 29.2924 34.9817V34.0384C29.2924 33.8743 29.1592 33.743 28.9926 33.743H25.9281Z" fill="#5E6B75"/>
<path d="M25.8698 36.3761H23.1301C22.7887 36.3761 22.5056 36.0972 22.5056 35.7609C22.5056 35.4245 22.7887 35.1456 23.1301 35.1456H25.8698C26.2113 35.1456 26.4944 35.4245 26.4944 35.7609C26.4944 36.0972 26.2113 36.3761 25.8698 36.3761Z" fill="#DAE4EA"/>
<path d="M25.8699 35.1456H25.3369C24.7873 35.8429 23.9296 36.3023 22.9553 36.3023H22.8304C22.922 36.3515 23.0219 36.3761 23.1301 36.3761H25.8699C26.2113 36.3761 26.4944 36.0972 26.4944 35.7609C26.4944 35.4245 26.2113 35.1456 25.8699 35.1456Z" fill="#C6D0DA"/>
</g>
<defs>
<clipPath id="clip0">
<rect width="35" height="42" fill="white" transform="translate(7 6)"/>
</clipPath>
</defs>
</svg>
