<svg width="48" height="48" viewBox="0 0 48 48" fill="none" xmlns="http://www.w3.org/2000/svg">
<g clip-path="url(#clip0)">
<path d="M22.9688 1C19.2938 1 15.825 1.8625 12.7406 3.4L3.27187 35.7906C7.29375 42.475 14.6063 46.9375 22.9688 46.9375C35.6531 46.9375 45.9375 36.6531 45.9375 23.9688C45.9375 11.2844 35.6531 1 22.9688 1Z" fill="#4473C5"/>
<path d="M45.9844 3.40039H12.7406C10.2188 4.65664 7.95938 6.36289 6.06563 8.41602H41.0906C42.1125 8.41602 42.9375 9.24102 42.9375 10.2629V30.9348H45.975C47.0813 30.9348 47.9906 30.0348 47.9906 28.9191V5.41602C48 4.30039 47.1 3.40039 45.9844 3.40039Z" fill="#49CE8B"/>
<path d="M15.4781 3.40039H12.7406C10.2188 4.65664 7.95938 6.36289 6.06563 8.41602H16.9406C16.9031 8.28477 16.8281 8.16289 16.725 8.06914C16.0313 7.48789 16.0875 6.76602 16.2188 6.30664C16.3031 6.03477 16.2094 5.73477 15.9844 5.55664C15.1594 4.87227 15.3 4.04727 15.4313 3.65352C15.4688 3.55977 15.4781 3.48477 15.4781 3.40039Z" fill="#36B277"/>
<path d="M44.7469 5.84668H8.85938C7.86563 6.6248 6.92813 7.4873 6.06563 8.41543H41.0906C42.1125 8.41543 42.9375 9.24043 42.9375 10.2623V28.4967H44.7375C45.1781 28.4967 45.5437 28.1404 45.5437 27.6904V6.64355C45.5531 6.20293 45.1969 5.84668 44.7469 5.84668Z" fill="#36B277"/>
<path d="M6.06563 8.41543H16.9406C16.9031 8.28418 16.8281 8.1623 16.725 8.06855C16.0313 7.4873 16.0875 6.76543 16.2188 6.30605C16.2656 6.15605 16.2563 5.9873 16.2 5.84668H8.85938C7.86563 6.6248 6.92813 7.4873 6.06563 8.41543Z" fill="#279B61"/>
<path d="M44.7469 5.84668H38.3906C38.3344 6.1748 38.3063 6.52168 38.3063 6.86855C38.3063 7.40293 38.3719 7.91855 38.5031 8.41543H41.0906C42.1125 8.41543 42.9375 9.24043 42.9375 10.2623V12.8779C43.4438 13.0092 43.9781 13.0842 44.5219 13.0842C44.8688 13.0842 45.2156 13.0561 45.5438 12.9998V6.64355C45.5531 6.20293 45.1969 5.84668 44.7469 5.84668Z" fill="#279B61"/>
<path d="M41.1 8.25586H6.225C2.3625 12.3621 0 17.884 0 23.9684C0 28.2902 1.2 32.3402 3.27188 35.7902H41.1C42.2062 35.7902 43.1156 34.8902 43.1156 33.7746V10.2621C43.1156 9.15586 42.2062 8.25586 41.1 8.25586Z" fill="#49CE8B"/>
<path d="M0 23.9687C0 28.2906 1.2 32.3406 3.27188 35.7906H19.5281V31.3094C19.5281 31.0375 19.3969 30.7844 19.1906 30.6062C18.8906 30.3531 18.8156 30.0437 18.825 29.7812C18.8344 29.4625 18.6844 29.1625 18.4219 28.9844C17.6437 28.4406 17.6156 27.6625 17.6437 27.325C17.6531 27.2031 17.6438 27.0812 17.6063 26.9687L17.5125 26.6687C17.4375 26.4344 17.4562 26.1812 17.5687 25.9656C18.0094 25.1125 18.9656 22.7969 16.9781 22.0187C15.2156 21.3344 15.0094 19.825 15.0281 19.0281C15.0375 18.7094 14.8875 18.4094 14.625 18.2406C13.6031 17.5469 13.4531 16.6281 13.4906 16C13.5187 15.6062 13.2844 15.2406 12.9188 15.0812C10.6875 14.1344 10.7531 12.1281 10.9219 11.2C10.9781 10.9 10.875 10.6 10.6594 10.3844C10.1344 9.86875 10.0406 9.33437 10.0688 8.93125C10.0875 8.67812 10.0031 8.44375 9.85312 8.26562H6.225C2.3625 12.3625 0 17.8844 0 23.9687Z" fill="#36B277"/>
<path d="M39.8625 10.6934H4.21875C1.56562 14.4434 0 19.0277 0 23.9684C0 27.3059 0.7125 30.484 1.99687 33.3527H39.8625C40.3031 33.3527 40.6687 32.9965 40.6687 32.5465V11.4996C40.6687 11.059 40.3031 10.6934 39.8625 10.6934Z" fill="#36B277"/>
<path d="M0 23.9682C0 27.3057 0.7125 30.4838 1.99687 33.3525H19.5281V31.3182C19.5281 31.0463 19.3969 30.7932 19.1906 30.615C18.8906 30.3619 18.8156 30.0525 18.825 29.79C18.8344 29.4713 18.6844 29.1713 18.4219 28.9932C17.6437 28.4494 17.6156 27.6713 17.6437 27.3338C17.6531 27.2119 17.6438 27.09 17.6063 26.9775L17.5125 26.6775C17.4375 26.4432 17.4562 26.19 17.5687 25.9744C18.0094 25.1213 18.9656 22.8057 16.9781 22.0275C15.2156 21.3432 15.0094 19.8338 15.0281 19.0369C15.0375 18.7182 14.8875 18.4182 14.625 18.2494C13.6031 17.5557 13.4531 16.6369 13.4906 16.0088C13.5187 15.615 13.2844 15.2494 12.9188 15.09C10.6875 14.1432 10.7531 12.1369 10.9219 11.2088C10.95 11.04 10.9313 10.8713 10.8656 10.7119H4.21875C1.56563 14.4432 0 19.0275 0 23.9682Z" fill="#279B61"/>
<path d="M40.6687 11.4996V17.8559C40.3406 17.9121 39.9937 17.9402 39.6469 17.9402C36.2156 17.9402 33.4219 15.1559 33.4219 11.7152C33.4219 11.3684 33.45 11.0309 33.5062 10.6934H39.8625C40.3031 10.6934 40.6687 11.059 40.6687 11.4996Z" fill="#279B61"/>
<path d="M40.6687 32.5461V26.1898C40.3406 26.1336 39.9937 26.1055 39.6469 26.1055C36.2156 26.1055 33.4219 28.8898 33.4219 32.3305C33.4219 32.6773 33.45 33.0242 33.5062 33.3523H39.8625C40.3031 33.3523 40.6687 32.9867 40.6687 32.5461Z" fill="#279B61"/>
<path d="M16.9781 29.5186C21.1203 29.5186 24.4781 26.1607 24.4781 22.0186C24.4781 17.8764 21.1203 14.5186 16.9781 14.5186C12.836 14.5186 9.47813 17.8764 9.47813 22.0186C9.47813 26.1607 12.836 29.5186 16.9781 29.5186Z" fill="#279B61"/>
<path d="M18.4219 28.9842C17.6438 28.4404 17.6156 27.6623 17.6438 27.3248C17.6531 27.2029 17.6438 27.0811 17.6063 26.9686L17.5125 26.6686C17.4375 26.4342 17.4563 26.1811 17.5688 25.9654C18.0094 25.1123 18.9656 22.7967 16.9781 22.0186C15.2156 21.3342 15.0094 19.8248 15.0281 19.0279C15.0375 18.7092 14.8875 18.4092 14.625 18.2404C13.6031 17.5467 13.4531 16.6279 13.4906 15.9998C13.5 15.8029 13.4531 15.6154 13.3594 15.4561C11.0438 16.7311 9.4875 19.1967 9.4875 22.0186C9.4875 26.1623 12.8438 29.5186 16.9875 29.5186C17.5875 29.5186 18.1688 29.4436 18.7313 29.3123C18.6469 29.1811 18.5531 29.0686 18.4219 28.9842Z" fill="#1C8C51"/>
<path d="M37.425 47.9873C42.4732 47.9873 46.5656 43.8949 46.5656 38.8467C46.5656 33.7985 42.4732 29.7061 37.425 29.7061C32.3768 29.7061 28.2844 33.7985 28.2844 38.8467C28.2844 43.8949 32.3768 47.9873 37.425 47.9873Z" fill="#FFDD40"/>
<path d="M28.275 38.8189C28.275 43.8721 32.3719 47.9689 37.425 47.9689C39.8719 47.9689 42.0844 47.0127 43.725 45.4471C43.6781 45.4096 43.6312 45.3814 43.575 45.3814C43.0031 45.3064 42.9 44.9314 42.9 44.6783C42.9 44.5377 42.8062 44.4252 42.675 44.3971C42.0469 44.2377 41.9344 43.7877 41.925 43.5064C41.925 43.3658 41.8219 43.2533 41.6906 43.2346C39.45 42.8033 39.5906 41.0596 39.6469 40.6939C39.6562 40.6377 39.6469 40.5908 39.6281 40.5439C39.5156 40.2814 39.0563 39.4471 37.425 38.8377C35.8313 38.2377 35.7938 36.5596 35.8313 35.9408C35.8406 35.8096 35.7563 35.6877 35.6344 35.6408C34.3688 35.2002 34.3781 34.0283 34.4437 33.5127C34.4625 33.3721 34.3781 33.2408 34.2469 33.1939C33.6187 32.9689 33.6 32.4346 33.6469 32.1252C33.6656 31.9939 33.6 31.8721 33.4781 31.8252C33.0656 31.6471 33.0187 31.2627 33.0375 31.0189C33.0469 30.9533 33.0281 30.8877 32.9906 30.8408C30.1781 32.3783 28.275 35.3783 28.275 38.8189Z" fill="#FFB332"/>
<path d="M37.4156 45.1186C40.895 45.1186 43.7156 42.2979 43.7156 38.8186C43.7156 35.3392 40.895 32.5186 37.4156 32.5186C33.9362 32.5186 31.1156 35.3392 31.1156 38.8186C31.1156 42.2979 33.9362 45.1186 37.4156 45.1186Z" fill="#FCECA9"/>
<path d="M41.8313 43.3098C41.7938 43.2723 41.7375 43.2348 41.6813 43.2254C39.4406 42.7941 39.5813 41.0504 39.6375 40.6848C39.6469 40.6285 39.6375 40.5816 39.6188 40.5348C39.5063 40.2723 39.0469 39.4379 37.4156 38.8285C35.8219 38.2285 35.7844 36.5504 35.8219 35.9316C35.8313 35.8004 35.7469 35.6785 35.625 35.6316C34.3594 35.191 34.3687 34.0191 34.4344 33.5035C34.4437 33.4285 34.425 33.3629 34.3875 33.3066C32.4469 34.366 31.125 36.4379 31.125 38.8191C31.125 42.2973 33.9469 45.1191 37.425 45.1191C39.1406 45.1191 40.6969 44.4254 41.8313 43.3098Z" fill="#FFDD40"/>
<path d="M37.4156 32.5281C40.8938 32.5281 43.7156 35.35 43.7156 38.8281C43.7156 42.3062 40.8938 45.1281 37.4156 45.1281C33.9375 45.1281 31.125 42.2969 31.125 38.8187C31.125 35.3406 33.9375 32.5281 37.4156 32.5281ZM37.4156 30.9531C33.075 30.9531 29.55 34.4781 29.55 38.8187C29.55 43.1594 33.075 46.6844 37.4156 46.6844C41.7563 46.6844 45.2813 43.1594 45.2813 38.8187C45.2813 34.4781 41.7563 30.9531 37.4156 30.9531Z" fill="#FFB332"/>
<path d="M37.4156 46.684C39.5156 46.684 41.4188 45.859 42.8344 44.509C42.7969 44.4527 42.7313 44.4059 42.6656 44.3871C42.0375 44.2277 41.925 43.7777 41.9156 43.4965C41.9156 43.4215 41.8781 43.3559 41.8313 43.2996C40.6969 44.4152 39.1313 45.109 37.4156 45.109C33.9375 45.109 31.1156 42.2871 31.1156 38.809C31.1156 36.4277 32.4375 34.3559 34.3875 33.2871C34.35 33.2309 34.3031 33.1934 34.2375 33.1652C33.6094 32.9402 33.5906 32.4059 33.6375 32.0965C33.6469 32.0402 33.6375 31.9746 33.6094 31.9277C31.1906 33.2684 29.55 35.8465 29.55 38.809C29.5594 43.159 33.0844 46.684 37.4156 46.684Z" fill="#FF9100"/>
<path d="M30.6937 47.9689C35.7472 47.9689 39.8437 43.8724 39.8437 38.8189C39.8437 33.7655 35.7472 29.6689 30.6937 29.6689C25.6403 29.6689 21.5437 33.7655 21.5437 38.8189C21.5437 43.8724 25.6403 47.9689 30.6937 47.9689Z" fill="#FFDD40"/>
<path d="M21.5437 38.8189C21.5437 43.8721 25.6406 47.9689 30.6937 47.9689C33.1406 47.9689 35.3531 47.0127 36.9937 45.4471C36.9469 45.4096 36.9 45.3814 36.8437 45.3814C36.2719 45.3064 36.1687 44.9314 36.1687 44.6783C36.1687 44.5377 36.075 44.4252 35.9437 44.3971C35.3156 44.2377 35.2031 43.7877 35.1937 43.5064C35.1937 43.3658 35.0906 43.2533 34.9594 43.2346C32.7187 42.8033 32.8594 41.0596 32.9156 40.6939C32.925 40.6377 32.9156 40.5908 32.8969 40.5439C32.7844 40.2814 32.325 39.4471 30.6937 38.8377C29.1 38.2377 29.0625 36.5596 29.1 35.9408C29.1094 35.8096 29.025 35.6877 28.9031 35.6408C27.6375 35.2002 27.6469 34.0283 27.7125 33.5127C27.7312 33.3721 27.6469 33.2408 27.5156 33.1939C26.8875 32.9689 26.8687 32.4346 26.9156 32.1252C26.9344 31.9939 26.8687 31.8721 26.7469 31.8252C26.3344 31.6471 26.2875 31.2627 26.3062 31.0189C26.3156 30.9533 26.2969 30.8877 26.2594 30.8408C23.4469 32.3783 21.5437 35.3783 21.5437 38.8189Z" fill="#FFB332"/>
<path d="M30.6938 45.1098C34.1731 45.1098 36.9938 42.2892 36.9938 38.8098C36.9938 35.3304 34.1731 32.5098 30.6938 32.5098C27.2144 32.5098 24.3938 35.3304 24.3938 38.8098C24.3938 42.2892 27.2144 45.1098 30.6938 45.1098Z" fill="#FCECA9"/>
<path d="M35.1094 43.3098C35.0719 43.2723 35.0156 43.2348 34.9594 43.2254C32.7188 42.7941 32.8594 41.0504 32.9156 40.6848C32.925 40.6285 32.9156 40.5816 32.8969 40.5348C32.7844 40.2723 32.325 39.4379 30.6938 38.8285C29.1 38.2285 29.0625 36.5504 29.1 35.9316C29.1094 35.8004 29.025 35.6785 28.9031 35.6316C27.6375 35.191 27.6469 34.0191 27.7125 33.5035C27.7219 33.4285 27.7031 33.3629 27.6656 33.3066C25.7156 34.3754 24.3938 36.4473 24.3938 38.8285C24.3938 42.3066 27.2156 45.1285 30.6938 45.1285C32.4094 45.1191 33.975 44.4254 35.1094 43.3098Z" fill="#FFDD40"/>
<path d="M30.6937 32.5281C34.1719 32.5281 36.9937 35.35 36.9937 38.8281C36.9937 42.3062 34.1719 45.1281 30.6937 45.1281C27.2156 45.1281 24.3938 42.3062 24.3938 38.8281C24.3938 35.35 27.2156 32.5281 30.6937 32.5281ZM30.6937 30.9531C26.3531 30.9531 22.8281 34.4781 22.8281 38.8187C22.8281 43.1594 26.3531 46.6844 30.6937 46.6844C35.0344 46.6844 38.5594 43.1594 38.5594 38.8187C38.5594 34.4781 35.025 30.9531 30.6937 30.9531Z" fill="#FFB332"/>
<path d="M30.6938 46.684C32.7938 46.684 34.6969 45.859 36.1125 44.509C36.075 44.4527 36.0094 44.4059 35.9438 44.3871C35.3156 44.2277 35.2031 43.7777 35.1938 43.4965C35.1938 43.4215 35.1563 43.3559 35.1094 43.2996C33.975 44.4152 32.4094 45.109 30.6938 45.109C27.2156 45.109 24.3938 42.2871 24.3938 38.809C24.3938 36.4277 25.7156 34.3559 27.6656 33.2871C27.6281 33.2309 27.5813 33.1934 27.5156 33.1652C26.8875 32.9402 26.8688 32.4059 26.9156 32.0965C26.925 32.0402 26.9156 31.9746 26.8875 31.9277C24.4687 33.2684 22.8281 35.8465 22.8281 38.809C22.8281 43.159 26.3531 46.684 30.6938 46.684Z" fill="#FF9100"/>
<path d="M23.9813 47.9777C29.0347 47.9777 33.1313 43.8811 33.1313 38.8277C33.1313 33.7743 29.0347 29.6777 23.9813 29.6777C18.9278 29.6777 14.8313 33.7743 14.8313 38.8277C14.8313 43.8811 18.9278 47.9777 23.9813 47.9777Z" fill="#FFDD40"/>
<path d="M14.8219 38.8189C14.8219 43.8721 18.9188 47.9689 23.9719 47.9689C26.4187 47.9689 28.6312 47.0127 30.2719 45.4471C30.225 45.4096 30.1781 45.3814 30.1219 45.3814C29.55 45.3064 29.4469 44.9314 29.4469 44.6783C29.4469 44.5377 29.3531 44.4252 29.2219 44.3971C28.5938 44.2377 28.4813 43.7877 28.4719 43.5064C28.4719 43.3658 28.3688 43.2533 28.2375 43.2346C25.9969 42.8033 26.1375 41.0596 26.1937 40.6939C26.2031 40.6377 26.1938 40.5908 26.175 40.5439C26.0625 40.2814 25.6031 39.4471 23.9719 38.8377C22.3781 38.2377 22.3406 36.5596 22.3781 35.9408C22.3875 35.8096 22.3031 35.6877 22.1813 35.6408C20.9156 35.2002 20.925 34.0283 20.9906 33.5127C21.0094 33.3721 20.925 33.2408 20.7938 33.1939C20.1656 32.9689 20.1469 32.4346 20.1937 32.1252C20.2125 31.9939 20.1469 31.8721 20.025 31.8252C19.6125 31.6471 19.5656 31.2627 19.5844 31.0189C19.5938 30.9533 19.575 30.8877 19.5375 30.8408C16.7156 32.3783 14.8219 35.3783 14.8219 38.8189Z" fill="#FFB332"/>
<path d="M28.4148 43.2711C30.8751 40.8109 30.8751 36.822 28.4148 34.3617C25.9546 31.9014 21.9657 31.9014 19.5054 34.3617C17.0451 36.822 17.0451 40.8109 19.5054 43.2711C21.9657 45.7314 25.9546 45.7314 28.4148 43.2711Z" fill="#FCECA9"/>
<path d="M28.3781 43.3098C28.3406 43.2723 28.2844 43.2348 28.2281 43.2254C25.9875 42.7941 26.1281 41.0504 26.1844 40.6848C26.1937 40.6285 26.1844 40.5816 26.1656 40.5348C26.0531 40.2723 25.5938 39.4379 23.9625 38.8285C22.3688 38.2285 22.3313 36.5504 22.3688 35.9316C22.3781 35.8004 22.2937 35.6785 22.1719 35.6316C20.9062 35.191 20.9156 34.0191 20.9812 33.5035C20.9906 33.4285 20.9719 33.3629 20.9344 33.3066C18.9844 34.3754 17.6625 36.4473 17.6625 38.8285C17.6625 42.3066 20.4844 45.1285 23.9625 45.1285C25.6875 45.1191 27.2438 44.4254 28.3781 43.3098Z" fill="#FFDD40"/>
<path d="M23.9625 32.5281C27.4406 32.5281 30.2625 35.35 30.2625 38.8281C30.2625 42.3062 27.4406 45.1281 23.9625 45.1281C20.4844 45.1281 17.6625 42.3062 17.6625 38.8281C17.6625 35.35 20.4844 32.5281 23.9625 32.5281ZM23.9625 30.9531C19.6219 30.9531 16.0969 34.4781 16.0969 38.8187C16.0969 43.1594 19.6219 46.6844 23.9625 46.6844C28.3031 46.6844 31.8281 43.1594 31.8281 38.8187C31.8281 34.4781 28.3031 30.9531 23.9625 30.9531Z" fill="#FFB332"/>
<path d="M23.9625 46.684C26.0625 46.684 27.9656 45.859 29.3813 44.509C29.3438 44.4527 29.2781 44.4059 29.2125 44.3871C28.5844 44.2277 28.4719 43.7777 28.4625 43.4965C28.4625 43.4215 28.425 43.3559 28.3781 43.2996C27.2438 44.4152 25.6781 45.109 23.9625 45.109C20.4844 45.109 17.6625 42.2871 17.6625 38.809C17.6625 36.4277 18.9844 34.3559 20.9344 33.2871C20.8969 33.2309 20.85 33.1934 20.7844 33.1652C20.1563 32.9402 20.1375 32.4059 20.1844 32.0965C20.1938 32.0402 20.1844 31.9746 20.1563 31.9277C17.7375 33.2684 16.0969 35.8465 16.0969 38.809C16.0969 43.159 19.6313 46.684 23.9625 46.684Z" fill="#FF9100"/>
<path d="M23.9625 43.5623C23.5313 43.5623 23.175 43.2154 23.175 42.7748V41.7436C23.175 41.3123 23.5219 40.9561 23.9625 40.9561C24.3938 40.9561 24.75 41.3029 24.75 41.7436V42.7748C24.75 43.2154 24.3938 43.5623 23.9625 43.5623Z" fill="#FF9100"/>
<path d="M23.9625 36.6061C23.5313 36.6061 23.175 36.2592 23.175 35.8186V34.8529C23.175 34.4217 23.5219 34.0654 23.9625 34.0654C24.3938 34.0654 24.75 34.4123 24.75 34.8529V35.8186C24.75 36.2592 24.3938 36.6061 23.9625 36.6061Z" fill="#FF9100"/>
<path d="M23.8687 42.541C23.1656 42.541 22.7156 42.4566 22.05 42.0254C21.6844 41.791 21.5906 41.3035 21.825 40.9379C22.0594 40.5723 22.5469 40.4785 22.9125 40.7129C23.2875 40.9566 23.4094 40.9754 23.925 40.9754C24.4219 40.9754 24.6187 40.5816 24.6562 40.3566C24.7031 40.0566 24.5812 39.8504 24.2719 39.7473C24.2625 39.7473 24.2625 39.7473 24.2531 39.7379L23.1281 39.316C22.1156 38.9504 21.5531 38.0129 21.7313 36.9723C21.9187 35.866 22.8656 35.0504 24 35.041C24.75 35.041 25.2 35.1066 25.8844 35.5566C26.25 35.791 26.3437 36.2785 26.1094 36.6441C25.875 37.0098 25.3875 37.1035 25.0219 36.8691C24.6469 36.6254 24.525 36.6066 24.0094 36.6066C23.5125 36.6066 23.3156 37.0004 23.2781 37.2254C23.2312 37.5254 23.3531 37.7316 23.6625 37.8348C23.6719 37.8348 23.6719 37.8348 23.6812 37.8441L24.8062 38.266C25.8187 38.6316 26.3812 39.5691 26.2031 40.6098C26.0156 41.716 25.0687 42.5316 23.9344 42.541C23.9156 42.541 23.8875 42.541 23.8687 42.541Z" fill="#FFB332"/>
<path d="M31.7063 22.8344H28.9406C28.4906 22.8344 28.125 22.4687 28.125 22.0187C28.125 21.5687 28.4906 21.2031 28.9406 21.2031H31.7063C32.1562 21.2031 32.5219 21.5687 32.5219 22.0187C32.5219 22.4687 32.1562 22.8344 31.7063 22.8344Z" fill="#49CE8B"/>
<path d="M5.00625 22.8344H2.24063C1.79063 22.8344 1.425 22.4687 1.425 22.0187C1.425 21.5687 1.79063 21.2031 2.24063 21.2031H5.00625C5.45625 21.2031 5.82188 21.5687 5.82188 22.0187C5.82188 22.4687 5.45625 22.8344 5.00625 22.8344Z" fill="#36B277"/>
<path d="M16.9781 27.5498C16.5281 27.5498 16.1625 27.1842 16.1625 26.7342V25.5061C16.1625 25.0561 16.5281 24.6904 16.9781 24.6904C17.4281 24.6904 17.7938 25.0561 17.7938 25.5061V26.7342C17.7844 27.1935 17.4281 27.5498 16.9781 27.5498Z" fill="#49CE8B"/>
<path d="M16.9781 19.2721C16.5281 19.2721 16.1625 18.9064 16.1625 18.4564V17.3127C16.1625 16.8627 16.5281 16.4971 16.9781 16.4971C17.4281 16.4971 17.7938 16.8627 17.7938 17.3127V18.4564C17.7844 18.9064 17.4281 19.2721 16.9781 19.2721Z" fill="#49CE8B"/>
<path d="M16.8562 26.3319C16.0219 26.3319 15.5344 26.2381 14.7656 25.7319C14.3906 25.4881 14.2875 24.9819 14.5312 24.6069C14.775 24.2319 15.2812 24.1288 15.6562 24.3725C16.125 24.6819 16.2937 24.71 16.9312 24.7007C17.5125 24.7007 17.85 24.2694 17.9156 23.8663C17.9531 23.6319 17.9344 23.21 17.3812 23.0132C17.3719 23.0132 17.3719 23.0132 17.3625 23.0038L16.0219 22.4975C14.8687 22.085 14.2312 21.0163 14.4375 19.835C14.6156 18.7475 15.5625 17.6507 17.0156 17.6413C17.8969 17.6319 18.3937 17.7163 19.1906 18.2413C19.5656 18.485 19.6687 18.9913 19.425 19.3663C19.1812 19.7413 18.675 19.8444 18.3 19.6007C17.8312 19.2913 17.6625 19.2632 17.025 19.2725C16.4437 19.2725 16.1062 19.7038 16.0406 20.1069C16.0031 20.3413 16.0219 20.7632 16.575 20.96C16.5844 20.96 16.5844 20.96 16.5937 20.9694L17.9344 21.4757C19.0875 21.8882 19.725 22.9569 19.5187 24.1382C19.3406 25.2257 18.3937 26.3225 16.9406 26.3319C16.9125 26.3319 16.8844 26.3319 16.8562 26.3319Z" fill="#67E8A4"/>
</g>
<defs>
<clipPath id="clip0">
<rect width="48" height="46.9969" fill="white" transform="translate(0 1)"/>
</clipPath>
</defs>
</svg>
