<svg width="48" height="48" viewBox="0 0 48 48" fill="none" xmlns="http://www.w3.org/2000/svg">
<g clip-path="url(#clip0)">
<circle cx="24" cy="24" r="24" fill="#4473C5"/>
<g clip-path="url(#clip1)">
<path d="M20.3988 27.6635C20.0625 27.6635 19.7836 27.3846 19.7836 27.0482V24.8662C19.7836 24.5299 20.0625 24.251 20.3988 24.251C20.7352 24.251 21.0141 24.5299 21.0141 24.8662V27.0482C21.0141 27.3928 20.7352 27.6635 20.3988 27.6635Z" fill="#C6D0DA"/>
<path d="M26.9121 27.6635C26.5758 27.6635 26.2969 27.3846 26.2969 27.0482V24.8662C26.2969 24.5299 26.5758 24.251 26.9121 24.251C27.2484 24.251 27.5273 24.5299 27.5273 24.8662V27.0482C27.5273 27.3928 27.2484 27.6635 26.9121 27.6635Z" fill="#C6D0DA"/>
<path d="M13.2867 26.8512C15.3345 26.8512 16.9945 25.1911 16.9945 23.1434C16.9945 21.0956 15.3345 19.4355 13.2867 19.4355C11.2389 19.4355 9.5789 21.0956 9.5789 23.1434C9.5789 25.1911 11.2389 26.8512 13.2867 26.8512Z" fill="#808B95"/>
<path d="M34.1473 26.8512C36.195 26.8512 37.8551 25.1911 37.8551 23.1434C37.8551 21.0956 36.195 19.4355 34.1473 19.4355C32.0995 19.4355 30.4395 21.0956 30.4395 23.1434C30.4395 25.1911 32.0995 26.8512 34.1473 26.8512Z" fill="#808B95"/>
<path d="M34.1473 24.7432C35.0307 24.7432 35.7469 24.027 35.7469 23.1436C35.7469 22.2601 35.0307 21.5439 34.1473 21.5439C33.2638 21.5439 32.5477 22.2601 32.5477 23.1436C32.5477 24.027 33.2638 24.7432 34.1473 24.7432Z" fill="#DAE4EA"/>
<path d="M13.2867 24.7432C14.1702 24.7432 14.8863 24.027 14.8863 23.1436C14.8863 22.2601 14.1702 21.5439 13.2867 21.5439C12.4033 21.5439 11.6871 22.2601 11.6871 23.1436C11.6871 24.027 12.4033 24.7432 13.2867 24.7432Z" fill="#DAE4EA"/>
<path d="M41.9402 14.3828L32.1129 13.6938L30.177 9.1C29.6355 7.82852 28.3887 7 27.0023 7H15.7641C14.3777 7 13.1227 7.83672 12.5895 9.11641L10.6863 13.6938L5.53477 14.3418C4.67344 14.4484 4.0336 15.1785 4.0336 16.048V16.7535L4.85391 20.9945H7.50352V22.8238H9.58711C9.75118 20.9289 11.3426 19.4441 13.2867 19.4441C15.2309 19.4441 16.8141 20.9289 16.9863 22.8238H30.4559C30.6199 20.9289 32.2113 19.4441 34.1555 19.4441C36.0996 19.4441 37.6828 20.9289 37.8551 22.8238H39.9551V20.9863H43.9746V18.9355L43.1543 18.2383L43.9746 16.7453V16.573C43.9664 15.4164 43.0805 14.4648 41.9402 14.3828Z" fill="#E28086"/>
<path d="M41.9402 14.3826L40.5949 14.2842C40.6523 14.4811 40.6852 14.6943 40.6852 14.9158V15.4982C40.6852 17.6146 38.9707 19.3291 36.8543 19.3291L4.0336 19.3373V20.9779H7.50352V22.8072H9.58711C9.75118 20.9123 11.3426 19.4275 13.2867 19.4275C15.2309 19.4275 16.8141 20.9123 16.9863 22.8072H30.4559C30.6199 20.9123 32.2113 19.4275 34.1555 19.4275C36.0914 19.4275 37.6828 20.9123 37.8551 22.8072H39.9551V20.9697H43.9746V18.9189L43.1543 18.1561L43.9746 16.7287V16.5564C43.9664 15.4162 43.0805 14.4646 41.9402 14.3826Z" fill="#DD636E"/>
<path d="M16.1906 9.05078C15.3785 9.05078 14.6402 9.54297 14.3285 10.2895L13.1473 13.1195C13.0324 13.3902 13.2293 13.6855 13.5246 13.6855H18.2332C18.4629 13.6855 18.6434 13.5051 18.6434 13.2754V9.46094C18.6434 9.23125 18.4629 9.05078 18.2332 9.05078H16.1906Z" fill="#D5D8F1"/>
<path d="M28.4461 10.2812C28.1344 9.53477 27.3961 9.05078 26.5922 9.05078H21.1043C20.8746 9.05078 20.6942 9.23125 20.6942 9.46094V13.2836C20.6942 13.5133 20.8746 13.6937 21.1043 13.6937H29.2664C29.5617 13.6937 29.7586 13.3984 29.6438 13.1277L28.4461 10.2812Z" fill="#D5D8F1"/>
<path d="M16.1906 9.05078C16.1824 9.05078 16.1824 9.05898 16.1906 9.05078L16.1824 10.8473C16.1824 11.5117 15.641 12.0531 14.9766 12.0531H13.5902L13.1391 13.1277C13.0242 13.3984 13.2211 13.6937 13.5164 13.6937H18.225C18.4547 13.6937 18.6352 13.5133 18.6352 13.2836V9.46094C18.6352 9.23125 18.4547 9.05078 18.225 9.05078H16.1906Z" fill="#BEC3EA"/>
<path d="M28.4461 10.2812C28.1344 9.53477 27.3961 9.05078 26.5922 9.05078H26.1574L26.7153 10.3797C27.0516 11.1754 26.4692 12.0531 25.6078 12.0531H20.6942V13.2836C20.6942 13.5133 20.8746 13.6937 21.1043 13.6937H29.2664C29.5617 13.6937 29.7586 13.3984 29.6438 13.1277L28.4461 10.2812Z" fill="#BEC3EA"/>
<path d="M39.2496 16.95V17.7047C39.2496 18.3773 39.791 18.9188 40.4637 18.9188H41.3004V16.7285H39.4711C39.348 16.7285 39.2496 16.827 39.2496 16.95Z" fill="#EAAA89"/>
<path d="M40.4719 18.9188H41.3086V16.7285H40.4883C40.275 17.352 39.9141 17.9016 39.4383 18.3363C39.6434 18.6891 40.0289 18.9188 40.4719 18.9188Z" fill="#E4936B"/>
<path d="M41.3004 16.7285H43.9582V18.9188H41.3004V16.7285Z" fill="#E7ECF1"/>
<path d="M6.24844 17.7951C6.24844 17.2127 5.78087 16.7451 5.19844 16.7451H4.0336V18.8615H6.24844V17.7951Z" fill="#F6F9F9"/>
<path d="M4.0336 18.8613H6.24844V20.9777H4.0336V18.8613Z" fill="#EAAA89"/>
<path d="M4.0336 19.3379H6.24844V20.9785H4.0336V19.3379Z" fill="#E4936B"/>
<path d="M5.3871 23.3984C4.81288 23.3984 4.34531 23.866 4.34531 24.4402V26.8602H6.4289V24.4402C6.4289 23.866 5.96132 23.3984 5.3871 23.3984Z" fill="#F6F9F9"/>
<path d="M42.6129 23.3984C43.1871 23.3984 43.6547 23.866 43.6547 24.4402V26.8602H41.5711V24.4402C41.5711 23.866 42.0387 23.3984 42.6129 23.3984Z" fill="#F6F9F9"/>
<path d="M31.3172 34.776L33.7207 43.7584L36.3293 45.5303L33.1219 33.5537L31.3172 34.776Z" fill="#808B95"/>
<path d="M28.2656 24.8744H19.0453C18.9387 24.8744 18.8566 24.7924 18.8566 24.6857V23.0041C18.8566 22.8975 18.9387 22.8154 19.0453 22.8154H28.2656C28.3723 22.8154 28.4543 22.8975 28.4543 23.0041V24.6857C28.4461 24.7842 28.364 24.8744 28.2656 24.8744Z" fill="#808B95"/>
<path d="M29.5043 26.8598L29.2664 27.0566H17.9543L17.7164 26.8598H3.83672C3.71367 26.8598 3.61523 26.9582 3.61523 27.0813V28.4922C3.61523 29.2387 4.22227 29.8375 4.96055 29.8375H43.0312C43.7777 29.8375 44.3766 29.2305 44.3766 28.4922V27.073C44.3766 26.95 44.2781 26.8516 44.1551 26.8516H29.5043V26.8598Z" fill="#A0AAB7"/>
<path d="M41.1035 26.8594C41.1035 27.5977 40.4965 28.2047 39.7582 28.2047H3.61523V28.5C3.61523 29.2465 4.22227 29.8453 4.96055 29.8453H43.0312C43.7777 29.8453 44.3766 29.2383 44.3766 28.5V27.0809C44.3766 26.9578 44.2781 26.8594 44.1551 26.8594H41.1035Z" fill="#909BA5"/>
<path d="M9.55429 29.8379L32.6789 45.5223H36.3293L13.2129 29.8379H9.55429Z" fill="#DAE4EA"/>
<path d="M10.35 45.5217H15.4688L24.0738 39.6811L21.5145 37.9502L10.35 45.5217Z" fill="#C6D0DA"/>
<path d="M33.4746 29.8379L23.3438 36.7121L25.9031 38.443L38.5934 29.8379H33.4746Z" fill="#C6D0DA"/>
<path d="M23.5078 16.3594H21.3258C20.9894 16.3594 20.7105 16.0805 20.7105 15.7441C20.7105 15.4078 20.9894 15.1289 21.3258 15.1289H23.5078C23.8441 15.1289 24.123 15.4078 24.123 15.7441C24.123 16.0805 23.8523 16.3594 23.5078 16.3594Z" fill="#DAE4EA"/>
<path d="M7.50352 20.3711H3.61523C3.27891 20.3711 3 20.65 3 20.9863V23.398C3 23.7344 3.27891 24.0133 3.61523 24.0133H7.50352C7.83984 24.0133 8.11875 23.7344 8.11875 23.398V20.9863C8.11875 20.6418 7.83984 20.3711 7.50352 20.3711Z" fill="#DAE4EA"/>
<path d="M44.3848 20.3633H39.9469C39.6105 20.3633 39.3316 20.6422 39.3316 20.9785V23.3984C39.3316 23.7348 39.6105 24.0137 39.9469 24.0137H44.3848C44.7211 24.0137 45 23.7348 45 23.3984V20.9785C45 20.634 44.7211 20.3633 44.3848 20.3633Z" fill="#DAE4EA"/>
<path d="M38.0766 44.9062H9.34102C8.35664 44.9062 7.55273 45.7102 7.55273 46.6945V47.7609C7.55273 48.0973 7.83164 48.3762 8.16797 48.3762H39.2578C39.5941 48.3762 39.873 48.0973 39.873 47.7609V46.6945C39.8648 45.7102 39.0609 44.9062 38.0766 44.9062Z" fill="#A0AAB7"/>
<path d="M31.6781 38.1721C31.4074 38.1721 31.1613 37.9917 31.0875 37.7127C30.9973 37.3846 31.1941 37.0483 31.5223 36.9581L34.2375 36.228C34.5656 36.1377 34.9019 36.3346 34.9922 36.6627C35.0824 36.9909 34.8855 37.3272 34.5574 37.4174L31.8422 38.1475C31.7848 38.1639 31.7273 38.1721 31.6781 38.1721Z" fill="#C6D0DA"/>
<path d="M32.7363 42.134C32.4656 42.134 32.2195 41.9536 32.1457 41.6746C32.0555 41.3465 32.2523 41.0102 32.5805 40.92L35.2957 40.1899C35.6238 40.0997 35.9601 40.2965 36.0504 40.6246C36.1406 40.9528 35.9437 41.2891 35.6156 41.3793L32.9004 42.1094C32.843 42.1258 32.7937 42.134 32.7363 42.134Z" fill="#C6D0DA"/>
<path d="M32.2031 40.1575C31.9324 40.1575 31.6863 39.977 31.6125 39.6981C31.5223 39.37 31.7191 39.0336 32.0473 38.9434L34.7625 38.2133C35.0906 38.1231 35.4269 38.32 35.5172 38.6481C35.6074 38.9762 35.4105 39.3125 35.0824 39.4028L32.3672 40.1328C32.3098 40.1493 32.2605 40.1575 32.2031 40.1575Z" fill="#C6D0DA"/>
</g>
</g>
<defs>
<clipPath id="clip0">
<rect width="48" height="48" fill="white"/>
</clipPath>
<clipPath id="clip1">
<rect width="42" height="41.3848" fill="white" transform="translate(3 7)"/>
</clipPath>
</defs>
</svg>
