<svg width="48" height="48" viewBox="0 0 48 48" fill="none" xmlns="http://www.w3.org/2000/svg">
<rect width="48" height="48" rx="24" fill="#FFC93F"/>
<g clip-path="url(#clip0)">
<path d="M38.6719 3C39.7875 3 40.6981 3.91055 40.6981 5.02617L40.7309 42.9738C40.7309 43.0887 40.7227 43.2035 40.7063 43.3102C40.5422 44.2699 39.5906 44.7047 39.0082 44.3273L9.95274 44.6227C8.41055 45 7.92656 43.7203 7.92656 42.5965L7.88555 5.01797C7.88555 4.00898 8.23828 3.18867 9.19805 3.03281C9.29649 3.0082 9.41133 3 9.52617 3H31.8305H38.6719Z" fill="#FDFDFD"/>
<path d="M40.7062 43.3103C40.5504 44.2701 39.7137 45.0001 38.7047 45.0001H9.52617C8.41055 45.0001 7.5 44.0896 7.5 42.974V5.02632C7.5 4.02554 8.23008 3.18882 9.18984 3.03296V42.4654C9.18984 42.933 9.56719 43.3103 10.0348 43.3103H40.7062Z" fill="#E6F7FE"/>
<path d="M30.6246 12.1054C30.6246 13.6394 30.0914 15.0503 29.2055 16.166C28.016 17.6589 26.4 18.1183 24.341 18.1183C20.748 18.1183 18.0574 15.5835 18.0574 11.9906C18.0574 9.99722 18.5086 8.33198 19.9195 7.14253C21.0516 6.18276 22.5199 5.60034 24.1277 5.60034C27.7125 5.60034 30.6246 8.51245 30.6246 12.1054Z" fill="#BED9FD"/>
<path d="M29.4105 15.8871C28.2293 17.5359 26.2934 18.6187 24.1113 18.6187C20.5184 18.6187 17.6062 15.7066 17.6062 12.1137C17.6062 9.93164 18.6809 7.9957 20.3379 6.81445C19.575 7.88086 19.132 9.18516 19.132 10.5879C19.132 14.1809 22.0441 17.093 25.6371 17.093C27.048 17.093 28.3523 16.6418 29.4105 15.8871Z" fill="#9EC8FC"/>
<path d="M35.1281 41.202L34.4637 41.0789C34.1191 42.0797 33.8402 42.2356 32.9461 41.6695L32.782 41.4973C32.4293 41.2758 32.2324 41.5301 31.8223 41.6121L31.7238 41.4563C30.682 41.6613 29.9109 41.2758 29.952 40.2176L30.0832 39.9141C30.0996 39.4957 29.9027 39.307 29.632 38.9871L29.8125 38.9625C29.1152 38.1586 28.8691 37.1496 29.8043 36.6574L29.8371 36.7231C30.0258 36.6246 30.157 36.2719 30.2883 36.116C30.4195 35.9602 30.5262 35.7797 30.6 35.5828C30.9445 34.582 32.1422 34.1637 33.0363 34.7297C33.3891 34.9512 33.8156 35.0332 34.234 34.9594C35.2758 34.7543 36.2356 35.5828 36.1863 36.641C36.1699 37.0594 36.3094 37.4695 36.5883 37.7895C37.2856 38.5934 37.0477 39.832 36.1125 40.3242C35.9402 40.4145 35.7926 40.5293 35.6613 40.6688C35.4973 40.8246 35.202 40.9887 35.1281 41.202Z" fill="#D5717F"/>
<path d="M35.6449 40.6605C35.6367 40.6687 35.6203 40.6852 35.6121 40.7016C35.4809 40.8574 35.3742 41.0379 35.3004 41.2348C34.9559 42.2355 33.7664 42.6539 32.8641 42.0879C32.6016 41.9156 32.2898 41.8336 31.9863 41.8336C31.8797 41.8336 31.7813 41.8418 31.6746 41.8664C31.568 41.891 31.4613 41.8992 31.3547 41.8992C30.4441 41.8992 29.673 41.1363 29.7141 40.1848C29.7141 40.1602 29.7141 40.1355 29.7141 40.1191C29.7141 39.7254 29.5746 39.3398 29.3121 39.0445C29.0414 38.7328 28.9102 38.3473 28.9102 37.9699C28.9102 37.3875 29.2219 36.8133 29.7961 36.5098C29.9848 36.4113 30.1488 36.2801 30.2801 36.1242C30.3211 36.075 30.3539 36.0258 30.3949 35.9766C30.3785 36.1242 30.3703 36.2719 30.3703 36.4195C30.3703 38.823 32.3145 40.7672 34.718 40.7672C35.0379 40.759 35.3496 40.7262 35.6449 40.6605Z" fill="#CD5668"/>
<path d="M25.3828 14.8618V13.5411C25.3828 13.4508 25.4566 13.3688 25.5551 13.3688H26.8758C27.1137 13.3688 27.3024 13.1719 27.2942 12.9422L27.2695 11.2524C27.2695 11.0227 27.0809 10.834 26.8512 10.834H25.5551C25.4649 10.834 25.3828 10.7602 25.3828 10.6618V9.37388C25.3828 9.14419 25.1941 8.95552 24.9645 8.94731L23.9473 8.93091L23.4305 8.99653C23.1926 8.99653 23.0039 9.18521 23.0039 9.4231L23.0777 10.67C23.0777 10.7602 22.7742 10.8422 22.684 10.8422H21.3879C21.1582 10.8422 20.9695 11.0309 20.9695 11.2606L20.9531 12.2778L21.1008 12.811C21.1008 13.0489 21.2895 13.2375 21.5191 13.2375L23.0367 12.9422C23.127 12.9422 23.209 13.0161 23.209 13.1145L22.8973 14.5336C22.8973 14.7633 23.0859 14.952 23.3156 14.9602L23.9473 15.2883L24.9563 15.3047C25.1941 15.2883 25.3828 15.0997 25.3828 14.8618Z" fill="#D5717F"/>
<path d="M23.9473 8.93081V10.6617C23.9473 10.7519 23.8734 10.8339 23.775 10.8339H22.6758C22.766 10.8339 22.848 10.7601 22.848 10.6617V9.34917C22.848 9.11128 23.0449 8.92261 23.2746 8.92261L23.9473 8.93081Z" fill="#CD5668"/>
<path d="M23.9473 12.4418V15.2719L23.2664 15.2637C23.0367 15.2637 22.848 15.075 22.848 14.8371V13.541C22.848 13.4508 22.7742 13.3688 22.6758 13.3688H21.3551C21.1172 13.3688 20.9285 13.1719 20.9285 12.9422L20.9367 12.2695H23.7668C23.8734 12.2777 23.9473 12.3516 23.9473 12.4418Z" fill="#CD5668"/>
<path d="M18.7219 42.9738C17.9426 42.9738 17.2781 42.3668 17.1715 41.5711C17.1715 41.5629 17.1715 41.5629 17.1715 41.5547L16.8105 38.134C16.8023 38.052 16.7367 37.9863 16.6465 37.9863C16.5727 37.9863 16.4988 38.0438 16.4906 38.1176L16.0312 40.718C16.0312 40.7344 16.023 40.7426 16.023 40.759C15.8508 41.4645 15.2273 41.9566 14.5055 41.9566H12.6926C12.3398 41.9566 12.0609 41.6695 12.0609 41.325C12.0609 40.9723 12.348 40.6934 12.6926 40.6934H14.5055C14.6367 40.6934 14.7516 40.6031 14.7926 40.4801L15.252 37.8961C15.375 37.2234 15.9574 36.723 16.6465 36.7148C16.6547 36.7148 16.6547 36.7148 16.6629 36.7148C17.4012 36.7148 18.0082 37.2645 18.082 37.9945L18.443 41.407C18.4676 41.5793 18.5906 41.7023 18.7383 41.7023C18.8777 41.7023 19.0008 41.5793 19.0336 41.4152L19.4027 39.3152C19.5258 38.5934 20.1328 38.0684 20.8383 38.0684C21.5273 38.0684 22.118 38.5605 22.2656 39.2578L22.5117 40.4391C22.5445 40.5867 22.6512 40.6934 22.7742 40.6934H24.6117C24.9644 40.6934 25.2434 40.9805 25.2434 41.325C25.2434 41.6777 24.9562 41.9566 24.6117 41.9566H22.7578C22.0277 41.9566 21.4125 41.4398 21.2566 40.7016L21.0105 39.5203C20.9859 39.4137 20.9121 39.3398 20.8219 39.3398C20.7316 39.3398 20.6496 39.4219 20.6332 39.5367L20.2641 41.6367C20.1246 42.416 19.4766 42.9738 18.7219 42.9738Z" fill="#D3EFFD"/>
<path d="M35.5465 21.785H18.8449C18.4922 21.785 18.2133 21.4979 18.2133 21.1534C18.2133 20.8088 18.5004 20.5217 18.8449 20.5217H35.5465C35.8992 20.5217 36.1781 20.8088 36.1781 21.1534C36.1781 21.4979 35.891 21.785 35.5465 21.785Z" fill="#E6F7FE"/>
<path d="M26.6789 24.1559H18.8367C18.484 24.1559 18.2051 23.8687 18.2051 23.5242C18.2051 23.1715 18.4922 22.8926 18.8367 22.8926H26.6789C27.0316 22.8926 27.3105 23.1797 27.3105 23.5242C27.3187 23.8687 27.0316 24.1559 26.6789 24.1559Z" fill="#E6F7FE"/>
<path d="M35.5465 26.912H18.8449C18.4922 26.912 18.2133 26.6249 18.2133 26.2803C18.2133 25.9358 18.5004 25.6487 18.8449 25.6487H35.5465C35.8992 25.6487 36.1781 25.9358 36.1781 26.2803C36.1781 26.6249 35.891 26.912 35.5465 26.912Z" fill="#E6F7FE"/>
<path d="M26.6789 29.2828H18.8367C18.484 29.2828 18.2051 28.9957 18.2051 28.6512C18.2051 28.2984 18.4922 28.0195 18.8367 28.0195H26.6789C27.0316 28.0195 27.3105 28.3066 27.3105 28.6512C27.3187 28.9957 27.0316 29.2828 26.6789 29.2828Z" fill="#E6F7FE"/>
<path d="M13.9148 24.3528C13.718 24.3528 13.5375 24.2626 13.4145 24.1149L12.2004 22.5727C12.0035 22.3184 12.0035 21.9493 12.2332 21.7196C12.5039 21.4407 12.9551 21.4735 13.1848 21.7688L13.7836 22.5317C13.8164 22.5809 13.8902 22.5727 13.923 22.5235L15.1289 20.6204C15.3176 20.3251 15.7113 20.2348 16.0066 20.4235C16.302 20.6122 16.3922 21.0059 16.2035 21.3012L14.4562 24.0657C14.3496 24.2379 14.1609 24.3528 13.9559 24.361C13.9395 24.3528 13.9312 24.3528 13.9148 24.3528Z" fill="#94D4A2"/>
<path d="M13.9148 29.4797C13.718 29.4797 13.5375 29.3895 13.4145 29.2419L12.2004 27.6997C11.9871 27.429 12.0117 27.027 12.2742 26.7973C12.5531 26.5676 12.9551 26.6087 13.1766 26.8876L13.7754 27.6504C13.8082 27.6997 13.882 27.6915 13.9148 27.6422L15.1289 25.7473C15.3176 25.452 15.7113 25.3618 16.0066 25.5505C16.3019 25.7391 16.3922 26.1329 16.2035 26.4282L14.4562 29.1926C14.3496 29.3649 14.1609 29.4797 13.9559 29.4879C13.9395 29.4797 13.9312 29.4797 13.9148 29.4797Z" fill="#94D4A2"/>
<path d="M13.9148 34.6067C13.718 34.6067 13.5375 34.5165 13.4145 34.3688L12.2004 32.8266C12.0035 32.5723 12.0035 32.2032 12.2332 31.9735C12.5039 31.6946 12.9551 31.7274 13.1848 32.0227L13.7836 32.7856C13.8164 32.8348 13.8902 32.8266 13.923 32.7774L15.1289 30.8743C15.3176 30.579 15.7113 30.4887 16.0066 30.6774C16.302 30.8661 16.3922 31.2598 16.2035 31.5551L14.4562 34.3196C14.3496 34.4919 14.1609 34.6067 13.9559 34.6149C13.9395 34.6067 13.9312 34.6067 13.9148 34.6067Z" fill="#94D4A2"/>
<path d="M35.5465 32.0389H18.8449C18.4922 32.0389 18.2133 31.7518 18.2133 31.4073C18.2133 31.0627 18.5004 30.7756 18.8449 30.7756H35.5465C35.8992 30.7756 36.1781 31.0627 36.1781 31.4073C36.1781 31.7518 35.891 32.0389 35.5465 32.0389Z" fill="#E6F7FE"/>
<path d="M26.6789 34.4098H18.8367C18.484 34.4098 18.2051 34.1227 18.2051 33.7781C18.2051 33.4336 18.4922 33.1465 18.8367 33.1465H26.6789C27.0316 33.1465 27.3105 33.4336 27.3105 33.7781C27.3105 34.1227 27.0316 34.4098 26.6789 34.4098Z" fill="#E6F7FE"/>
</g>
<defs>
<clipPath id="clip0">
<rect width="33.2309" height="42" fill="white" transform="translate(7.5 3)"/>
</clipPath>
</defs>
</svg>
