<svg width="35" height="38" viewBox="0 0 35 38" fill="none" xmlns="http://www.w3.org/2000/svg">
<path d="M4.78984 24.5145H3.56523C1.87305 24.5145 0.5 23.1415 0.5 21.4493C0.5 20.4325 1.32383 19.6086 2.34062 19.6086H4.78984V24.5145Z" fill="#BD4150"/>
<path d="M28.0796 0H5.40576L4.7749 1.22461V37.4062H33.6015L34.8261 36.7754V6.73906L28.0796 0Z" fill="#ECEAEC"/>
<path d="M5.40576 34.9348V0C4.73037 0 4.18115 0.549219 4.18115 1.22461V36.7754C4.18115 37.4508 4.73037 38 5.40576 38H33.6015C34.2769 38 34.8261 37.4508 34.8261 36.7754H7.23897C6.22959 36.7754 5.40576 35.9516 5.40576 34.9348Z" fill="#DAD8DB"/>
<path d="M34.8263 6.63516C34.8263 6.30859 34.7001 5.99687 34.4701 5.7668L29.0521 0.35625C28.822 0.126172 28.5103 0 28.1837 0H28.0798V6.13047C28.0798 6.47187 28.3544 6.74648 28.6958 6.74648H34.8263V6.63516Z" fill="#DAD8DB"/>
<path d="M21.3406 23.2899H2.34062C2.12539 23.2899 1.91758 23.2528 1.72461 23.186L1.13086 24.1731V31.9142C1.13086 32.931 1.95469 33.7548 2.97148 33.7548H21.3332L22.5578 33.1017V24.5146C22.5652 23.8392 22.016 23.2899 21.3406 23.2899Z" fill="#E15F78"/>
<path d="M1.72461 23.1859C1.01211 22.9336 0.5 22.2508 0.5 21.4492V32.4781C0.5 33.4949 1.32383 34.3187 2.34062 34.3187H21.3406C22.016 34.3187 22.5652 33.7695 22.5652 33.0941H3.56523C2.54844 33.0941 1.72461 32.2703 1.72461 31.2535V23.1859Z" fill="#DB4655"/>
<path d="M17.9932 28.1436H16.7909V26.9784H18.1491C18.4905 26.9784 18.7651 26.7038 18.7651 26.3624C18.7651 26.0209 18.4905 25.7463 18.1491 25.7463H16.1749C15.8334 25.7463 15.5588 26.0209 15.5588 26.3624V31.2311C15.5588 31.5725 15.8334 31.8471 16.1749 31.8471C16.5163 31.8471 16.7909 31.5725 16.7909 31.2311V29.3608H17.9932C18.3346 29.3608 18.6092 29.0862 18.6092 28.7448C18.6092 28.4034 18.3272 28.1436 17.9932 28.1436Z" fill="white"/>
<path d="M6.74912 25.739H5.3835C5.22022 25.739 5.06436 25.8058 4.95303 25.9171C4.8417 26.0285 4.7749 26.1843 4.7749 26.3476V31.2535C4.7749 31.5949 5.04951 31.8695 5.39092 31.8695C5.73232 31.8695 6.00693 31.5949 6.00693 31.2535V29.732C6.28154 29.732 6.58584 29.732 6.75654 29.732C7.86982 29.732 8.78272 28.8339 8.78272 27.7355C8.77529 26.6371 7.86982 25.739 6.74912 25.739ZM6.74912 28.5074C6.57842 28.5074 6.27412 28.5074 5.99951 28.5074C5.99951 28.2253 5.99209 26.9636 5.99209 26.9636H6.7417C7.17217 26.9636 7.54326 27.3199 7.54326 27.7355C7.54326 28.1511 7.17959 28.5074 6.74912 28.5074Z" fill="white"/>
<path d="M11.8925 25.8132H10.5417C10.3784 25.8132 10.2226 25.88 10.1112 25.9914C9.9999 26.1101 9.93311 26.266 9.93311 26.4292V28.8042C9.93311 29.4648 9.94053 31.1941 9.94053 31.1941C9.94053 31.3574 10.0073 31.5132 10.1187 31.6246C10.23 31.7359 10.3858 31.8027 10.5491 31.8027C10.5491 31.8027 11.5511 31.7953 11.937 31.7953C13.3768 31.773 14.4233 30.5187 14.4233 28.8117C14.4233 27.0156 13.4065 25.8132 11.8925 25.8132ZM11.9222 30.5632C11.744 30.5632 11.4397 30.5707 11.1651 30.5707C11.1651 30.0066 11.1577 29.205 11.1577 28.8042V27.0453H11.8925C13.1393 27.0453 13.1987 28.5148 13.1987 28.8117C13.1987 29.6726 12.8054 30.5484 11.9222 30.5632Z" fill="white"/>
<path d="M13.3546 20.7367C12.8796 20.7367 12.4565 20.4917 12.1522 20.0242C11.7069 19.3339 11.8257 18.5546 12.4714 17.8867C13.1245 17.2113 14.4679 16.573 16.0858 16.0535C16.5905 15.1035 17.1026 13.9902 17.585 12.7656C17.8671 12.0382 18.0972 11.3851 18.2827 10.7988C17.4737 9.32182 16.9987 7.94135 17.1249 7.0433C17.2585 6.13783 17.9339 5.62572 18.9433 5.67768C19.2401 5.69252 19.9601 5.84838 20.1308 6.94682C20.2643 7.78549 20.0417 9.14369 19.5964 10.6874C20.4351 12.105 21.5854 13.6265 22.7136 14.7917C24.4206 14.6878 25.8604 14.814 26.5878 15.2519C27.1593 15.5933 27.3819 16.1574 27.1815 16.7511C26.8624 17.7234 26.0905 18.1687 25.1183 17.9386C24.3019 17.7456 23.2851 17.0331 22.2608 16.0386C20.6058 16.1871 18.6612 16.521 16.9542 17.0257C15.9374 18.8515 14.8315 20.2765 13.9112 20.6328C13.7108 20.6996 13.5327 20.7367 13.3546 20.7367ZM13.1765 19.3562C13.2804 19.5121 13.3323 19.5121 13.362 19.5046C13.7554 19.4675 14.4011 18.7921 15.1432 17.6492C14.6534 17.857 14.2155 18.0871 13.8444 18.332C12.9167 18.9554 13.1171 19.2597 13.1765 19.3562ZM23.9753 15.957C24.5022 16.3652 24.9847 16.6472 25.3929 16.7437C25.712 16.8179 25.8753 16.7808 26.0089 16.3652C25.8308 16.0906 25.0589 15.957 23.9753 15.957ZM19.1065 12.1718C18.7058 13.3074 18.2159 14.4874 17.689 15.5859C18.8393 15.2964 20.0491 15.0738 21.2069 14.9253C20.4573 14.0867 19.7374 13.1367 19.1065 12.1718ZM18.8171 6.8726C18.3792 6.8726 18.3569 7.03588 18.3347 7.20658C18.2679 7.65932 18.4311 8.30502 18.7429 9.04721C19.0175 7.72612 18.9655 7.02104 18.8319 6.8726C18.8245 6.8726 18.8171 6.8726 18.8171 6.8726Z" fill="#E15F78"/>
</svg>
