<svg width="36" height="36" viewBox="0 0 36 36" fill="none" xmlns="http://www.w3.org/2000/svg">
<path d="M25.9453 1.70859V34.2914C25.9453 35.2336 25.1789 36 24.2367 36H1.70859C0.766406 36 0 35.2336 0 34.2914V8.31797L8.31797 0H24.2367C25.1789 0 25.9453 0.766406 25.9453 1.70859Z" fill="#EBEEF2"/>
<path d="M24.2368 0H22.4087C23.3509 0 24.1173 0.766406 24.1173 1.70859V34.2914C24.1173 35.2336 23.3509 36 22.4087 36H24.2368C25.179 36 25.9454 35.2336 25.9454 34.2914V1.70859C25.9454 0.766406 25.179 0 24.2368 0Z" fill="#C9CDD3"/>
<path d="M8.31797 0L0 8.31797H6.82031C7.65 8.31797 8.31797 7.65 8.31797 6.82031V0Z" fill="#C9CDD3"/>
<path d="M16.7414 10.3569H9.20386C8.91558 10.3569 8.67651 10.1179 8.67651 9.82959C8.67651 9.54131 8.91558 9.30225 9.20386 9.30225H16.7414C17.0296 9.30225 17.2687 9.54131 17.2687 9.82959C17.2687 10.1179 17.0296 10.3569 16.7414 10.3569Z" fill="#3872B7"/>
<path d="M22.1272 16.1016H3.81787C3.52959 16.1016 3.29053 15.8625 3.29053 15.5742C3.29053 15.2859 3.52959 15.0469 3.81787 15.0469H22.1202C22.4085 15.0469 22.6476 15.2859 22.6476 15.5742C22.6476 15.8625 22.4155 16.1016 22.1272 16.1016Z" fill="#52668D"/>
<path d="M22.1272 20.5454H3.81787C3.52959 20.5454 3.29053 20.3063 3.29053 20.0181C3.29053 19.7298 3.52959 19.4907 3.81787 19.4907H22.1202C22.4085 19.4907 22.6476 19.7298 22.6476 20.0181C22.6476 20.3063 22.4155 20.5454 22.1272 20.5454Z" fill="#52668D"/>
<path d="M22.1272 24.9961H3.81787C3.52959 24.9961 3.29053 24.757 3.29053 24.4688C3.29053 24.1805 3.52959 23.9414 3.81787 23.9414H22.1202C22.4085 23.9414 22.6476 24.1805 22.6476 24.4688C22.6476 24.757 22.4155 24.9961 22.1272 24.9961Z" fill="#52668D"/>
<path d="M22.1272 29.4399H3.81787C3.52959 29.4399 3.29053 29.2009 3.29053 28.9126C3.29053 28.6243 3.52959 28.3853 3.81787 28.3853H22.1202C22.4085 28.3853 22.6476 28.6243 22.6476 28.9126C22.6476 29.2009 22.4155 29.4399 22.1272 29.4399Z" fill="#52668D"/>
<path d="M30.7125 13.036C30.5789 12.6353 30.2485 12.3399 29.8336 12.2696C28.568 12.0728 27.2743 11.9673 25.9524 11.9673C24.6305 11.9673 23.3368 12.0728 22.0711 12.2696C21.6563 12.3329 21.3188 12.6353 21.1922 13.036C20.5032 15.1243 18.9352 16.8188 16.9313 17.6767C16.4813 17.8665 16.2071 18.3306 16.2563 18.8087C16.8469 24.4407 20.5172 29.5876 25.5375 31.6337C25.8047 31.7392 26.1071 31.7392 26.3743 31.6337C31.3946 29.5876 35.0579 24.4407 35.6555 18.8087C35.7047 18.3235 35.4305 17.8665 34.9805 17.6767C32.9696 16.8118 31.4016 15.1243 30.7125 13.036Z" fill="#8EACDB"/>
<path d="M34.9735 17.6696C32.9696 16.8118 31.4016 15.1243 30.7125 13.029C30.5789 12.6282 30.2485 12.3329 29.8336 12.2625C28.568 12.0657 27.2742 11.9602 25.9523 11.9602C25.5938 11.9602 25.2422 11.9672 24.8906 11.9813C25.8469 12.0235 26.782 12.1149 27.7102 12.2625C28.125 12.3258 28.4625 12.6282 28.5891 13.029C29.2781 15.1172 30.8461 16.8118 32.85 17.6696C33.3 17.8594 33.5742 18.3235 33.525 18.8016C32.9555 24.1875 29.5734 29.1305 24.8906 31.3383C25.1016 31.4368 25.3195 31.5352 25.5375 31.6266C25.8047 31.7391 26.107 31.7391 26.3742 31.6266C31.3945 29.5805 35.0578 24.4336 35.6555 18.8016C35.6977 18.3235 35.4235 17.8594 34.9735 17.6696Z" fill="#4473C5"/>
<path d="M23.8149 17.3812V18.1546C23.8149 19.3289 24.7712 20.2851 25.9454 20.2851C27.1196 20.2851 28.0759 19.3289 28.0759 18.1546V17.3812C28.0759 16.207 27.1196 15.2507 25.9454 15.2507C24.7712 15.2507 23.8149 16.207 23.8149 17.3812Z" fill="#F6BB93"/>
<path d="M29.1728 21.6423C28.9196 21.2485 28.3923 21.122 27.9985 21.3751C27.4079 21.7548 26.6978 21.9727 25.9454 21.9727C25.1931 21.9727 24.4829 21.7548 23.8923 21.3751C23.4985 21.122 22.9712 21.2415 22.7181 21.6423C22.3454 22.2329 22.1274 22.936 22.1274 23.6884V25.3407C22.1274 25.8399 22.5282 26.2407 23.0274 26.2407H28.8704C29.3696 26.2407 29.7704 25.8399 29.7704 25.3407V23.6884C29.7704 22.929 29.5524 22.2329 29.1728 21.6423Z" fill="#52668D"/>
<path d="M25.9454 21.9726C25.2845 21.9726 24.6657 21.8039 24.1313 21.5085L25.5798 23.8992C25.7485 24.1734 26.1423 24.1734 26.311 23.8992L27.7595 21.5085C27.2251 21.8109 26.6063 21.9726 25.9454 21.9726Z" fill="#EBEEF2"/>
</svg>
