<svg width="48" height="48" viewBox="0 0 48 48" fill="none" xmlns="http://www.w3.org/2000/svg">
<g clip-path="url(#clip0)">
<path d="M47.95 24.5248C47.95 37.4904 37.4406 47.9998 24.475 47.9998C19.9094 47.9998 15.6437 46.6967 12.0344 44.4373C11.9031 44.3529 3.59687 35.2686 3.55 35.1842C1.91875 31.9779 1 28.3592 1 24.5248C1 11.5592 11.5094 1.0498 24.475 1.0498C37.4406 1.0498 47.95 11.5592 47.95 24.5248Z" fill="#FEBF08"/>
<path d="M42.25 33.1406L35.4531 37.8938C34.1687 38.7938 32.6312 39.2813 31.0562 39.2813H19.5625C18.0344 39.2813 16.5719 39.8907 15.4937 40.9688L12.025 44.4375C8.42499 42.1875 5.48124 38.9813 3.54062 35.1844C5.58437 32.9719 9.53124 28.7813 11.4344 27.4125C13.7031 25.7813 17.1812 25.875 17.1812 25.875H28.1875C29.2469 25.875 30.1 26.7375 30.1 27.7875C30.1 28.8375 29.2375 29.7 28.1875 29.7H20.0687C19.2156 29.7 18.7844 30.7313 19.3937 31.3313C19.5719 31.5094 19.8156 31.6125 20.0687 31.6125H31.3469C32.1344 31.6125 32.9125 31.5188 33.6719 31.3219L39.2406 29.9344C39.8781 29.775 40.5437 29.6906 41.2 29.7C42.2312 29.7 43.0656 30.5531 43.0656 31.5938C43.0562 32.2031 42.7562 32.7844 42.25 33.1406Z" fill="#F3D6AC"/>
<path d="M42.25 33.1409L35.4531 37.894C34.1688 38.794 32.6313 39.2815 31.0563 39.2815H19.5625C18.0344 39.2815 16.5719 39.8909 15.4938 40.969L12.025 44.4378C11.2844 43.9784 10.5719 43.4722 9.89687 42.9284L14.7062 38.119C15.7844 37.0409 17.2469 36.4315 18.775 36.4315H30.2781C31.8531 36.4315 33.3813 35.944 34.675 35.044C34.675 35.044 43.0656 30.8065 43.0656 31.5847C43.0563 32.2034 42.7563 32.7847 42.25 33.1409Z" fill="#EABE8D"/>
<path d="M28.6844 27.7875C28.6844 28.3125 28.2531 28.7437 27.7281 28.7437H27.25C26.9875 28.7437 26.7719 28.5281 26.7719 28.2656V27.3093C26.7719 27.0468 26.9875 26.8312 27.25 26.8312H27.7281C28.2625 26.8218 28.6844 27.2531 28.6844 27.7875Z" fill="#FCF6E7"/>
<path d="M41.8375 16.4814C41.8375 17.0064 41.4062 17.4377 40.8812 17.4377H40.4031V17.9158C40.4031 18.4408 39.9719 18.8721 39.4469 18.8721C38.9219 18.8721 38.4906 18.4408 38.4906 17.9158V17.4377H38.0125C37.4875 17.4377 37.0562 17.0064 37.0562 16.4814C37.0562 15.9564 37.4875 15.5252 38.0125 15.5252H38.4906V15.0471C38.4906 14.5221 38.9219 14.0908 39.4469 14.0908C39.9719 14.0908 40.4031 14.5221 40.4031 15.0471V15.5252H40.8812C41.4062 15.5252 41.8375 15.9471 41.8375 16.4814ZM11.1812 18.3939H10.7031V17.9158C10.7031 17.3908 10.2719 16.9596 9.74687 16.9596C9.22187 16.9596 8.79062 17.3908 8.79062 17.9158V18.3939H8.3125C7.7875 18.3939 7.35625 18.8252 7.35625 19.3502C7.35625 19.8752 7.7875 20.3064 8.3125 20.3064H8.78125V20.7846C8.78125 21.3096 9.2125 21.7408 9.7375 21.7408C10.2625 21.7408 10.6937 21.3096 10.6937 20.7846V20.3064H11.1719C11.6969 20.3064 12.1281 19.8752 12.1281 19.3502C12.1281 18.8252 11.7062 18.3939 11.1812 18.3939Z" fill="#4473C5"/>
<path d="M40.375 5.10908L25.8063 21.7216C25.225 22.3778 24.3906 22.7622 23.5188 22.7716C23.5094 22.7716 23.5 22.7716 23.4906 22.7716C22.6188 22.7716 21.7938 22.406 21.2031 21.7591L13.1969 12.9091C12.0531 11.6528 12.1562 9.70283 13.4125 8.55908C14.6781 7.41533 16.6188 7.51845 17.7625 8.7747L23.4531 15.056L35.7531 1.0497C36.8781 -0.225296 38.8188 -0.356546 40.1031 0.768454C41.3781 1.88408 41.5 3.83408 40.375 5.10908Z" fill="#98E5FB"/>
<path d="M27.0156 20.3436L25.8063 21.7217C25.225 22.3779 24.3906 22.7623 23.5188 22.7717C23.5094 22.7717 23.5 22.7717 23.4906 22.7717C22.6188 22.7717 21.7938 22.4061 21.2031 21.7592L13.1969 12.9092C12.0531 11.6529 12.1562 9.70293 13.4125 8.55918C13.7594 8.24043 14.1625 8.0248 14.5844 7.89355C14.2844 8.89668 14.5 10.0217 15.25 10.8561L23.2563 19.7061C23.8375 20.3529 24.6719 20.7186 25.5438 20.7186C25.5531 20.7186 25.5625 20.7186 25.5719 20.7186C26.0781 20.7092 26.575 20.5779 27.0156 20.3436Z" fill="#8ED0E1"/>
<path d="M32.5188 6.92822C32.5188 7.45322 32.0875 7.88447 31.5625 7.88447H31.0844V8.3626C31.0844 8.8876 30.6531 9.31885 30.1281 9.31885C29.6031 9.31885 29.1719 8.8876 29.1719 8.3626V7.88447H28.6938C28.1688 7.88447 27.7375 7.45322 27.7375 6.92822C27.7375 6.40322 28.1688 5.97197 28.6938 5.97197H29.1719V5.49385C29.1719 4.96885 29.6031 4.5376 30.1281 4.5376C30.6531 4.5376 31.0844 4.96885 31.0844 5.49385V5.97197H31.5625C32.0875 5.97197 32.5188 6.40322 32.5188 6.92822Z" fill="#FFF5F5"/>
</g>
<defs>
<clipPath id="clip0">
<rect width="46.95" height="48" fill="white" transform="translate(1)"/>
</clipPath>
</defs>
</svg>
