<svg width="36" height="36" viewBox="0 0 36 36" fill="none" xmlns="http://www.w3.org/2000/svg">
<circle cx="18" cy="18" r="18" fill="#44A6C5"/>
<path d="M12.6333 28.2557L7.2673 31.1765C6.92767 31.3803 6.65598 31.584 6.38428 31.7878C9.50881 34.4369 13.5843 35.9991 17.9994 35.9991C22.4145 35.9991 26.422 34.4369 29.5465 31.8557C29.2748 31.584 28.9352 31.3803 28.5956 31.2444L22.822 28.3916C22.0748 28.052 21.5994 27.2369 21.5994 26.4218V24.1803C21.7352 23.9765 21.939 23.7727 22.1428 23.501C22.9579 22.4142 23.5013 21.1916 23.9088 19.901C24.656 19.6973 25.1994 19.018 25.1994 18.2029V15.8256C25.1994 15.2822 24.9956 14.8067 24.5881 14.4671V10.8671C24.5881 10.8671 25.3352 5.43311 17.9314 5.43311C10.5277 5.43311 11.2748 10.8671 11.2748 10.8671V14.3312C10.9352 14.6708 10.6635 15.1463 10.6635 15.6897V18.0671C10.6635 18.6784 11.0031 19.2897 11.4786 19.5614C12.0899 22.2105 13.6522 24.0444 13.6522 24.0444V26.218C13.7881 27.101 13.3126 27.8482 12.6333 28.2557Z" fill="#DADADA"/>
</svg>
