<svg width="48" height="48" viewBox="0 0 48 48" fill="none" xmlns="http://www.w3.org/2000/svg">
<path d="M42.75 38.9812C46.0312 34.875 48 29.6625 48 24C48 10.7437 37.2562 0 24 0C10.7438 0 0 10.7437 0 24C0 29.6719 1.96875 34.875 5.25 38.9812H42.75Z" fill="#FEBF08"/>
<path d="M7.125 14.0625H40.875C41.9062 14.0625 42.75 13.2188 42.75 12.1875V1.875C42.75 0.84375 41.9062 0 40.875 0H7.125C6.09375 0 5.25 0.84375 5.25 1.875V12.1875C5.25 13.2188 6.09375 14.0625 7.125 14.0625Z" fill="#FE3745"/>
<path d="M9 12.1875V1.875C9 0.84375 9.84375 0 10.875 0H7.125C6.09375 0 5.25 0.84375 5.25 1.875V12.1875C5.25 13.2188 6.09375 14.0625 7.125 14.0625H10.875C9.84375 14.0625 9 13.2188 9 12.1875Z" fill="#E6283C"/>
<path d="M33.375 10.2842H29.3438C28.9594 10.2842 28.6406 9.96543 28.6406 9.58105C28.6406 9.19668 28.9594 8.87793 29.3438 8.87793H33.375C33.7594 8.87793 34.0781 9.19668 34.0781 9.58105C34.0781 9.96543 33.7594 10.2842 33.375 10.2842Z" fill="white"/>
<path d="M26.5312 10.2842H17.7188C17.3344 10.2842 17.0156 9.96543 17.0156 9.58105C17.0156 9.19668 17.3344 8.87793 17.7188 8.87793H26.5312C26.9156 8.87793 27.2344 9.19668 27.2344 9.58105C27.2344 9.96543 26.9156 10.2842 26.5312 10.2842Z" fill="white"/>
<path d="M38.0625 5.18408H17.7188C17.3344 5.18408 17.0156 4.86533 17.0156 4.48096C17.0156 4.09658 17.3344 3.77783 17.7188 3.77783H38.0625C38.4469 3.77783 38.7656 4.09658 38.7656 4.48096C38.7656 4.86533 38.4469 5.18408 38.0625 5.18408Z" fill="white"/>
<path d="M13.0312 10.2842C12.75 10.2842 12.4781 10.1061 12.375 9.82481L11.025 6.24355L9.65625 9.83418C9.51562 10.1998 9.1125 10.3779 8.74687 10.2373C8.38125 10.0967 8.20312 9.69355 8.34375 9.32793L10.2562 4.29355C10.2562 4.28418 10.2562 4.28418 10.2656 4.2748C10.3875 3.96543 10.6875 3.76855 11.025 3.76855C11.3625 3.76855 11.6531 3.96543 11.7844 4.2748C11.7844 4.28418 11.7937 4.28418 11.7937 4.29355L13.6875 9.3373C13.8281 9.70293 13.6406 10.1061 13.275 10.2467C13.2 10.2748 13.1156 10.2842 13.0312 10.2842Z" fill="white"/>
<path d="M12.4406 9.03711H9.6C9.21562 9.03711 8.89687 8.71836 8.89687 8.33398C8.89687 7.94961 9.21562 7.63086 9.6 7.63086H12.4406C12.825 7.63086 13.1437 7.94961 13.1437 8.33398C13.1437 8.71836 12.8344 9.03711 12.4406 9.03711Z" fill="white"/>
<path d="M7.125 31.0312H40.875C41.9062 31.0312 42.75 30.1875 42.75 29.1562V18.8438C42.75 17.8125 41.9062 16.9688 40.875 16.9688H7.125C6.09375 16.9688 5.25 17.8125 5.25 18.8438V29.1562C5.25 30.1875 6.09375 31.0312 7.125 31.0312Z" fill="#52BBEF"/>
<path d="M9 29.1562V18.8438C9 17.8125 9.84375 16.9688 10.875 16.9688H7.125C6.09375 16.9688 5.25 17.8125 5.25 18.8438V29.1562C5.25 30.1875 6.09375 31.0312 7.125 31.0312H10.875C9.84375 31.0312 9 30.1875 9 29.1562Z" fill="#1E99D6"/>
<path d="M38.0625 27.2529H17.7188C17.3344 27.2529 17.0156 26.9342 17.0156 26.5498C17.0156 26.1654 17.3344 25.8467 17.7188 25.8467H38.0625C38.4469 25.8467 38.7656 26.1654 38.7656 26.5498C38.7656 26.9342 38.4469 27.2529 38.0625 27.2529Z" fill="white"/>
<path d="M38.0625 22.1533H31.5C31.1156 22.1533 30.7969 21.8346 30.7969 21.4502C30.7969 21.0658 31.1156 20.7471 31.5 20.7471H38.0625C38.4469 20.7471 38.7656 21.0658 38.7656 21.4502C38.7656 21.8346 38.4469 22.1533 38.0625 22.1533Z" fill="white"/>
<path d="M28.6875 22.1533H17.7188C17.3344 22.1533 17.0156 21.8346 17.0156 21.4502C17.0156 21.0658 17.3344 20.7471 17.7188 20.7471H28.6875C29.0719 20.7471 29.3906 21.0658 29.3906 21.4502C29.3906 21.8346 29.0719 22.1533 28.6875 22.1533Z" fill="white"/>
<path d="M9 24.5065C8.8125 24.5065 8.63437 24.4315 8.50312 24.3002C8.37187 24.169 8.29688 23.9908 8.29688 23.8033V21.4502C8.29688 21.0658 8.61563 20.7471 9 20.7471H10.4813C11.5125 20.7471 12.3563 21.5908 12.3563 22.6221C12.3563 23.6533 11.5125 24.4971 10.4813 24.4971C10.1625 24.4971 9 24.5065 9 24.5065ZM9.70313 22.1533V23.1002C10.0125 23.1002 10.3313 23.1002 10.4813 23.1002C10.7438 23.1002 10.95 22.8846 10.95 22.6315C10.95 22.3783 10.7344 22.1627 10.4813 22.1627L9.70313 22.1533Z" fill="white"/>
<path d="M9 27.2533C8.8125 27.2533 8.63437 27.1783 8.50312 27.0471C8.37187 26.9158 8.29688 26.7377 8.29688 26.5502V23.7939C8.29688 23.4096 8.61563 23.0908 9 23.0908H10.7438C11.8875 23.0908 12.825 24.0189 12.825 25.1721C12.825 26.3252 11.8969 27.2533 10.7438 27.2533C10.3688 27.2533 9 27.2533 9 27.2533ZM9.70313 24.4971V25.8377C10.0969 25.8377 10.5469 25.8377 10.7438 25.8377C11.1094 25.8377 11.4188 25.5377 11.4188 25.1627C11.4188 24.7971 11.1188 24.4877 10.7438 24.4877L9.70313 24.4971Z" fill="white"/>
<path d="M42.75 38.9812V35.8125C42.75 34.7812 41.9062 33.9375 40.875 33.9375H7.125C6.09375 33.9375 5.25 34.7812 5.25 35.8125V38.9812C9.64688 44.475 16.4156 48 24 48C31.5844 48 38.3531 44.475 42.75 38.9812Z" fill="#37C47A"/>
<path d="M5.25 35.8125V38.9812C6.35625 40.3687 7.6125 41.625 9 42.7312V35.8125C9 34.7812 9.84375 33.9375 10.875 33.9375H7.125C6.09375 33.9375 5.25 34.7812 5.25 35.8125Z" fill="#02AF8E"/>
<path d="M31.5 44.2217H17.7188C17.3344 44.2217 17.0156 43.9029 17.0156 43.5186C17.0156 43.1342 17.3344 42.8154 17.7188 42.8154H31.5C31.8844 42.8154 32.2031 43.1342 32.2031 43.5186C32.2031 43.9029 31.8844 44.2217 31.5 44.2217Z" fill="white"/>
<path d="M38.0625 39.1221H17.7188C17.3344 39.1221 17.0156 38.8033 17.0156 38.4189C17.0156 38.0346 17.3344 37.7158 17.7188 37.7158H38.0625C38.4469 37.7158 38.7656 38.0346 38.7656 38.4189C38.7656 38.8033 38.4469 39.1221 38.0625 39.1221Z" fill="white"/>
<path d="M13.6125 42.2626C13.3125 42.0095 12.8719 42.0563 12.6187 42.347C12.5812 42.3938 12.5344 42.4407 12.4875 42.4876C12.2437 42.7032 11.925 42.8157 11.55 42.8157C10.5281 42.8157 9.70312 41.9907 9.70312 40.9688C9.70312 39.947 10.5281 39.122 11.55 39.122C11.925 39.122 12.2812 39.2345 12.5812 39.4407C12.9 39.6563 13.3406 39.572 13.5562 39.2532C13.7719 38.9345 13.6875 38.4938 13.3687 38.2782C12.8344 37.9126 12.1969 37.7251 11.55 37.7251C9.75937 37.7251 8.29688 39.1876 8.29688 40.9782C8.29688 41.5126 8.42813 42.0188 8.65312 42.4688C9.39375 43.0876 10.1812 43.6595 10.9969 44.1938C11.175 44.222 11.3625 44.2407 11.55 44.2407C12.2719 44.2407 12.9187 44.0063 13.4156 43.5563C13.5187 43.472 13.6125 43.3688 13.6969 43.2657C13.95 42.9563 13.9125 42.5063 13.6125 42.2626Z" fill="white"/>
</svg>
