<svg width="48" height="48" viewBox="0 0 48 48" fill="none" xmlns="http://www.w3.org/2000/svg">
<circle cx="24" cy="24" r="24" fill="#FFC93F"/>
<g clip-path="url(#clip0)">
<path d="M29.0717 18.3884H21.3766C20.729 18.3884 20.1824 17.8838 20.1572 17.2363C20.1319 16.5551 20.6702 16 21.3514 16H34.0168C34.6644 16 35.211 16.5046 35.2363 17.1522C35.2615 17.8334 34.7149 18.3884 34.0421 18.3884H38.2723C39.2647 18.3884 40.0636 19.1874 40.0636 20.1798C40.0636 21.1721 39.2647 21.9711 38.2723 21.9711H36.2286C37.7256 21.9711 38.9367 23.1821 38.9367 24.6791V35.0066L36.6071 34.8468V25.6967C36.6071 25.3351 36.3127 25.0407 35.9511 25.0407H32.7301C31.8975 25.0407 31.1911 24.3848 31.1658 23.5522C31.1406 22.6859 31.8386 21.9795 32.6965 21.9795H27.8271C26.8179 21.9795 26.0105 21.1469 26.0357 20.1377C26.061 19.1622 26.8852 18.3968 27.8607 18.3968L29.0717 18.3884Z" fill="#FCFCFC"/>
<path d="M12.5461 47.9998C14.6455 47.9998 16.3474 46.2979 16.3474 44.1985C16.3474 42.0991 14.6455 40.3972 12.5461 40.3972C10.4467 40.3972 8.74481 42.0991 8.74481 44.1985C8.74481 46.2979 10.4467 47.9998 12.5461 47.9998Z" fill="#808B95"/>
<path d="M33.9327 47.9998C36.0321 47.9998 37.734 46.2979 37.734 44.1985C37.734 42.0991 36.0321 40.3972 33.9327 40.3972C31.8333 40.3972 30.1314 42.0991 30.1314 44.1985C30.1314 46.2979 31.8333 47.9998 33.9327 47.9998Z" fill="#808B95"/>
<path d="M33.9327 45.8386C34.8384 45.8386 35.5727 45.1044 35.5727 44.1987C35.5727 43.2929 34.8384 42.5587 33.9327 42.5587C33.027 42.5587 32.2928 43.2929 32.2928 44.1987C32.2928 45.1044 33.027 45.8386 33.9327 45.8386Z" fill="#DAE4EA"/>
<path d="M12.5461 45.8386C13.4519 45.8386 14.1861 45.1044 14.1861 44.1987C14.1861 43.2929 13.4519 42.5587 12.5461 42.5587C11.6404 42.5587 10.9062 43.2929 10.9062 44.1987C10.9062 45.1044 11.6404 45.8386 12.5461 45.8386Z" fill="#DAE4EA"/>
<path d="M41.9222 35.2169L31.847 34.5021L29.8623 29.7925C29.3072 28.4889 28.0289 27.6395 26.616 27.6395H15.0944C13.6731 27.6395 12.3863 28.4973 11.8397 29.8093L9.88016 34.5021L4.59869 35.1665C3.71564 35.2758 3.05966 36.0243 3.05966 36.9157V37.639L3.32878 41.987H6.61709V43.8624H8.75322C8.92142 41.9197 10.553 40.3975 12.5461 40.3975C14.5393 40.3975 16.1624 41.9197 16.339 43.8624H30.1482C30.3164 41.9197 31.948 40.3975 33.9411 40.3975C35.9343 40.3975 37.5574 41.9197 37.734 43.8624H39.887V41.9701H44.0079V39.8676L43.6294 39.363L44.0079 37.6222V37.4456C43.9995 36.2682 43.0912 35.2926 41.9222 35.2169Z" fill="#707DD3"/>
<path d="M6.6171 42.1802V43.8622H8.75323C8.80369 43.2482 9.00553 42.6764 9.3167 42.1802H6.6171Z" fill="#5766CB"/>
<path d="M15.7672 42.1802C16.0783 42.6764 16.2802 43.2482 16.3306 43.8622H30.1398C30.1903 43.2482 30.3921 42.6764 30.7033 42.1802H15.7672Z" fill="#5766CB"/>
<path d="M41.9222 35.2168L40.543 35.1158C40.6018 35.3177 40.6355 35.5363 40.6355 35.7634V37.2856C40.6355 39.5395 39.1133 41.4317 37.036 42.0036C37.4145 42.5334 37.6584 43.1726 37.7172 43.8622H39.8702V41.97H43.9911V39.8675L43.6126 39.3629L43.9911 37.622V37.4454C43.9995 36.268 43.0912 35.2925 41.9222 35.2168Z" fill="#5766CB"/>
<path d="M15.5233 29.7505C14.6907 29.7505 13.9338 30.2551 13.6142 31.0204L12.3359 34.09C12.2518 34.2919 12.4032 34.5105 12.6134 34.5105H17.7351C17.9033 34.5105 18.0378 34.376 18.0378 34.2078V30.0448C18.0378 29.8766 17.9033 29.7421 17.7351 29.7421H15.5233V29.7505Z" fill="#D5D8F1"/>
<path d="M28.0878 31.0119C27.7682 30.2466 27.0113 29.7504 26.1871 29.7504H20.4431C20.2749 29.7504 20.1404 29.8849 20.1404 30.0531V34.2077C20.1404 34.3759 20.2749 34.5104 20.4431 34.5104H29.1138C29.3325 34.5104 29.4755 34.2918 29.3914 34.0899L28.0878 31.0119Z" fill="#D5D8F1"/>
<path d="M15.5233 29.7505C15.5149 29.7505 15.5149 29.7505 15.5233 29.7505L15.5148 31.2222C15.5148 32.1053 14.7916 32.8285 13.9085 32.8285H12.8657L12.3359 34.09C12.2518 34.2919 12.4032 34.5105 12.6134 34.5105H17.7351C17.9033 34.5105 18.0378 34.376 18.0378 34.2078V30.0448C18.0378 29.8766 17.9033 29.7421 17.7351 29.7421L15.5233 29.7505Z" fill="#BEC3EA"/>
<path d="M28.0878 31.0119C27.7682 30.2466 27.0113 29.7504 26.1871 29.7504H25.7414L26.0946 30.5914C26.5403 31.651 25.7666 32.82 24.6144 32.82H20.1319V34.1993C20.1319 34.3675 20.2665 34.502 20.4347 34.502H29.1054C29.324 34.502 29.467 34.2834 29.3829 34.0815L28.0878 31.0119Z" fill="#BEC3EA"/>
<path d="M39.1637 37.8407V38.6144C39.1637 39.3041 39.7188 39.8591 40.4084 39.8591H41.2662V37.6136H39.3908C39.2646 37.6221 39.1637 37.723 39.1637 37.8407Z" fill="#EAAA89"/>
<path d="M41.2662 39.8674V37.6219H40.6187C40.5682 38.4041 40.3243 39.1442 39.9459 39.7833C40.0888 39.8422 40.2402 39.8758 40.4084 39.8758L41.2662 39.8674Z" fill="#E4936B"/>
<path d="M41.2662 37.6219H43.9911V39.8674H41.2662V37.6219Z" fill="#E7ECF1"/>
<path d="M5.33036 38.7153C5.33036 38.1182 4.85099 37.6388 4.25388 37.6388H3.05966V39.8086H5.33036V38.7153Z" fill="#F6F9F9"/>
<path d="M3.05966 39.8086H5.33036V41.9784H3.05966V39.8086Z" fill="#EAAA89"/>
<path d="M6.61708 41.3478H2.63075C2.28594 41.3478 2 41.6337 2 41.9785V44.4511C2 44.7959 2.28594 45.0818 2.63075 45.0818H6.61708C6.96189 45.0818 7.24783 44.7959 7.24783 44.4511V41.9785C7.24783 41.6337 6.96189 41.3478 6.61708 41.3478Z" fill="#DAE4EA"/>
<path d="M44.4284 41.3392H39.8786C39.5338 41.3392 39.2478 41.6252 39.2478 41.97V44.4509C39.2478 44.7957 39.5338 45.0817 39.8786 45.0817H44.4284C44.7732 45.0817 45.0591 44.7957 45.0591 44.4509V41.97C45.0591 41.6252 44.7732 41.3392 44.4284 41.3392Z" fill="#C6D0DA"/>
<path d="M31.847 34.5019L32.7385 34.5608L39.887 28.3542C40.5177 27.8076 41.4849 27.8412 42.0736 28.4299C42.3175 28.6738 42.7211 28.6738 42.965 28.4299C43.2089 28.186 43.2089 27.7824 42.965 27.5385C41.9054 26.4788 40.1897 26.42 39.0544 27.4039L31.5863 33.8964L31.847 34.5019Z" fill="#5766CB"/>
<path d="M23.025 37.2353H20.7879C20.4431 37.2353 20.1572 36.9493 20.1572 36.6045C20.1572 36.2597 20.4431 35.9738 20.7879 35.9738H23.025C23.3698 35.9738 23.6557 36.2597 23.6557 36.6045C23.6557 36.9493 23.3782 37.2353 23.025 37.2353Z" fill="#C6D0DA"/>
</g>
<defs>
<clipPath id="clip0">
<rect width="43.0591" height="32" fill="white" transform="translate(2 16)"/>
</clipPath>
</defs>
</svg>
