<svg width="48" height="48" viewBox="0 0 48 48" fill="none" xmlns="http://www.w3.org/2000/svg">
<circle cx="24" cy="24" r="24" fill="#4473C5"/>
<g clip-path="url(#clip0)">
<path d="M5.0836 18.5996H42.9164V44.9234H5.0836V18.5996Z" fill="#F6F9F9"/>
<path d="M39.6352 18.5996V32.627C39.6352 38.5086 34.8692 43.2828 28.9793 43.2828H5.0836V44.9234H42.9164V18.5996H39.6352Z" fill="#E7ECF1"/>
<path d="M39.6024 23.7432V44.9236H8.39766V23.7432H39.6024Z" fill="#707DD3"/>
<path d="M36.3211 23.7432V33.751C36.3211 39.0092 32.0555 43.283 26.7891 43.283H8.39766V44.9236H39.6106V23.7432H36.3211Z" fill="#5766CB"/>
<path d="M44.935 18.3293L39.078 6.34453C38.9795 6.13125 38.7663 6 38.5284 6H9.47288C9.23499 6 9.02171 6.13125 8.92327 6.34453L3.06624 18.3293C2.97601 18.518 2.98421 18.7477 3.09906 18.9281C3.2139 19.1086 3.41077 19.2152 3.62406 19.2152H44.3936C44.6069 19.2152 44.8038 19.1086 44.9186 18.9281C45.017 18.7477 45.0334 18.5262 44.935 18.3293Z" fill="#E4936B"/>
<path d="M44.935 18.3293L39.078 6.34453C38.9795 6.13125 38.7663 6 38.5284 6H36.4366L41.662 16.6887C41.7522 16.8773 41.744 17.107 41.6291 17.2875C41.5143 17.468 41.3174 17.5746 41.1041 17.5746H3.43538L3.06624 18.3293C2.97601 18.518 2.98421 18.7477 3.09906 18.9281C3.2139 19.1086 3.41077 19.2152 3.62406 19.2152H44.3936C44.6069 19.2152 44.8038 19.1086 44.9186 18.9281C45.017 18.7477 45.0334 18.5262 44.935 18.3293Z" fill="#E27D47"/>
<path d="M36.3703 42.6676H11.6297C11.318 42.6676 11.0555 42.4133 11.0555 42.0934V40.543C11.0555 40.2312 11.3098 39.9688 11.6297 39.9688H36.3703C36.682 39.9688 36.9445 40.223 36.9445 40.543V42.0934C36.9445 42.4133 36.6902 42.6676 36.3703 42.6676Z" fill="#DAE4EA"/>
<path d="M36.4934 31.8891C36.4934 32.4797 36.0094 32.9637 35.4188 32.9637H33.0563V31.9465C33.0563 31.323 33.5648 30.8145 34.1883 30.8145H35.4188C36.0176 30.8145 36.4934 31.2902 36.4934 31.8891Z" fill="#E28086"/>
<path d="M12.5812 32.9637H14.9437V31.9465C14.9437 31.323 14.4352 30.8145 13.8117 30.8145H12.5812C11.9906 30.8145 11.5066 31.2984 11.5066 31.8891C11.5066 32.4797 11.9824 32.9637 12.5812 32.9637Z" fill="#E28086"/>
<path d="M20.3332 39.9775H27.6668V42.6682H20.3332V39.9775Z" fill="#808B95"/>
<path d="M16.2398 44.9238H13.3195C12.8684 44.9238 12.5074 44.5629 12.5074 44.1117V42.668H17.052V44.1117C17.052 44.5629 16.691 44.9238 16.2398 44.9238Z" fill="#808B95"/>
<path d="M33.0562 32.9639L31.7109 28.2225C31.3746 27.0248 30.2754 26.1963 29.0285 26.1963H18.9715C17.7246 26.1963 16.6254 27.0248 16.2891 28.2225L14.9437 32.9639H33.0562Z" fill="#E28086"/>
<path d="M31.7109 28.2225C31.3746 27.0248 30.2754 26.1963 29.0285 26.1963H28.2902C28.3477 26.3193 28.3969 26.4506 28.4297 26.5818L28.8727 28.1322C29.3238 29.7318 28.1262 31.3233 26.4609 31.3233H15.4113L14.9437 32.9639H33.0562L31.7109 28.2225Z" fill="#DD636E"/>
<path d="M17.1668 32.9639L18.3398 28.8049C18.4219 28.526 18.6762 28.3291 18.9715 28.3291H29.0285C29.3156 28.3291 29.5781 28.526 29.6602 28.8049L30.8414 32.9639H17.1668Z" fill="#D5D8F1"/>
<path d="M17.1668 32.9639H30.8332L29.6602 28.8049C29.5781 28.526 29.3238 28.3291 29.0285 28.3291H28.9219C29.2254 29.8549 28.0605 31.3232 26.4691 31.3232H17.6344L17.1668 32.9639Z" fill="#BEC3EA"/>
<path d="M33.2695 32.9639H14.7305C13.2047 32.9639 11.9496 34.1533 11.8676 35.6791L11.6461 39.9775H36.3457L36.1242 35.6791C36.0504 34.1533 34.7871 32.9639 33.2695 32.9639Z" fill="#E28086"/>
<path d="M36.1242 35.6791C36.0422 34.1533 34.7871 32.9639 33.2613 32.9639H32.5723C32.7281 33.292 32.8266 33.6529 32.843 34.0385L32.9332 35.7775C33.007 37.1639 31.8996 38.3369 30.5051 38.3369H11.7363L11.6543 39.9775H36.3539L36.1242 35.6791Z" fill="#DD636E"/>
<path d="M16.1004 35.1459H14.5008C14.4023 35.1459 14.3121 35.2279 14.3121 35.3346V36.401C14.3121 37.2049 14.9602 37.8529 15.7641 37.8529H18.5367C18.6352 37.8529 18.7254 37.7709 18.7254 37.6643V35.3264C18.7254 35.2279 18.6434 35.1377 18.5367 35.1377H16.1004V35.1459Z" fill="#F6F9F9"/>
<path d="M33.4992 35.1455H29.4633C29.3648 35.1455 29.2746 35.2275 29.2746 35.3342V37.6639C29.2746 37.7623 29.3566 37.8525 29.4633 37.8525H32.4164C33.1137 37.8525 33.6879 37.2865 33.6879 36.5811C33.6879 36.5811 33.6879 35.7197 33.6879 35.326C33.6879 35.2275 33.5977 35.1455 33.4992 35.1455Z" fill="#F6F9F9"/>
<path d="M31.9652 37.8529H32.4164C33.1137 37.8529 33.6879 37.2869 33.6879 36.5814C33.6879 36.5814 33.6879 35.7201 33.6879 35.3264C33.6879 35.2279 33.6059 35.1377 33.4992 35.1377H32.9004L32.9332 35.7693C32.9824 36.6225 32.5887 37.3853 31.9652 37.8529Z" fill="#E7ECF1"/>
<path d="M25.2059 38.0166H22.8023C21.6867 38.0166 20.7762 37.1143 20.7762 35.9904V35.3588C20.7762 35.2439 20.8746 35.1455 20.9895 35.1455H27.0105C27.1254 35.1455 27.2238 35.2439 27.2238 35.3588V35.9904C27.2238 37.1061 26.3215 38.0166 25.2059 38.0166Z" fill="#808B95"/>
<path d="M34.6805 44.9238H31.7602C31.309 44.9238 30.948 44.5629 30.948 44.1117V42.668H35.4926V44.1117C35.4926 44.5629 35.1316 44.9238 34.6805 44.9238Z" fill="#808B95"/>
<path d="M39.6024 21.3477V23.7348H8.39766V21.3477H39.6024Z" fill="#DAE4EA"/>
<path d="M35.0004 13.3664H31.875C31.8094 13.3664 31.7438 13.3336 31.7109 13.268L31.3828 12.702C31.35 12.6445 31.35 12.5707 31.3828 12.5133L31.7109 11.9473C31.7438 11.8898 31.8094 11.8488 31.875 11.8488H35.0004C35.1398 11.8488 35.2793 11.8078 35.3941 11.7258C35.6156 11.5535 35.6895 11.2664 35.5992 11.0203C34.943 9.29766 33.2613 8.13281 31.4156 8.13281C29.9473 8.13281 28.5773 8.85469 27.7406 10.0605C27.552 10.3312 27.2238 10.4953 26.8711 10.4953H21.1289C20.7762 10.4953 20.448 10.3312 20.2594 10.0605C19.4309 8.85469 18.0527 8.13281 16.5844 8.13281C14.7387 8.13281 13.0652 9.28945 12.409 11.0039C12.3598 11.1352 12.3516 11.2746 12.3926 11.4141C12.4746 11.6848 12.7207 11.8488 12.9832 11.8488H16.125C16.1906 11.8488 16.2563 11.8816 16.2891 11.9473L16.6172 12.5133C16.65 12.5707 16.65 12.6445 16.6172 12.702L16.2891 13.268C16.2563 13.3254 16.1906 13.3664 16.125 13.3664H12.9996C12.8602 13.3664 12.7207 13.4074 12.6059 13.4895C12.3844 13.6617 12.3105 13.9488 12.4008 14.1949C13.057 15.9176 14.7387 17.0742 16.5844 17.0742C18.0527 17.0742 19.4227 16.3523 20.2594 15.1465C20.448 14.8758 20.7762 14.7117 21.1289 14.7117H26.8711C27.2238 14.7117 27.552 14.8758 27.7406 15.1465C28.5773 16.3523 29.9473 17.0742 31.4156 17.0742C33.2613 17.0742 34.943 15.9176 35.5992 14.1949C35.6895 13.9488 35.6238 13.6617 35.3941 13.4895C35.2793 13.3992 35.1398 13.3664 35.0004 13.3664Z" fill="#DAE4EA"/>
<path d="M44.3848 44.9316H3.61523C3.27891 44.9316 3 45.2105 3 45.5469V47.3844C3 47.7207 3.27891 47.9996 3.61523 47.9996H44.3848C44.7211 47.9996 45 47.7207 45 47.3844V45.5469C45 45.2105 44.7211 44.9316 44.3848 44.9316Z" fill="#DAE4EA"/>
</g>
<defs>
<clipPath id="clip0">
<rect width="42" height="42" fill="white" transform="translate(3 6)"/>
</clipPath>
</defs>
</svg>
