<svg width="48" height="48" viewBox="0 0 48 48" fill="none" xmlns="http://www.w3.org/2000/svg">
<circle cx="24" cy="24" r="24" fill="#FFC93F"/>
<g clip-path="url(#clip0)">
<path d="M31.1531 25.4484L27.7898 19.8129C26.9367 18.3855 25.2387 17.6965 23.6309 18.123L10.6945 21.5929C9.08672 22.0195 7.96289 23.4715 7.93828 25.1285L7.84805 31.691L31.1531 25.4484Z" fill="#E28086"/>
<path d="M27.7898 19.8128C27.0762 18.6152 25.7555 17.9343 24.4019 18.0081C24.4348 18.0656 24.4758 18.1148 24.5086 18.1722L26.1984 21.0105C27.0351 22.4132 26.2969 24.2261 24.7219 24.6527L7.88906 29.1644L7.85625 31.6909L31.1613 25.4484L27.7898 19.8128Z" fill="#DD636E"/>
<path d="M31.4238 25.3746L7.57734 31.7648C5.6168 32.2898 4.41094 34.2586 4.8293 36.2437L6.01875 41.8547L37.8059 33.3398L36.034 27.8847C35.4106 25.9488 33.3844 24.8496 31.4238 25.3746Z" fill="#E28086"/>
<path d="M36.0422 27.8848C35.509 26.2278 33.9422 25.186 32.2688 25.2516C32.4738 25.5469 32.6461 25.8832 32.761 26.2442L33.9832 30.0012C34.2867 30.9282 33.7453 31.9125 32.8102 32.1586L5.51836 39.4676L6.02696 41.8547L37.8141 33.3399L36.0422 27.8848Z" fill="#DD636E"/>
<path d="M38.7656 36.7932L6.9293 45.3245C6.52734 45.4311 6.10898 45.1932 6.00234 44.7913L5.46094 42.7897C5.3543 42.3878 5.59219 41.9694 5.99414 41.8628L37.8305 33.3315C38.2324 33.2249 38.6508 33.4627 38.7574 33.8647L39.2906 35.8663C39.4137 36.2682 39.1676 36.6866 38.7656 36.7932Z" fill="#DAE4EA"/>
<path d="M39.2988 35.8663L38.7656 33.8647C38.659 33.4628 38.2406 33.2167 37.8387 33.3315L35.7141 33.8975L36.0176 35.046C36.1242 35.4479 35.8863 35.8663 35.4844 35.9729L5.77265 43.9382L6.00234 44.7913C6.10898 45.1932 6.52734 45.4393 6.92929 45.3245L38.7656 36.7932C39.1676 36.6866 39.4137 36.2682 39.2988 35.8663Z" fill="#C6D0DA"/>
<path d="M35.2055 22.8809C35.4105 23.6438 34.9594 24.4313 34.1883 24.6364L31.1449 25.4485L30.7922 24.136C30.5789 23.3321 31.0547 22.5036 31.8586 22.2903L33.4418 21.8638C34.2129 21.6587 35.0004 22.1099 35.2055 22.8809Z" fill="#E28086"/>
<path d="M4.80469 32.5031L7.84805 31.691L7.49531 30.3785C7.28203 29.5745 6.45351 29.0988 5.64961 29.312L4.0664 29.7386C3.30351 29.9437 2.85234 30.7312 3.04922 31.4941C3.2543 32.257 4.0418 32.7082 4.80469 32.5031Z" fill="#E28086"/>
<path d="M17.2078 38.8605L26.6414 36.334L27.5684 39.8039L18.1348 42.3305L17.2078 38.8605Z" fill="#808B95"/>
<path d="M26.6332 36.3258L24.5414 36.8836L24.7793 37.7614C24.9598 38.434 24.5578 39.1149 23.8934 39.2953L17.7574 40.936L18.1266 42.3141L27.5602 39.7875L26.6332 36.3258Z" fill="#5E6B75"/>
<path d="M13.7215 46.6125L9.80039 47.6625C9.20977 47.8184 8.60274 47.4738 8.44688 46.8832L7.95469 45.0457L14.0086 43.4215L14.5008 45.259C14.6566 45.8496 14.3121 46.4567 13.7215 46.6125Z" fill="#808B95"/>
<path d="M28.643 26.1211L25.575 20.9777C25.3371 20.5757 24.8613 20.3871 24.4102 20.5101L11.2113 24.0457C10.7602 24.1687 10.4484 24.5707 10.4402 25.0382L10.3582 31.0265L28.643 26.1211Z" fill="#D5D8F1"/>
<path d="M26.5266 22.5773C26.4035 23.5206 25.7391 24.3738 24.7219 24.6445L10.391 28.4917L10.3582 31.0183L19.4965 28.5656L28.643 26.121L26.5266 22.5773Z" fill="#BEC3EA"/>
<path d="M7.65117 35.4727L8.02852 36.8754C8.26641 37.7777 9.19336 38.3109 10.0957 38.073L10.7684 37.8926L9.8332 34.4062L7.9793 34.9066C7.7332 34.9723 7.58555 35.2266 7.65117 35.4727Z" fill="#EAAA89"/>
<path d="M14.5828 36.3913L13.8855 33.8073C13.8199 33.5612 13.5656 33.4136 13.3195 33.4792L9.8332 34.4062L10.7684 37.8843L14.2629 36.9491C14.5008 36.8917 14.6484 36.6374 14.5828 36.3913Z" fill="#F6F9F9"/>
<path d="M32.6379 28.2948C32.884 28.2291 33.1383 28.3768 33.2039 28.6229C33.3516 29.1725 33.5812 30.0256 33.5812 30.0256C33.8191 30.928 33.2859 31.8549 32.3836 32.0928L31.7109 32.2733L30.7758 28.7952L32.6379 28.2948Z" fill="#EAAA89"/>
<path d="M27.6668 32.8804L26.9695 30.2965C26.9039 30.0504 27.0516 29.7961 27.2977 29.7304L30.7922 28.7953L31.7273 32.2734L28.2328 33.2086C27.9867 33.2742 27.7324 33.1265 27.6668 32.8804Z" fill="#F6F9F9"/>
<path d="M23.0402 34.9804L19.6441 35.8909C18.0691 36.3175 16.4449 35.3741 16.0184 33.7991L15.8215 33.0527C15.7559 32.8066 15.9035 32.5523 16.1496 32.4866L24.3691 30.28C24.6152 30.2144 24.8695 30.362 24.9351 30.6081L25.1402 31.3546C25.5504 32.9296 24.6152 34.5538 23.0402 34.9804Z" fill="#808B95"/>
<path d="M19.6359 35.8909L23.032 34.9804C23.393 34.882 23.7211 34.7261 24.0082 34.5128L18.5531 35.973C18.9141 36.014 19.275 35.9894 19.6359 35.8909Z" fill="#5E6B75"/>
<path d="M43.9008 41.4364H35.1727C34.5656 41.4364 34.0652 41.9286 34.0652 42.5438V46.6044C34.0652 47.2114 34.5574 47.7118 35.1727 47.7118H43.8926C44.4996 47.7118 45 47.2196 45 46.6044V42.5438C45 41.9286 44.5078 41.4364 43.9008 41.4364Z" fill="#808B95"/>
<path d="M43.9008 41.4364H41.7188V43.3641C41.7188 44.8571 40.5047 46.0712 39.0117 46.0712H34.0734V46.6044C34.0734 47.2114 34.5656 47.7118 35.1809 47.7118H43.9008C44.5078 47.7118 45 47.2196 45 46.6044V42.5438C45 41.9286 44.5078 41.4364 43.9008 41.4364Z" fill="#5E6B75"/>
<path d="M28.6184 42.8555H26.4937C26.1 42.8555 25.7801 43.1754 25.7801 43.5691V47.7035H29.332V43.5691C29.3238 43.1754 29.0121 42.8555 28.6184 42.8555Z" fill="#707DD3"/>
<path d="M26.5266 40.0746V42.8555H28.5855V39.525L26.5266 40.0746Z" fill="#5766CB"/>
<path d="M29.9965 47.7035H25.0992C24.7629 47.7035 24.484 47.4246 24.484 47.0883C24.484 46.7519 24.7629 46.473 25.0992 46.473H29.9965C30.3328 46.473 30.6117 46.7519 30.6117 47.0883C30.6117 47.4246 30.341 47.7035 29.9965 47.7035Z" fill="#DAE4EA"/>
<path d="M11.4082 44.1269L12.1875 47.0308L13.377 46.7109L12.5977 43.807L11.4082 44.1269Z" fill="#5E6B75"/>
<path d="M9.36562 44.6765L10.1449 47.5804L11.3344 47.2605L10.5551 44.3566L9.36562 44.6765Z" fill="#5E6B75"/>
<path d="M34.0734 42.8965H45V44.127H34.0734V42.8965ZM34.0734 45.0129V46.2434H45V45.0129H34.0734Z" fill="#5E6B75"/>
<path d="M39.0117 46.0629H34.0734V46.2434H45V45.0129H41.1527C40.6605 45.6528 39.8813 46.0629 39.0117 46.0629Z" fill="#4D5961"/>
<path d="M41.7187 43.3559C41.7187 43.6184 41.6777 43.8809 41.6121 44.1188H45V42.8883H41.7187V43.3559Z" fill="#4D5961"/>
<path d="M39.0117 46.0629H34.0734V46.2434H45V45.0129H41.1527C40.6605 45.6528 39.8813 46.0629 39.0117 46.0629Z" fill="#4D5961"/>
<path d="M41.7187 43.3559C41.7187 43.6184 41.6777 43.8809 41.6121 44.1188H45V42.8883H41.7187V43.3559Z" fill="#4D5961"/>
<path d="M19.4719 34.2915C19.2012 34.2915 18.9551 34.111 18.8812 33.8321C18.791 33.504 18.9879 33.1677 19.316 33.0775L21.9164 32.3802C22.2445 32.29 22.5809 32.4868 22.6711 32.815C22.7613 33.1431 22.5645 33.4794 22.2363 33.5696L19.6359 34.2669C19.5785 34.2833 19.5211 34.2915 19.4719 34.2915Z" fill="#DAE4EA"/>
</g>
<defs>
<clipPath id="clip0">
<rect width="42" height="29.7035" fill="white" transform="translate(3 18)"/>
</clipPath>
</defs>
</svg>
