<svg width="48" height="48" viewBox="0 0 48 48" fill="none" xmlns="http://www.w3.org/2000/svg">
<rect width="48" height="48" rx="24" fill="#FFC93F"/>
<g clip-path="url(#clip0)">
<path d="M39.6387 7.38867V42.1289C39.6387 43.7121 38.3508 45 36.7676 45H11.8711C10.2797 45 9 43.7121 9 42.1289V7.38867C9 5.79727 10.2879 4.51758 11.8711 4.51758H36.7594C38.359 4.51758 39.6387 5.80547 39.6387 7.38867Z" fill="#FF9F50"/>
<path d="M31.6899 4.51758V8.88984C31.6899 9.44766 31.2387 9.89883 30.6809 9.89883H17.966C17.4082 9.89883 16.957 9.44766 16.957 8.88984V4.51758H31.6899Z" fill="#E0701E"/>
<path d="M10.7391 42.375V7.14253C10.7391 6.58472 11.1902 6.13354 11.7481 6.13354H36.8906C37.4484 6.13354 37.8996 6.58472 37.8996 7.14253V42.375C37.8996 42.9328 37.4484 43.3839 36.8906 43.3839H11.7481C11.1902 43.3839 10.7391 42.9328 10.7391 42.375Z" fill="#E0701E"/>
<path d="M36.8086 7.7332V41.7844C36.8086 42.0633 36.5789 42.293 36.3 42.293H12.3387C12.0598 42.293 11.8301 42.0633 11.8301 41.7844V7.7332C11.8301 7.4543 12.0598 7.22461 12.3387 7.22461H36.3C36.5789 7.23281 36.8086 7.4543 36.8086 7.7332Z" fill="#DDEDE5"/>
<path d="M31.6898 7.23267V8.8897C31.6898 9.44751 31.2387 9.89868 30.6809 9.89868H17.966C17.4082 9.89868 16.957 9.44751 16.957 8.8897V7.23267H31.6898Z" fill="#AFC3C3"/>
<path d="M30.0902 8.80781H18.5566C18.2777 8.80781 18.048 8.57812 18.048 8.29922V3.50859C18.048 3.22969 18.2777 3 18.5566 3H30.0902C30.3691 3 30.5988 3.22969 30.5988 3.50859V8.29922C30.5906 8.57812 30.3691 8.80781 30.0902 8.80781Z" fill="#618BAA"/>
<path d="M30.5906 4.14023H18.0398V3.50859C18.0398 3.22969 18.2695 3 18.5484 3H30.082C30.3609 3 30.5906 3.22969 30.5906 3.50859V4.14023Z" fill="#89B4C9"/>
<path d="M20.9027 6.7897C21.392 6.7897 21.7887 6.39305 21.7887 5.90376C21.7887 5.41447 21.392 5.01782 20.9027 5.01782C20.4134 5.01782 20.0168 5.41447 20.0168 5.90376C20.0168 6.39305 20.4134 6.7897 20.9027 6.7897Z" fill="#35696A"/>
<path d="M28.2855 6.53525H24.3234C23.9707 6.53525 23.6918 6.24814 23.6918 5.90361C23.6918 5.55908 23.9789 5.27197 24.3234 5.27197H28.2855C28.6383 5.27197 28.9172 5.55908 28.9172 5.90361C28.9172 6.24814 28.6301 6.53525 28.2855 6.53525Z" fill="#35696A"/>
<path d="M21.4688 23.6388H20.9027C20.55 23.6388 20.2711 23.3517 20.2711 23.0071C20.2711 22.6544 20.5582 22.3755 20.9027 22.3755H21.4688C21.8215 22.3755 22.1004 22.6626 22.1004 23.0071C22.1004 23.3599 21.8133 23.6388 21.4688 23.6388Z" fill="#35696A"/>
<path d="M32.2723 23.6388H24.75C24.3973 23.6388 24.1184 23.3517 24.1184 23.0071C24.1184 22.6544 24.4055 22.3755 24.75 22.3755H32.2641C32.6168 22.3755 32.8957 22.6626 32.8957 23.0071C32.9039 23.3599 32.6168 23.6388 32.2723 23.6388Z" fill="#35696A"/>
<path d="M32.2723 25.6075H30.484C30.1312 25.6075 29.8523 25.3204 29.8523 24.9759C29.8523 24.6313 30.1394 24.3442 30.484 24.3442H32.2723C32.625 24.3442 32.9039 24.6313 32.9039 24.9759C32.9039 25.3204 32.6168 25.6075 32.2723 25.6075Z" fill="#35696A"/>
<path d="M28.4168 25.6075H20.9027C20.55 25.6075 20.2711 25.3204 20.2711 24.9759C20.2711 24.6313 20.5582 24.3442 20.9027 24.3442H28.4168C28.7695 24.3442 29.0485 24.6313 29.0485 24.9759C29.0485 25.3204 28.7695 25.6075 28.4168 25.6075Z" fill="#35696A"/>
<path d="M16.4812 25.4601C16.3172 25.4601 16.1613 25.3945 16.0301 25.2714L15.2918 24.5332C15.0457 24.2871 15.0457 23.8851 15.2918 23.639C15.5379 23.3929 15.9398 23.3929 16.1859 23.639L16.473 23.9261L17.6953 22.7039C17.9414 22.4578 18.3434 22.4578 18.5895 22.7039C18.8355 22.95 18.8355 23.3519 18.5895 23.598L16.9242 25.2632C16.8094 25.3945 16.6453 25.4601 16.4812 25.4601Z" fill="#159BFF"/>
<path d="M21.4688 29.3485H20.9027C20.55 29.3485 20.2711 29.0614 20.2711 28.7168C20.2711 28.3723 20.5582 28.0852 20.9027 28.0852H21.4688C21.8215 28.0852 22.1004 28.3723 22.1004 28.7168C22.1004 29.0614 21.8133 29.3485 21.4688 29.3485Z" fill="#35696A"/>
<path d="M32.2723 29.3485H24.75C24.3973 29.3485 24.1184 29.0614 24.1184 28.7168C24.1184 28.3723 24.4055 28.0852 24.75 28.0852H32.2641C32.6168 28.0852 32.8957 28.3723 32.8957 28.7168C32.8957 29.0614 32.6168 29.3485 32.2723 29.3485Z" fill="#35696A"/>
<path d="M32.2723 31.3089H30.484C30.1312 31.3089 29.8523 31.0218 29.8523 30.6773C29.8523 30.3328 30.1394 30.0457 30.484 30.0457H32.2723C32.625 30.0457 32.9039 30.3328 32.9039 30.6773C32.9039 31.0218 32.6168 31.3089 32.2723 31.3089Z" fill="#35696A"/>
<path d="M28.4168 31.3089H20.9027C20.55 31.3089 20.2711 31.0218 20.2711 30.6773C20.2711 30.3328 20.5582 30.0457 20.9027 30.0457H28.4168C28.7695 30.0457 29.0485 30.3328 29.0485 30.6773C29.0485 31.0218 28.7695 31.3089 28.4168 31.3089Z" fill="#35696A"/>
<path d="M16.4812 31.1613C16.3172 31.1613 16.1613 31.0957 16.0301 30.9726L15.2918 30.2343C15.0457 29.9882 15.0457 29.5863 15.2918 29.3402C15.5379 29.0941 15.9398 29.0941 16.1859 29.3402L16.473 29.6273L17.6953 28.405C17.9414 28.1589 18.3434 28.1589 18.5895 28.405C18.8355 28.6511 18.8355 29.0531 18.5895 29.2992L16.9242 30.9644C16.8094 31.1039 16.6453 31.1613 16.4812 31.1613Z" fill="#159BFF"/>
<path d="M21.4688 35.058H20.9027C20.55 35.058 20.2711 34.7709 20.2711 34.4263C20.2711 34.0818 20.5582 33.7947 20.9027 33.7947H21.4688C21.8215 33.7947 22.1004 34.0818 22.1004 34.4263C22.1004 34.7709 21.8133 35.058 21.4688 35.058Z" fill="#35696A"/>
<path d="M32.2723 35.058H24.75C24.3973 35.058 24.1184 34.7709 24.1184 34.4263C24.1184 34.0818 24.4055 33.7947 24.75 33.7947H32.2641C32.6168 33.7947 32.8957 34.0818 32.8957 34.4263C32.8957 34.7709 32.6168 35.058 32.2723 35.058Z" fill="#35696A"/>
<path d="M32.2723 37.0187H30.484C30.1312 37.0187 29.8523 36.7315 29.8523 36.387C29.8523 36.0425 30.1394 35.7554 30.484 35.7554H32.2723C32.625 35.7554 32.9039 36.0425 32.9039 36.387C32.9039 36.7315 32.6168 37.0187 32.2723 37.0187Z" fill="#35696A"/>
<path d="M28.4168 37.0187H20.9027C20.55 37.0187 20.2711 36.7315 20.2711 36.387C20.2711 36.0425 20.5582 35.7554 20.9027 35.7554H28.4168C28.7695 35.7554 29.0485 36.0425 29.0485 36.387C29.0485 36.7315 28.7695 37.0187 28.4168 37.0187Z" fill="#35696A"/>
<path d="M16.4812 36.8708C16.3172 36.8708 16.1613 36.8051 16.0301 36.6821L15.2918 35.9438C15.0457 35.6977 15.0457 35.2958 15.2918 35.0497C15.5379 34.8036 15.9398 34.8036 16.1859 35.0497L16.473 35.3368L17.6953 34.1145C17.9414 33.8684 18.3434 33.8684 18.5895 34.1145C18.8355 34.3606 18.8355 34.7626 18.5895 35.0086L16.9242 36.6739C16.8094 36.8051 16.6453 36.8708 16.4812 36.8708Z" fill="#159BFF"/>
<path d="M18.7781 14.1971H18.2121C17.8594 14.1971 17.5805 13.91 17.5805 13.5655C17.5805 13.2127 17.8676 12.9338 18.2121 12.9338H18.7781C19.1309 12.9338 19.4098 13.2209 19.4098 13.5655C19.4098 13.91 19.1226 14.1971 18.7781 14.1971Z" fill="#35696A"/>
<path d="M25.4801 14.1971H20.9027C20.55 14.1971 20.2711 13.91 20.2711 13.5655C20.2711 13.2127 20.5582 12.9338 20.9027 12.9338H25.4801C25.8328 12.9338 26.1117 13.2209 26.1117 13.5655C26.1117 13.91 25.8246 14.1971 25.4801 14.1971Z" fill="#35696A"/>
<path d="M18.7781 16.4776H18.2121C17.8594 16.4776 17.5805 16.1905 17.5805 15.846C17.5805 15.5015 17.8676 15.2144 18.2121 15.2144H18.7781C19.1309 15.2144 19.4098 15.5015 19.4098 15.846C19.4098 16.1905 19.1226 16.4776 18.7781 16.4776Z" fill="#35696A"/>
<path d="M25.4801 16.4776H20.9027C20.55 16.4776 20.2711 16.1905 20.2711 15.846C20.2711 15.5015 20.5582 15.2144 20.9027 15.2144H25.4801C25.8328 15.2144 26.1117 15.5015 26.1117 15.846C26.1117 16.1905 25.8246 16.4776 25.4801 16.4776Z" fill="#35696A"/>
<path d="M31.575 19.5782H17.0719C16.7191 19.5782 16.4402 19.2911 16.4402 18.9466C16.4402 18.6021 16.7273 18.3149 17.0719 18.3149H31.575C31.9277 18.3149 32.2066 18.6021 32.2066 18.9466C32.2066 19.2911 31.9195 19.5782 31.575 19.5782Z" fill="#35696A"/>
</g>
<defs>
<clipPath id="clip0">
<rect width="30.6387" height="42" fill="white" transform="translate(9 3)"/>
</clipPath>
</defs>
</svg>
