<svg width="48" height="48" viewBox="0 0 48 48" fill="none" xmlns="http://www.w3.org/2000/svg">
<path d="M48 24C48 32.2969 43.7906 39.6094 37.3969 43.9219C35.8969 44.925 34.2844 45.7688 32.5781 46.425C29.9062 47.4375 27.0187 48 24 48C20.4937 48 17.1562 47.25 14.1469 45.8906C12.525 45.1594 10.9875 44.25 9.58125 43.1906C3.75937 38.8125 0 31.8469 0 24C0 21.5344 0.375 19.1531 1.05938 16.9219C4.0875 7.11563 13.2094 0 24 0C34.7906 0 43.9125 7.11563 46.9406 16.9219C47.625 19.1531 48 21.5344 48 24Z" fill="#55D485"/>
<path d="M35.9625 28.9125C39.3849 28.9125 42.1594 27.7708 42.1594 26.3625C42.1594 24.9542 39.3849 23.8125 35.9625 23.8125C32.5401 23.8125 29.7656 24.9542 29.7656 26.3625C29.7656 27.7708 32.5401 28.9125 35.9625 28.9125Z" fill="#10995B"/>
<path d="M44.8219 29.8316C44.7281 30.3191 44.5125 30.7691 44.175 31.116C43.8375 31.4629 43.425 31.716 42.9844 31.9129C42.0094 32.3629 40.9312 32.5879 39.8812 32.7566C38.7844 32.9348 37.6687 33.0473 36.5531 33.1316C35.4375 33.216 34.3125 33.291 33.1875 33.3473C30.9469 33.4598 28.7062 33.5348 26.475 33.666C24.2625 33.7879 22.05 33.9379 19.8563 34.2941C18.8063 34.4629 17.7469 34.6691 16.7531 35.0535C16.3031 35.2223 15.7969 35.4285 15.4594 35.7848C15.3375 35.916 15.3 36.0191 15.3375 36.1879C15.3938 36.4035 15.5063 36.6004 15.6188 36.7785C15.9 37.2191 16.2656 37.6129 16.6313 37.9785C16.7344 38.0816 16.8469 38.1848 16.95 38.2879C17.0063 38.3441 17.0438 38.3535 17.1188 38.391C17.5688 38.5879 18.075 38.6535 18.5625 38.7191C19.0969 38.7848 19.6313 38.8316 20.175 38.8598C21.1219 38.916 22.0781 38.9348 23.0344 38.9629C25.1719 39.0285 27.3187 39.1035 29.4375 39.441C31.4719 39.7691 33.5344 40.3598 35.2219 41.5879C36.0469 42.1879 36.7781 42.9379 37.3125 43.8098C37.3312 43.8379 37.3406 43.8566 37.3594 43.8848C37.3875 43.9316 37.3875 43.9129 37.3594 43.9504C37.3312 43.9879 37.2562 44.016 37.2094 44.0535C37.0969 44.1285 36.9844 44.2035 36.8625 44.2785C36.6469 44.4191 36.4312 44.5504 36.2062 44.6816C35.7656 44.9441 35.3156 45.1879 34.8562 45.4223C34.3875 45.6566 33.9094 45.8816 33.4219 46.0879C33.1875 46.191 32.9531 46.2848 32.7187 46.3785C32.6719 46.3973 32.5687 46.4535 32.5406 46.4254C32.5031 46.3973 32.4844 46.2941 32.4562 46.2566C32.4 46.1441 32.3344 46.041 32.2594 45.9473C31.6781 45.1598 30.7125 44.691 29.8219 44.3441C28.8187 43.9598 27.7781 43.6973 26.7281 43.491C25.6406 43.2754 24.5438 43.116 23.4469 42.9754C22.3688 42.8348 21.2906 42.7129 20.2125 42.5723C19.1531 42.4316 18.0938 42.2723 17.0719 41.9816C16.2188 41.7379 15.375 41.3816 14.7281 40.7535C14.5688 40.5941 14.4281 40.4254 14.2781 40.2566C13.9313 39.8535 13.6125 39.441 13.3219 39.0004C12.7969 38.1941 12.375 37.2754 12.3563 36.3004C12.3375 35.2504 12.8344 34.2848 13.65 33.6285C14.4563 32.9816 15.4781 32.6254 16.4813 32.3816C17.5313 32.1285 18.6 31.9879 19.6688 31.8848C21.8719 31.6785 24.0938 31.641 26.3062 31.6223C28.5469 31.6035 30.7875 31.6129 33.0281 31.5754C35.2406 31.5379 37.4719 31.4816 39.6656 31.1629C40.2 31.0879 40.7437 30.9941 41.2687 30.8535C41.7562 30.7316 42.2625 30.5723 42.6937 30.3098C42.8812 30.1973 43.0687 30.0566 43.1812 29.8598C43.2844 29.6723 43.3312 29.4285 43.3031 29.2223C43.2375 28.7629 42.7875 28.4535 42.4219 28.2379C41.9812 27.9848 41.4937 27.816 41.0062 27.6848C40.9687 27.6754 40.425 27.5066 40.4062 27.5441C40.4062 27.4691 40.4437 27.3754 40.4531 27.3004C40.4906 27.1223 40.5281 26.9535 40.5656 26.7754C40.6031 26.6066 40.6406 26.4379 40.6781 26.2598C40.6781 26.2504 40.725 26.0254 40.7344 26.0254C40.7344 26.0535 41.1656 26.1379 41.2031 26.1473C41.6719 26.2691 42.1312 26.4098 42.5719 26.5973C43.3781 26.9441 44.1844 27.4598 44.5969 28.266C44.8594 28.7441 44.9344 29.3066 44.8219 29.8316Z" fill="#10995B"/>
<path d="M46.9406 16.9219H1.05937C4.0875 7.11563 13.2094 0 24 0C34.7906 0 43.9125 7.11563 46.9406 16.9219Z" fill="#4473C5"/>
<path d="M23.0531 30.4689L14.1469 45.8908C12.525 45.1596 10.9875 44.2502 9.58125 43.1908L2.24063 30.4689C-0.628119 25.5002 0.506256 19.7533 4.00313 16.1158C6.13126 13.8939 9.14063 12.4502 12.6469 12.4502C21.8906 12.4502 27.675 22.4627 23.0531 30.4689Z" fill="#F75454"/>
<path d="M18.9094 24.4686C18.9094 27.4123 16.875 29.8873 14.1281 30.5529C13.65 30.6654 13.1625 30.7311 12.6469 30.7311C9.18751 30.7311 6.38438 27.9279 6.38438 24.4686C6.38438 21.0092 9.18751 18.2061 12.6469 18.2061C13.1531 18.2061 13.65 18.2623 14.1281 18.3842C16.8656 19.0498 18.9094 21.5154 18.9094 24.4686Z" fill="#BCE6F5"/>
<path d="M18.9094 24.4691C18.9094 27.4129 16.875 29.8879 14.1281 30.5535C11.3813 29.8879 9.34688 27.4223 9.34688 24.4691C9.34688 21.5254 11.3813 19.0504 14.1281 18.3848C16.8656 19.0504 18.9094 21.516 18.9094 24.4691Z" fill="white"/>
<path d="M35.9625 26.3625L43.575 13.1813C46.9594 7.32188 42.7312 0 35.9625 0C29.1937 0 24.9656 7.32188 28.35 13.1813L35.9625 26.3625Z" fill="#F75454"/>
<path d="M40.5469 8.78437C40.5469 10.9406 39.0562 12.75 37.05 13.2375C36.7031 13.3219 36.3375 13.3688 35.9719 13.3688C33.4406 13.3688 31.3969 11.3156 31.3969 8.79375C31.3969 6.2625 33.45 4.21875 35.9719 4.21875C36.3469 4.21875 36.7031 4.26563 37.05 4.35C39.0562 4.82813 40.5469 6.62812 40.5469 8.78437Z" fill="#BCE6F5"/>
<path d="M40.5469 8.78418C40.5469 10.9404 39.0562 12.7498 37.05 13.2373C35.0437 12.7498 33.5531 10.9404 33.5531 8.78418C33.5531 6.62793 35.0437 4.81855 37.05 4.33105C39.0562 4.82793 40.5469 6.62793 40.5469 8.78418Z" fill="white"/>
</svg>
