<svg width="48" height="48" viewBox="0 0 48 48" fill="none" xmlns="http://www.w3.org/2000/svg">
<rect width="48" height="48" rx="24" fill="#FFC93F"/>
<g clip-path="url(#clip0)">
<path d="M39.6387 7.38867V42.1289C39.6387 43.7121 38.3508 45 36.7676 45H11.8711C10.2797 45 9 43.7121 9 42.1289V7.38867C9 5.79727 10.2879 4.51758 11.8711 4.51758H36.7594C38.359 4.51758 39.6387 5.80547 39.6387 7.38867Z" fill="#86A5A6"/>
<path d="M31.6898 4.51758V8.88984C31.6898 9.44766 31.2387 9.89883 30.6809 9.89883H17.966C17.4082 9.89883 16.957 9.44766 16.957 8.88984V4.51758H31.6898Z" fill="#5F8888"/>
<path d="M10.7391 42.375V7.14253C10.7391 6.58472 11.1902 6.13354 11.7481 6.13354H36.8906C37.4484 6.13354 37.8996 6.58472 37.8996 7.14253V33.5812C37.8996 33.8519 37.793 34.1062 37.6043 34.2949L28.8188 43.0886C28.6301 43.2773 28.3676 43.3839 28.1051 43.3839H11.7481C11.1902 43.3839 10.7391 42.9328 10.7391 42.375Z" fill="#5F8888"/>
<path d="M36.8086 7.7332V33.5484L28.0723 42.2848H12.3387C12.0598 42.2848 11.8301 42.0551 11.8301 41.7762V7.7332C11.8301 7.4543 12.0598 7.22461 12.3387 7.22461H36.3C36.5789 7.23281 36.8086 7.4543 36.8086 7.7332Z" fill="#DDEDE5"/>
<path d="M31.6898 7.23267V8.8897C31.6898 9.44751 31.2387 9.89868 30.6809 9.89868H17.966C17.4082 9.89868 16.957 9.44751 16.957 8.8897V7.23267H31.6898Z" fill="#AFC3C3"/>
<path d="M36.8086 32.4573V33.5565L28.0723 42.2846H26.973L26.9074 34.2866C26.9074 33.8026 27.0879 33.3432 27.4324 33.0069C27.7769 32.6624 28.2281 32.4737 28.7121 32.4737L36.8086 32.4573Z" fill="#AFC3C3"/>
<path d="M36.8086 33.5486L28.7121 33.565C28.3184 33.565 28.0067 33.8849 28.0067 34.2787L28.0641 42.2849L36.8086 33.5486Z" fill="#35696A"/>
<path d="M30.0902 8.80781H18.5566C18.2777 8.80781 18.048 8.57812 18.048 8.29922V3.50859C18.048 3.22969 18.2777 3 18.5566 3H30.0902C30.3691 3 30.5988 3.22969 30.5988 3.50859V8.29922C30.5906 8.57812 30.3691 8.80781 30.0902 8.80781Z" fill="#618BAA"/>
<path d="M30.5906 4.14023H18.0399V3.50859C18.0399 3.22969 18.2695 3 18.5485 3H30.082C30.361 3 30.5906 3.22969 30.5906 3.50859V4.14023Z" fill="#89B4C9"/>
<path d="M20.9027 6.7897C21.392 6.7897 21.7887 6.39305 21.7887 5.90376C21.7887 5.41447 21.392 5.01782 20.9027 5.01782C20.4134 5.01782 20.0168 5.41447 20.0168 5.90376C20.0168 6.39305 20.4134 6.7897 20.9027 6.7897Z" fill="#35696A"/>
<path d="M28.2855 6.53525H24.3234C23.9707 6.53525 23.6918 6.24814 23.6918 5.90361C23.6918 5.55908 23.9789 5.27197 24.3234 5.27197H28.2855C28.6382 5.27197 28.9172 5.55908 28.9172 5.90361C28.9172 6.24814 28.63 6.53525 28.2855 6.53525Z" fill="#35696A"/>
<path d="M36.2098 42.4239H33.9375C33.5848 42.4239 33.3058 42.1368 33.3058 41.7923C33.3058 41.4478 33.593 41.1606 33.9375 41.1606H36.218C36.5707 41.1606 36.8496 41.4478 36.8496 41.7923C36.8496 42.1368 36.5625 42.4239 36.2098 42.4239Z" fill="#DDEDE5"/>
<path d="M36.2097 40.6522H35.0695C34.7168 40.6522 34.4379 40.3651 34.4379 40.0206C34.4379 39.676 34.725 39.3889 35.0695 39.3889H36.2097C36.5625 39.3889 36.8414 39.676 36.8414 40.0206C36.8414 40.3651 36.5625 40.6522 36.2097 40.6522Z" fill="#DDEDE5"/>
<path d="M17.8922 18.6434C19.3011 18.6434 20.4433 17.5012 20.4433 16.0922C20.4433 14.6832 19.3011 13.541 17.8922 13.541C16.4832 13.541 15.341 14.6832 15.341 16.0922C15.341 17.5012 16.4832 18.6434 17.8922 18.6434Z" fill="#00D8E0"/>
<path d="M25.6687 14.7469H23.8969C23.5441 14.7469 23.2652 14.4598 23.2652 14.1153C23.2652 13.7708 23.5523 13.4836 23.8969 13.4836H25.6687C26.0215 13.4836 26.3004 13.7708 26.3004 14.1153C26.3004 14.4598 26.0215 14.7469 25.6687 14.7469Z" fill="#00D8E0"/>
<path d="M33.3059 16.7237H31.9441C31.5914 16.7237 31.3125 16.4366 31.3125 16.0921C31.3125 15.7476 31.5996 15.4604 31.9441 15.4604H33.3059C33.6586 15.4604 33.9375 15.7476 33.9375 16.0921C33.9375 16.4366 33.6504 16.7237 33.3059 16.7237Z" fill="#00D8E0"/>
<path d="M29.959 16.7237H23.8969C23.5441 16.7237 23.2652 16.4366 23.2652 16.0921C23.2652 15.7476 23.5523 15.4604 23.8969 15.4604H29.959C30.3117 15.4604 30.5906 15.7476 30.5906 16.0921C30.5906 16.4366 30.3117 16.7237 29.959 16.7237Z" fill="#00D8E0"/>
<path d="M24.7828 18.7254H23.8969C23.5441 18.7254 23.2652 18.4383 23.2652 18.0938C23.2652 17.7493 23.5523 17.4622 23.8969 17.4622H24.7828C25.1355 17.4622 25.4144 17.7493 25.4144 18.0938C25.4144 18.4383 25.1355 18.7254 24.7828 18.7254Z" fill="#00D8E0"/>
<path d="M33.3059 23.3685H15.7512C15.3984 23.3685 15.1195 23.0814 15.1195 22.7369C15.1195 22.3923 15.4066 22.1052 15.7512 22.1052H33.3059C33.6586 22.1052 33.9375 22.3923 33.9375 22.7369C33.9375 23.0814 33.6504 23.3685 33.3059 23.3685Z" fill="#35696A"/>
<path d="M33.3059 25.5094H27.2109C26.8582 25.5094 26.5793 25.2223 26.5793 24.8777C26.5793 24.5332 26.8664 24.2461 27.2109 24.2461H33.2977C33.6504 24.2461 33.9293 24.5332 33.9293 24.8777C33.9293 25.2223 33.6504 25.5094 33.3059 25.5094Z" fill="#35696A"/>
<path d="M25.1684 25.5094H15.7512C15.3984 25.5094 15.1195 25.2223 15.1195 24.8777C15.1195 24.5332 15.4066 24.2461 15.7512 24.2461H25.1684C25.5211 24.2461 25.8 24.5332 25.8 24.8777C25.8 25.2223 25.5129 25.5094 25.1684 25.5094Z" fill="#35696A"/>
<path d="M33.3059 27.6588H21.1242C20.7715 27.6588 20.4926 27.3717 20.4926 27.0271C20.4926 26.6826 20.7797 26.3955 21.1242 26.3955H33.3059C33.6586 26.3955 33.9375 26.6826 33.9375 27.0271C33.9375 27.3717 33.6504 27.6588 33.3059 27.6588Z" fill="#35696A"/>
<path d="M18.7945 27.6588H15.7512C15.3984 27.6588 15.1195 27.3717 15.1195 27.0271C15.1195 26.6826 15.4066 26.3955 15.7512 26.3955H18.7945C19.1473 26.3955 19.4262 26.6826 19.4262 27.0271C19.4262 27.3717 19.1473 27.6588 18.7945 27.6588Z" fill="#35696A"/>
<path d="M33.3059 29.808H15.7512C15.3984 29.808 15.1195 29.5209 15.1195 29.1763C15.1195 28.8318 15.4066 28.5447 15.7512 28.5447H33.3059C33.6586 28.5447 33.9375 28.8318 33.9375 29.1763C33.9375 29.5209 33.6504 29.808 33.3059 29.808Z" fill="#35696A"/>
<path d="M17.482 33.9916H15.7512C15.3984 33.9916 15.1195 33.7044 15.1195 33.3599C15.1195 33.0154 15.4066 32.7283 15.7512 32.7283H17.482C17.8348 32.7283 18.1137 33.0154 18.1137 33.3599C18.1137 33.7044 17.8266 33.9916 17.482 33.9916Z" fill="#35696A"/>
<path d="M16.9488 38.9955C15.8988 38.9955 15.0375 38.1424 15.0375 37.0842C15.0375 36.0342 15.8906 35.1729 16.9488 35.1729C17.9988 35.1729 18.8602 36.026 18.8602 37.0842C18.8602 38.1342 18.007 38.9955 16.9488 38.9955ZM16.9488 36.4361C16.5961 36.4361 16.3008 36.7232 16.3008 37.0842C16.3008 37.4369 16.5879 37.7322 16.9488 37.7322C17.3016 37.7322 17.5969 37.4451 17.5969 37.0842C17.5969 36.7314 17.3098 36.4361 16.9488 36.4361Z" fill="#35696A"/>
<path d="M22.7156 37.2318H20.7469C20.3941 37.2318 20.1152 36.9447 20.1152 36.6001C20.1152 36.2556 20.4023 35.9685 20.7469 35.9685H22.7156C23.0684 35.9685 23.3473 36.2556 23.3473 36.6001C23.3473 36.9447 23.0684 37.2318 22.7156 37.2318Z" fill="#35696A"/>
<path d="M22.7156 38.9955H20.7469C20.3941 38.9955 20.1152 38.7084 20.1152 38.3638C20.1152 38.0193 20.4023 37.7322 20.7469 37.7322H22.7156C23.0684 37.7322 23.3473 38.0193 23.3473 38.3638C23.3473 38.7084 23.0684 38.9955 22.7156 38.9955Z" fill="#35696A"/>
</g>
<defs>
<clipPath id="clip0">
<rect width="30.6387" height="42" fill="white" transform="translate(9 3)"/>
</clipPath>
</defs>
</svg>
