<svg width="29" height="36" viewBox="0 0 29 36" fill="none" xmlns="http://www.w3.org/2000/svg">
<path d="M1.87744 7.22109V34.2281C1.87744 35.2055 2.67197 36 3.64932 36H22.8306C23.8079 36 24.6024 35.2055 24.6024 34.2281V7.22109C24.6024 6.24375 23.8079 5.44922 22.8306 5.44922H3.64932C2.67197 5.44922 1.87744 6.24375 1.87744 7.22109Z" fill="#C9CDD3"/>
<path d="M0 5.34382V32.3509C0 33.3282 0.794531 34.1227 1.77188 34.1227H20.9531C21.9305 34.1227 22.725 33.3282 22.725 32.3509V5.34382C22.725 4.36648 21.9305 3.57195 20.9531 3.57195H1.77188C0.794531 3.56491 0 4.35945 0 5.34382Z" fill="#EBEEF2"/>
<path d="M16.0595 12.1991H6.66572C6.37041 12.1991 6.13135 11.9601 6.13135 11.6647C6.13135 11.3694 6.37041 11.1304 6.66572 11.1304H16.0524C16.3477 11.1304 16.5868 11.3694 16.5868 11.6647C16.5868 11.9601 16.3548 12.1991 16.0595 12.1991Z" fill="#FEBF08"/>
<path d="M18.7944 17.2548H3.93037C3.63506 17.2548 3.396 17.0157 3.396 16.7204C3.396 16.4251 3.63506 16.186 3.93037 16.186H18.7944C19.0897 16.186 19.3288 16.4251 19.3288 16.7204C19.3288 17.0157 19.0897 17.2548 18.7944 17.2548Z" fill="#52668D"/>
<path d="M18.7944 21.1571H3.93037C3.63506 21.1571 3.396 20.9181 3.396 20.6228C3.396 20.3274 3.63506 20.0884 3.93037 20.0884H18.7944C19.0897 20.0884 19.3288 20.3274 19.3288 20.6228C19.3288 20.9181 19.0897 21.1571 18.7944 21.1571Z" fill="#52668D"/>
<path d="M18.7944 25.0595H3.93037C3.63506 25.0595 3.396 24.8204 3.396 24.5251C3.396 24.2298 3.63506 23.9907 3.93037 23.9907H18.7944C19.0897 23.9907 19.3288 24.2298 19.3288 24.5251C19.3288 24.8204 19.0897 25.0595 18.7944 25.0595Z" fill="#52668D"/>
<path d="M26.4867 28.4415C25.9593 28.4696 25.5093 28.1321 25.3617 27.668C25.3406 27.6118 25.2702 27.6118 25.2492 27.668C25.1015 28.118 24.6796 28.4415 24.1804 28.4415C23.6812 28.4415 23.2523 28.118 23.1046 27.661C23.0835 27.6047 23.0132 27.6047 22.9921 27.661C22.8445 28.111 22.4226 28.4415 21.9163 28.4415C21.2906 28.4415 20.7913 27.9352 20.7913 27.3165V31.1274C20.7913 31.7321 20.3273 32.2594 19.7156 32.2875C19.0687 32.3157 18.5343 31.8024 18.5343 31.1625V24.2649L17.0578 26.1071C16.6359 26.6133 15.9046 26.6485 15.4335 26.1774C14.9624 25.7063 14.9343 24.9118 15.3562 24.4055L18.5343 20.5383V18.5696H27.5554V23.5969V25.3055V27.2883C27.5554 27.879 27.0773 28.4133 26.4867 28.4415Z" fill="#F6BB93"/>
<path d="M27.5555 18.5625H18.5344V20.2852H27.5555V18.5625Z" fill="#E49775"/>
<path d="M26.0437 18.5625V23.5898V25.2984V27.2812C26.0437 27.6117 25.8961 27.9211 25.6641 28.139C25.875 28.3359 26.1703 28.4555 26.4867 28.4414C27.0773 28.4133 27.5625 27.8719 27.5625 27.2812V25.2984V23.5898V18.5625H26.0437Z" fill="#E49775"/>
<path d="M28.2446 14.4634H18.204C18.0141 14.4634 17.8665 14.6181 17.8665 14.8009V18.5696C17.8665 18.8509 18.0915 19.0759 18.3727 19.0759H28.0829C28.3641 19.0759 28.5891 18.8509 28.5891 18.5696V14.8009C28.5821 14.6181 28.4274 14.4634 28.2446 14.4634Z" fill="#3872B7"/>
<path d="M28.2445 14.4634H26.5289C26.7187 14.4634 26.8664 14.6181 26.8664 14.8009V18.5696C26.8664 18.8509 26.6414 19.0759 26.3601 19.0759H28.0757C28.357 19.0759 28.582 18.8509 28.582 18.5696V14.8009C28.582 14.6181 28.4273 14.4634 28.2445 14.4634Z" fill="#254E87"/>
<path d="M19.7929 17.3039H19.5046C19.2093 17.3039 18.9702 17.0648 18.9702 16.7695C18.9702 16.4742 19.2093 16.2351 19.5046 16.2351H19.7929C20.0882 16.2351 20.3272 16.4742 20.3272 16.7695C20.3272 17.0648 20.0882 17.3039 19.7929 17.3039Z" fill="#EBEEF2"/>
<path d="M5.18193 0C3.73349 0 2.55225 1.18125 2.55225 2.62969V3.57187H3.62099V2.62969C3.62099 1.77188 4.31709 1.06875 5.18193 1.06875C6.04677 1.06875 6.74287 1.76484 6.74287 2.62969V7.54453C6.74287 7.9875 6.38427 8.34609 5.9413 8.34609C5.49834 8.34609 5.13974 7.9875 5.13974 7.54453V5.44922C5.13974 5.15391 4.90068 4.91484 4.60537 4.91484C4.31006 4.91484 4.07099 5.15391 4.07099 5.44922V7.54453C4.07099 8.57812 4.90771 9.41484 5.9413 9.41484C6.9749 9.41484 7.81161 8.57812 7.81161 7.54453V2.62969C7.81161 1.18125 6.63037 0 5.18193 0Z" fill="#52668D"/>
</svg>
