<svg width="48" height="48" viewBox="0 0 48 48" fill="none" xmlns="http://www.w3.org/2000/svg">
<circle cx="24" cy="24" r="24" fill="#E8E8E8"/>
<g clip-path="url(#clip0)">
<path d="M3 31.7241H11.6897V37.5172C11.6897 38.3138 11.0379 38.9655 10.2414 38.9655H4.44828C3.65172 38.9655 3 38.3138 3 37.5172V31.7241Z" fill="#4D5E78"/>
<path d="M3 31.7241H11.6897V36.0689H3V31.7241Z" fill="#44546C"/>
<path d="M5.17242 33.8966H6.62069V38.9656H5.17242V33.8966Z" fill="#404F66"/>
<path d="M8.06896 33.8966H9.51724V38.9656H8.06896V33.8966Z" fill="#404F66"/>
<path d="M36.3103 31.7241H45V37.5172C45 38.3138 44.3483 38.9655 43.5517 38.9655H37.7586C36.9621 38.9655 36.3103 38.3138 36.3103 37.5172V31.7241Z" fill="#4D5E78"/>
<path d="M36.3103 31.7241H45V36.0689H36.3103V31.7241Z" fill="#44546C"/>
<path d="M38.4828 33.8966H39.931V38.9656H38.4828V33.8966Z" fill="#404F66"/>
<path d="M41.3793 33.8966H42.8276V38.9656H41.3793V33.8966Z" fill="#404F66"/>
<path d="M5.89655 21.5862H42.1034C43.7056 21.5862 45 22.8806 45 24.4827V31.7241C45 33.3263 43.7056 34.6207 42.1034 34.6207H5.89655C4.2944 34.6207 3 33.3263 3 31.7241V24.4827C3 22.8806 4.2944 21.5862 5.89655 21.5862Z" fill="#F35244"/>
<path d="M7.34483 24.4828H11.6897C12.4862 24.4828 13.1379 25.1345 13.1379 25.9311V27.3793C13.1379 28.1759 12.4862 28.8276 11.6897 28.8276H7.34483C6.54828 28.8276 5.89655 28.1759 5.89655 27.3793V25.9311C5.89655 25.1345 6.54828 24.4828 7.34483 24.4828Z" fill="#E0E0DE"/>
<path d="M36.3103 24.4828H40.6552C41.4517 24.4828 42.1034 25.1345 42.1034 25.9311V27.3793C42.1034 28.1759 41.4517 28.8276 40.6552 28.8276H36.3103C35.5138 28.8276 34.8621 28.1759 34.8621 27.3793V25.9311C34.8621 25.1345 35.5138 24.4828 36.3103 24.4828Z" fill="#E0E0DE"/>
<path d="M15.3103 24.4828H32.6897V25.9311H15.3103V24.4828Z" fill="#CF3B2E"/>
<path d="M15.3103 27.3793H32.6897V28.8275H15.3103V27.3793Z" fill="#CF3B2E"/>
<path d="M3 31.7241H45C45 33.3263 43.7056 34.6207 42.1034 34.6207H5.89655C4.2944 34.6207 3 33.3263 3 31.7241Z" fill="#D6D6D4"/>
<path d="M38.1207 12.8966H9.87931L10.2595 11.8828C10.6849 10.7513 11.7621 10 12.975 10H35.025C36.2289 10 37.3151 10.7513 37.7405 11.8828L38.1207 12.8966Z" fill="#F35244"/>
<path d="M9.87931 12.8966L6.62069 21.5863H41.3793L38.1207 12.8966H9.87931Z" fill="#60D1E0"/>
<path d="M9.58064 19.0879L11.7531 14.743L13.0475 15.3948L10.875 19.7396L9.58064 19.0879Z" fill="#9FE4ED"/>
<path d="M38.1207 12.8966H29.2953L33.4591 10H35.025C36.2289 10 37.3151 10.7513 37.7405 11.8828L38.1207 12.8966Z" fill="#EA4A3B"/>
<path d="M38.1207 12.8966H29.2953L16.8039 21.5863H41.3793L38.1207 12.8966Z" fill="#5AC6D4"/>
</g>
<defs>
<clipPath id="clip0">
<rect width="42" height="28.9655" fill="white" transform="translate(3 10)"/>
</clipPath>
</defs>
</svg>
