<svg width="48" height="48" viewBox="0 0 48 48" fill="none" xmlns="http://www.w3.org/2000/svg">
<rect width="48" height="48" rx="24" fill="#FFC93F"/>
<g clip-path="url(#clip0)">
<path d="M41.6461 31.4978V43.2529H33.7301V32.3017L41.6461 31.4978Z" fill="#8D9FAD"/>
<path d="M39.3164 41.5056C38.3812 40.0291 38.3812 38.1423 39.3164 36.6658L26.7492 34.3279H9.96562V43.2611H32.3355L39.3164 41.5056Z" fill="#F1F4F6"/>
<path d="M41.6461 4.74727V34.9102L12.6809 35.632L10.9746 35.6812L6.75821 39.0773V8.92266C6.75821 8.84062 6.75821 8.7668 6.76641 8.68477C6.88946 5.52656 9.49805 3 12.6809 3H39.8988C40.8668 3 41.6461 3.7875 41.6461 4.74727Z" fill="#BBCFD4"/>
<path d="M12.6809 3V35.632L10.9746 35.6812L6.75821 39.0773V8.92266C6.75821 5.65781 9.41602 3 12.6809 3Z" fill="#A3B8BF"/>
<path d="M39.8988 44.9998H12.6809C9.41602 44.9998 6.75821 42.342 6.75821 39.0772C6.75821 35.8123 9.41602 33.1545 12.6809 33.1545H39.8988C40.8668 33.1545 41.6461 33.9338 41.6461 34.9018C41.6461 35.8698 40.8668 36.6491 39.8988 36.6491H19.8422L16.8152 37.8631L13.7883 36.6491H12.6809C11.3438 36.6491 10.2609 37.7319 10.2609 39.069C10.2609 40.4061 11.3438 41.4889 12.6809 41.4889H39.8988C40.8668 41.4889 41.6461 42.2682 41.6461 43.2362C41.6461 44.2041 40.8586 44.9998 39.8988 44.9998Z" fill="#A3B8BF"/>
<path d="M16.0605 26.6496V9.50503C16.0605 7.77417 17.4633 6.37964 19.1859 6.37964H35.1328C36.8637 6.37964 38.2582 7.78237 38.2582 9.50503V26.6496C38.2582 28.3804 36.8555 29.775 35.1328 29.775H19.1859C17.4633 29.775 16.0605 28.3804 16.0605 26.6496Z" fill="#4E5959"/>
<path d="M21.1137 29.7833H19.1859C17.4551 29.7833 16.0605 28.3805 16.0605 26.6579V9.51333C16.0605 7.78247 17.4633 6.38794 19.1859 6.38794H21.1137C19.3828 6.38794 17.9883 7.79067 17.9883 9.51333V26.6579C17.9883 28.3805 19.391 29.7833 21.1137 29.7833Z" fill="#454B4B"/>
<path d="M19.8422 36.6575V42.3833C19.8422 43.1051 19.0055 43.5153 18.4312 43.0641L17.3484 42.211C17.0367 41.9649 16.5855 41.9649 16.2738 42.211L15.191 43.0641C14.6168 43.5153 13.7801 43.1051 13.7801 42.3833V36.6575H19.8422Z" fill="#DD636E"/>
<path d="M13.7801 36.6575H19.8422V39.0774H13.7801V36.6575Z" fill="#DA4A54"/>
<path d="M13.1074 9.87422C13.1074 10.227 12.8203 10.5059 12.4758 10.5059H11.8277C9.42422 10.5059 7.38984 12.1137 6.75 14.3121V11.6543C7.96406 10.1777 9.79336 9.23438 11.8359 9.23438H12.484C12.8285 9.23438 13.1074 9.52148 13.1074 9.87422Z" fill="#4E5959"/>
<path d="M6.75821 11.3509V8.9228C6.75821 8.84077 6.75821 8.76694 6.76641 8.68491C7.96407 7.21655 9.79337 6.27319 11.8359 6.27319H12.4758C12.8285 6.27319 13.1074 6.5603 13.1074 6.90483C13.1074 7.24936 12.8203 7.53647 12.4758 7.53647H11.8359C9.43243 7.54468 7.39805 9.15249 6.75821 11.3509Z" fill="#4E5959"/>
<path d="M13.1074 27.4372C13.1074 27.7899 12.8203 28.0688 12.4758 28.0688H11.8277C9.43243 28.0688 7.39805 29.6767 6.75821 31.8751V29.2091C7.96407 27.7407 9.79337 26.7974 11.8359 26.7974H12.484C12.8285 26.7974 13.1074 27.0845 13.1074 27.4372Z" fill="#4E5959"/>
<path d="M34.0008 18.0773C34.0008 17.7164 33.968 17.3554 33.9187 17.0109C33.8695 16.7074 34.0172 16.4039 34.2797 16.248L35.2558 15.682C35.6086 15.4769 35.7316 15.0175 35.5266 14.6648L34.2961 12.5402C34.091 12.1875 33.6316 12.0644 33.2789 12.2695L32.3027 12.8355C32.032 12.9914 31.6957 12.9585 31.4578 12.7699C30.9 12.3187 30.2766 11.9578 29.5957 11.6953C29.3168 11.5886 29.1281 11.3179 29.1281 11.0226V9.87417C29.1281 9.46401 28.7918 9.12769 28.3816 9.12769H25.9289C25.5187 9.12769 25.1824 9.46401 25.1824 9.87417V11.0144C25.1824 11.3097 25.0019 11.5804 24.723 11.6871C24.0422 11.9496 23.4187 12.3105 22.8609 12.7617C22.623 12.9585 22.2867 12.9832 22.016 12.8273L21.0398 12.2613C20.6871 12.0562 20.2277 12.1792 20.0226 12.532L18.7922 14.6566C18.5871 15.0093 18.7101 15.4687 19.0629 15.6738L20.0391 16.2398C20.3098 16.3957 20.4492 16.6992 20.4 17.0027C20.3426 17.3472 20.318 17.7082 20.318 18.0691C20.318 18.43 20.3508 18.791 20.4 19.1355C20.4492 19.439 20.3016 19.7425 20.0391 19.8984L19.0629 20.4644C18.7101 20.6695 18.5871 21.1289 18.7922 21.4816L20.0226 23.6062C20.2277 23.9589 20.6871 24.082 21.0398 23.8769L22.016 23.3109C22.2867 23.155 22.623 23.1878 22.8609 23.3765C23.4187 23.8277 24.0422 24.1886 24.723 24.4511C25.0019 24.5578 25.1824 24.8285 25.1824 25.1238V26.264C25.1824 26.6742 25.5187 27.0105 25.9289 27.0105H28.3816C28.7918 27.0105 29.1281 26.6742 29.1281 26.264V25.1238C29.1281 24.8285 29.3086 24.5578 29.5957 24.4511C30.2766 24.1886 30.9082 23.8277 31.4578 23.3765C31.6957 23.1796 32.032 23.155 32.3027 23.3109L33.2789 23.8769C33.6316 24.082 34.091 23.9589 34.2961 23.6062L35.5266 21.4816C35.7316 21.1289 35.6086 20.6695 35.2558 20.4644L34.2797 19.8984C34.009 19.7425 33.8695 19.439 33.9187 19.1355C33.968 18.7992 34.0008 18.4464 34.0008 18.0773ZM27.1594 21.457C25.2973 21.457 23.7797 19.9476 23.7797 18.0773C23.7797 16.2152 25.2891 14.6976 27.1594 14.6976C29.0215 14.6976 30.5391 16.207 30.5391 18.0773C30.5391 19.9476 29.0297 21.457 27.1594 21.457Z" fill="#F1F4F6"/>
<path d="M31.7203 18.0774C31.7203 16.2153 30.2109 14.6978 28.3406 14.6978C28.1355 14.6978 27.9387 14.7142 27.75 14.747C29.3332 15.0259 30.5391 16.404 30.5391 18.0692C30.5391 19.7345 29.3332 21.1126 27.75 21.3915C27.9387 21.4243 28.1355 21.4407 28.3406 21.4407C30.2109 21.4571 31.7203 19.9478 31.7203 18.0774Z" fill="#D4E1E6"/>
<path d="M23.1973 12.8355C23.468 12.9914 23.8043 12.9585 24.0422 12.7699C24.6 12.3187 25.2234 11.9578 25.9043 11.6953C26.1832 11.5886 26.3637 11.3179 26.3637 11.0226V9.87417C26.3637 9.46401 26.7 9.12769 27.1101 9.12769H25.9289C25.5187 9.12769 25.1824 9.46401 25.1824 9.87417V11.0144C25.1824 11.3097 25.0019 11.5804 24.723 11.6871C24.0832 11.9332 23.4844 12.2695 22.9512 12.6878L23.1973 12.8355Z" fill="#D4E1E6"/>
<path d="M32.6391 12.7616C32.877 12.9585 33.2133 12.9831 33.484 12.8273L34.2059 12.4089C33.9762 12.1546 33.5906 12.0808 33.2789 12.2613L32.5488 12.6878C32.5816 12.7124 32.6145 12.737 32.6391 12.7616Z" fill="#D4E1E6"/>
<path d="M33.484 23.3273C33.2133 23.1714 32.877 23.2042 32.6391 23.3929C32.6063 23.4175 32.5734 23.4421 32.5488 23.4667L33.2789 23.8933C33.5906 24.0738 33.9762 23.9999 34.2059 23.7456L33.484 23.3273Z" fill="#D4E1E6"/>
<path d="M21.2039 23.6145L19.9734 21.4898C19.7684 21.1371 19.8914 20.6777 20.2441 20.4727L21.2203 19.9066C21.491 19.7508 21.6305 19.4473 21.5812 19.1438C21.5238 18.7992 21.4992 18.4383 21.4992 18.0773C21.4992 17.7164 21.532 17.3555 21.5812 17.0109C21.6305 16.7074 21.4828 16.4039 21.2203 16.248L20.2441 15.682C19.8914 15.477 19.7684 15.0176 19.9734 14.6648L21.2039 12.5402C21.2285 12.491 21.2613 12.45 21.2941 12.4172L21.0398 12.2695C20.6871 12.0645 20.2277 12.1875 20.0227 12.5402L18.7922 14.6648C18.5871 15.0176 18.7101 15.477 19.0629 15.682L20.0391 16.248C20.3098 16.4039 20.4492 16.7074 20.4 17.0109C20.3426 17.3555 20.318 17.7164 20.318 18.0773C20.318 18.4383 20.3508 18.7992 20.4 19.1438C20.4492 19.4473 20.3016 19.7508 20.0391 19.9066L19.0629 20.4727C18.7101 20.6777 18.5871 21.1371 18.7922 21.4898L20.0227 23.6145C20.2277 23.9672 20.6871 24.0902 21.0398 23.8852L21.2941 23.7375C21.2613 23.7047 21.2285 23.6637 21.2039 23.6145Z" fill="#D4E1E6"/>
<path d="M26.3719 26.2886V25.1484C26.3719 24.8531 26.1914 24.5824 25.9125 24.4757C25.2316 24.2132 24.6082 23.8523 24.0504 23.4011C23.8125 23.2043 23.4762 23.1797 23.2055 23.3355L22.9594 23.475C23.4926 23.8933 24.0914 24.2297 24.7312 24.4757C25.0102 24.5824 25.1906 24.8531 25.1906 25.1484V26.2886C25.1906 26.6988 25.527 27.0351 25.9371 27.0351H27.1184C26.7 27.0351 26.3719 26.6988 26.3719 26.2886Z" fill="#D4E1E6"/>
</g>
<defs>
<clipPath id="clip0">
<rect width="34.8879" height="42" fill="white" transform="translate(6.75 3)"/>
</clipPath>
</defs>
</svg>
