<svg width="48" height="48" viewBox="0 0 48 48" fill="none" xmlns="http://www.w3.org/2000/svg">
<g clip-path="url(#clip0)">
<path d="M23.9719 48.0004C37.2112 48.0004 47.9437 37.2678 47.9437 24.0285C47.9437 10.7892 37.2112 0.0566406 23.9719 0.0566406C10.7326 0.0566406 0 10.7892 0 24.0285C0 37.2678 10.7326 48.0004 23.9719 48.0004Z" fill="#4473C5"/>
<path d="M23.9719 48.0002C31.5938 48.0002 38.3906 44.4377 42.7781 38.8877C42.7781 38.0721 42.7781 20.0814 42.7781 19.5189C42.7781 18.7689 42.1688 18.1689 41.4281 18.1689C37.575 18.1689 9.79688 18.1689 5.82188 18.1689C4.45313 18.1689 3.34688 19.2752 3.34688 20.6439V36.2533C7.52813 43.2846 15.2063 48.0002 23.9719 48.0002Z" fill="#9E7430"/>
<path d="M8.1375 20.2689C8.1375 19.3877 8.60625 18.6096 9.3 18.1689C8.475 18.1689 6.64688 18.1689 5.82188 18.1689C4.45313 18.1689 3.34688 19.2752 3.34688 20.6439V36.2533C4.63125 38.4189 6.25313 40.3596 8.12813 42.0189C8.1375 41.0814 8.1375 21.6658 8.1375 20.2689Z" fill="#8E6325"/>
<path d="M42.7875 38.8875C42.7875 27.45 42.7875 41.3906 42.7875 29.2875C41.1188 29.2875 7.44375 29.2875 5.83125 29.2875C4.4625 29.2875 3.35625 28.1812 3.35625 26.8125C3.35625 28.1062 3.35625 35.1281 3.35625 36.2531C4.275 37.8 5.3625 39.2344 6.6 40.5281C7.90312 40.5281 39.225 40.5281 41.3625 40.5281C41.8594 40.0125 42.3375 39.4594 42.7875 38.8875Z" fill="#8E6325"/>
<path d="M8.1375 40.5375C8.1375 39.2531 8.1375 30.9281 8.1375 29.2875H5.82188C4.45313 29.2875 3.34688 28.1812 3.34688 26.8125C3.34688 28.1062 3.34688 35.1281 3.34688 36.2531C4.26563 37.8 5.35313 39.2344 6.59063 40.5281L8.1375 40.5375Z" fill="#7F551D"/>
<path d="M41.4375 18.1689C28.9781 18.1689 18.5906 18.1689 5.83126 18.1689C4.49063 18.1689 3.40313 19.2283 3.36563 20.5596C3.41251 21.8814 4.50001 22.9502 5.83126 22.9502C13.7156 22.9502 35.3344 22.9502 42.7875 22.9502V19.5283C42.7875 18.7783 42.1781 18.1689 41.4375 18.1689Z" fill="#8E6325"/>
<path d="M5.82188 22.9408H8.1375V20.2689C8.1375 19.3877 8.60625 18.6096 9.3 18.1689C8.475 18.1689 6.64688 18.1689 5.82188 18.1689C4.48125 18.1689 3.39375 19.2283 3.34688 20.5596C3.40313 21.8814 4.49063 22.9408 5.82188 22.9408Z" fill="#7F551D"/>
<path d="M42.7875 31.1904H44.5969V30.2154C44.5969 29.6904 44.175 29.2686 43.65 29.2686H42.7781V31.1904H42.7875Z" fill="#8E7973"/>
<path d="M42.7875 31.1904H44.5969V30.2154C44.5969 29.6904 44.175 29.2686 43.65 29.2686H42.7781V31.1904H42.7875Z" fill="#7C531D"/>
<path d="M44.5969 36.2535C44.5969 35.4941 44.5969 31.1254 44.5969 30.2441C44.5969 30.7691 44.175 31.191 43.65 31.191H39.7313C37.425 31.191 35.8031 33.2066 35.8781 34.9598C35.9719 37.0129 37.6594 38.6441 39.7313 38.6441H42.975C43.5656 37.8754 44.1094 37.0879 44.5969 36.2535Z" fill="#8E6325"/>
<path d="M38.4281 34.8748C38.5219 32.8217 40.2094 31.1904 42.2813 31.1904H39.7313C37.425 31.1904 35.8031 33.2061 35.8781 34.9592C35.9719 37.0123 37.6594 38.6436 39.7313 38.6436H42.2813C39.975 38.6342 38.3531 36.6186 38.4281 34.8748Z" fill="#7C531D"/>
<path d="M40.6406 33.3567C39.6844 32.8036 38.4469 33.2067 38.0156 34.2473C37.5469 35.3723 38.2781 36.6286 39.4781 36.7879C40.2 36.8817 40.9312 36.5442 41.3156 35.8786C41.8219 34.9973 41.5219 33.8629 40.6406 33.3567Z" fill="#EAE4D6"/>
<path d="M39.7125 33.1123C38.9812 33.1123 38.3062 33.5436 38.0062 34.2467C37.5375 35.3717 38.2687 36.6279 39.4687 36.7873C40.1906 36.881 40.9219 36.5436 41.3062 35.8779C39.8906 35.8779 39.0094 34.3404 39.7125 33.1123Z" fill="#E0D5BD"/>
<path d="M38.625 6.70312C34.4156 6.70312 22.5281 6.70312 18.2813 6.70312C17.625 6.70312 17.0906 7.2375 17.0906 7.89375V22.95H39.8156V7.89375C39.8156 7.2375 39.2719 6.70312 38.625 6.70312Z" fill="#7EA020"/>
<path d="M38.625 6.70312C39.2813 6.70312 39.8156 7.2375 39.8156 7.89375V14.0156C35.7094 14.0344 32.4656 10.7062 32.4656 6.70312C34.6125 6.70312 36.4688 6.70312 38.625 6.70312Z" fill="#5F8C11"/>
<path d="M34.1438 3.34668C29.9344 3.34668 18.0469 3.34668 13.8 3.34668C13.1437 3.34668 12.6094 3.88105 12.6094 4.5373V22.9404H35.3438V4.54668C35.3438 3.89043 34.8 3.34668 34.1438 3.34668Z" fill="#87AF2E"/>
<path d="M34.1438 3.34668C34.8 3.34668 35.3344 3.88105 35.3344 4.5373V10.6592C31.2656 10.6779 27.9844 7.3873 27.9844 3.34668C30.1406 3.34668 31.9969 3.34668 34.1438 3.34668Z" fill="#669612"/>
<path d="M29.6719 0C25.4625 0 13.575 0 9.32812 0C8.67187 0 8.1375 0.534375 8.1375 1.19062V22.9406C10.1719 22.9406 27.2531 22.9406 30.8625 22.9406V1.19062C30.8625 0.534375 30.3281 0 29.6719 0Z" fill="#97BC31"/>
<path d="M14.3906 0C12.3281 0 10.5281 0 9.33751 0C8.68126 0 8.14688 0.534375 8.14688 1.19062V22.9406C10.6219 22.9406 11.0813 22.9406 13.2 22.9406V1.19062C13.2 0.534375 13.7344 0 14.3906 0Z" fill="#87AF2E"/>
<path d="M29.6719 0C30.3282 0 30.8625 0.534375 30.8625 1.19062V7.3125C26.7563 7.33125 23.5125 4.00313 23.5125 0C25.6688 0 27.525 0 29.6719 0Z" fill="#76A314"/>
<path d="M9.32812 0C8.67187 0 8.1375 0.534375 8.1375 1.19062V7.3125C12.2437 7.33125 15.4875 4.00313 15.4875 0C13.3312 0 11.4844 0 9.32812 0Z" fill="#76A314"/>
<path d="M8.1375 7.31256C10.0594 7.32194 11.8406 6.59069 13.1906 5.31569V1.19069C13.1906 0.53444 13.725 6.5104e-05 14.3812 6.5104e-05C8.85937 6.5104e-05 9.2625 -0.0093099 9.09375 0.0281901C8.55 0.14069 8.1375 0.62819 8.1375 1.19069V7.31256Z" fill="#669612"/>
<path d="M19.6969 22.941C22.8449 22.941 25.3969 20.389 25.3969 17.241C25.3969 14.093 22.8449 11.541 19.6969 11.541C16.5488 11.541 13.9969 14.093 13.9969 17.241C13.9969 20.389 16.5488 22.941 19.6969 22.941Z" fill="#C3DD54"/>
<path d="M16.8938 13.1625C17.1938 12.6469 17.5594 12.1875 17.9813 11.8125C16.6688 12.225 15.5063 13.1156 14.7656 14.4C13.1906 17.1281 14.1281 20.6156 16.8563 22.1906C19.0688 23.4656 21.7781 23.0906 23.5594 21.4594C18.6 23.0156 14.3063 17.6438 16.8938 13.1625Z" fill="#B0CE45"/>
<path d="M20.2031 17.8594H21.7125C21.5906 18.3001 21.375 18.5907 21.375 18.6001C21.1688 18.8719 21.225 19.2657 21.5063 19.4626C21.7781 19.6688 22.1719 19.6126 22.3688 19.3313C22.3969 19.2938 22.8281 18.7032 22.9875 17.8501H23.3156C23.6531 17.8501 23.9344 17.5688 23.9344 17.2313C23.9344 16.8938 23.6531 16.6126 23.3156 16.6126H22.9875C22.725 15.3469 21.825 14.7094 20.9438 14.8126C20.1281 14.9063 19.5 15.5626 19.2188 16.6126H17.7094C17.8313 16.1813 18.0375 15.8907 18.0469 15.8719C18.2438 15.6001 18.1875 15.2157 17.9156 15.0094C17.6438 14.8032 17.25 14.8594 17.0531 15.1407C17.025 15.1782 16.5938 15.7688 16.4344 16.6126H16.1063C15.7688 16.6126 15.4875 16.8938 15.4875 17.2313C15.4875 17.5688 15.7688 17.8501 16.1063 17.8501H16.4344C16.9031 20.1469 19.5094 20.4094 20.2031 17.8594ZM21.0656 16.0501C21.3 16.0219 21.5438 16.2376 21.6844 16.5938C21.6844 16.6032 21.6938 16.6126 21.6938 16.6313H20.5031C20.6625 16.2563 20.8781 16.0688 21.0656 16.0501ZM17.7094 17.8594H18.9C18.5438 18.6563 17.9719 18.5907 17.7094 17.8594Z" fill="#F9F6ED"/>
<path d="M18.9937 5.7373V8.79355C18.9937 9.17793 19.3125 9.49668 19.6969 9.49668C20.0812 9.49668 20.4 9.17793 20.4 8.79355V5.7373C20.4 5.35293 20.0812 5.03418 19.6969 5.03418C19.3125 5.03418 18.9937 5.34355 18.9937 5.7373Z" fill="#B0CE45"/>
</g>
<defs>
<clipPath id="clip0">
<rect width="47.9531" height="48" fill="white"/>
</clipPath>
</defs>
</svg>
